<svg xmlns="http://www.w3.org/2000/svg" height="1000" width="877"><path d="M438.7 1.86c-31.3 0 -56.4 25.06 -56.4 56.4s25.1 56.34 56.4 56.34c31.3 0 58.5 -25 58.5 -56.34 0 -31.34 -27.2 -56.4 -58.5 -56.4zm0 18.81c21 0 37.6 16.71 37.6 37.59 0 20.94 -16.6 37.54 -37.6 37.54s-37.6 -16.6 -37.6 -37.54c0 -20.88 16.6 -37.59 37.6 -37.59zm-346.8 256.93c25.1 83.6 35.5 209 39.8 296.7 0 0 2 0 2 0l610 0s2 0 4.2 0c2.1 -87.7 12.5 -213.1 37.5 -296.7 -12.4 -6.3 -25 -18.8 -31.2 -31.3 -75.2 64.8 -163 192.2 -163 192.2s-94 -188 -133.7 -307.2c-6.2 2.3 -12.5 2.3 -18.8 2.3 -6.3 0 -10.4 0 -16.7 -2.3 -39.7 119.2 -135.8 309.3 -135.8 309.3s-85.7 -129.5 -160.9 -194.3c-8.3 12.5 -18.8 25 -33.3 31.3zm-33.4 -123.3c-31.35 0 -58.5 25.1 -58.5 56.5 0 31.2 27.15 56.3 58.5 56.3 31.2 0 56.4 -25.1 56.4 -56.3 0 -31.4 -25.2 -56.5 -56.4 -56.5zm0 18.8c20.9 0 37.5 16.8 37.5 37.7 0 20.9 -16.6 37.5 -37.5 37.5s-39.69 -16.6 -39.69 -37.5 18.79 -37.7 39.69 -37.7zm685.2 438.7l-610 0c0 41.9 0 73.3 0 112.9l610 0c0 -33.4 0 -64.8 0 -112.9zm77.3 -457.5c-31.3 0 -56.3 25.1 -56.3 56.5 0 31.2 25 56.3 56.3 56.3 31.4 0 56.4 -25.1 56.4 -56.3 0 -31.4 -25 -56.5 -56.4 -56.5zm0 18.8c21 0 37.6 16.8 37.6 37.7 0 20.9 -16.6 37.5 -37.6 37.5 -20.9 0 -37.6 -16.6 -37.6 -37.5s16.7 -37.7 37.6 -37.7z"/></svg>
