<?xml version="1.0" encoding="utf-8"?>
<!-- Generator: Adobe Illustrator 19.1.1, SVG Export Plug-In . SVG Version: 6.00 Build 0)  -->
<svg version="1.1" id="Слой_1" xmlns="http://www.w3.org/2000/svg" xmlns:xlink="http://www.w3.org/1999/xlink" x="0px" y="0px"
	 viewBox="0 0 1000 1000" style="enable-background:new 0 0 1000 1000;" xml:space="preserve">
<style type="text/css">
	.st0{fill-rule:evenodd;clip-rule:evenodd;fill:#0C0E0F;}
</style>
<path class="st0" d="M504.2,663.2c0-141.5,114.7-256.2,256.2-256.2c52,0,100.4,15.5,140.8,42.1V295.6c0-44.7-36.3-81-81-81H131.5
	c-44.7,0-81,36.3-81,81v459.8c0,44.7,36.3,81,81,81h440.1C529.8,790.8,504.2,730,504.2,663.2z"/>
<path class="st0" d="M510.3,131.6h210.6c22.4,0,40.5,15.1,40.5,34.5v106.6c0,25.5-22.2,47.3-49.5,47.3H454.5
	c-27.3,0-42-21.7-33.3-47.3l36.7-106.6C464.6,146.7,487.9,131.6,510.3,131.6z"/>
<path class="st0" d="M761.4,451.6c-115.2,0-208.6,93.4-208.6,208.6s93.4,208.6,208.6,208.6s208.6-93.4,208.6-208.6
	S876.7,451.6,761.4,451.6z M739.2,759.4v-66.8h-77c-5.6,0-10.1-4.5-10.1-10.1v-30.4c0-5.6,4.5-10.1,10.1-10.1h77v-62.8l151.9,90.1
	L739.2,759.4z"/>
</svg>
