<svg xmlns="http://www.w3.org/2000/svg" width="983" height="1000"><path d="M689.128 183.494c-78.107 43.18 -147.996 88.116 -216.715 145.379 -32.96 28.786 -23.655 51.735 -24.931 77.589 1.063 17.356 -3.751 33.505 -14.426 43.229 -24.427 4.94 -48.871 9.908 -73.294 14.848 -2.339 -6.757 -4.665 -13.505 -7.003 -20.263 2.233 -10.366 10.802 -15.465 28.851 -8.964 1.423 -13.328 -9.303 -18.754 -21.848 -23.388 -4.31 -3.355 -9.663 -5.935 -8.965 -17.462 -2.109 -26.094 39.761 1.868 40.151 1.868 .389 0 -1.396 -26.335 -20.636 -31.604 -10.49 -3.713 -14.929 -14.779 -10.924 -22.97 8.393 -16.747 24.191 1.311 36.274 1.96 -.454 -10.931 -3.565 -18.72 -12.979 -27.545 -5.067 -3.117 -17.51 -5.462 -17.833 -10.689 -.263 -7.099 11.664 -10.135 28.058 -8.171 -3.417 -9.948 -14.441 -16.385 -29.597 -21.055 -2.989 -5.196 -5.976 -10.396 -8.965 -15.592 -4.245 -7.857 -6.147 -8.071 3.689 -22.969 8.835 -5.717 20.576 -13.799 29.411 -19.515 -3.25 -.389 -6.509 -.778 -9.757 -1.167 1.298 -10.654 1.448 -14.237 3.921 -31.932 -9.481 12.954 -21.326 10.638 -31.979 15.965 0 0 -30.373 5.393 -40.151 18.302 -.388 0 -76.375 -3.876 -76.375 -3.876 -16.194 2.254 -30.028 6.846 -32.727 22.596 -37.038 3.739 -75.825 .432 -104.063 35.855 19.228 -.91 36.058 -5.488 57.656 -2.708 0 0 18.407 .348 22.224 19.842 .389 .778 6.256 .793 6.256 .793 2.338 1.817 4.662 3.644 7.003 5.461 .909 -2.468 1.798 -4.956 2.706 -7.422 2.08 1.43 4.177 2.866 6.256 4.294 .649 -2.726 1.312 -5.44 1.962 -8.168 2.08 1.429 4.129 2.866 6.209 4.294 .129 -3.248 .291 -6.509 .419 -9.755 2.729 1.948 5.442 3.887 8.17 5.833l0 -12.836s30.165 -.072 39.357 19.093c.39 .391 -84.662 15.632 -166.808 8.592 7.927 -3.899 15.836 -7.822 23.763 -11.72 -29.954 -6.088 -58.114 -11.593 -84.547 -32.352 9.975 37.552 61.52 81.663 72.081 81.466 0 .39 -10.13 -18.301 -10.13 -18.301 29.754 1.3 59.511 2.577 89.262 3.875 3.249 9.873 1.813 20.944 9.756 29.646 0 0 -4.928 16.321 6.022 22.97 .393 .778 13.073 -33.101 13.073 -33.101s3.884 9.113 7.796 15.173c5.67 -29.143 37.396 -33.892 37.396 -33.892s6.63 15.204 6.63 15.592c-9.915 1.435 -22.245 21.642 -15.594 32.727 -6.647 .128 -18.452 19.698 -14.799 30.393 -5.589 5.562 -19.508 12.978 -15.967 36.273 -10.955 2.35 -17.443 22.396 -14.052 43.65 -16.954 15.782 -12.792 44.753 2.335 56.489 -6.28 5.588 -10.145 9.885 -10.131 16.76 -5.971 -2.217 -11.473 -.365 -14.052 3.548 -7.318 -7.5 -17.827 -14.067 -25.305 -7.049 -1.936 -8.875 -13.493 -18.636 -26.143 -17.507 .739 -9.357 -4.115 -20.942 -17.507 -24.979 0 0 -2.71 -43.855 -16.014 -58.074 -1.304 -7.959 .76 -13.368 11.718 -19.89 10.94 -5.835 13.265 -10.36 12.465 -26.892 4.313 -11.047 7.589 -22.313 -5.836 -29.971 .406 13.139 -3.629 19.466 -8.963 25.303 -6.373 -.928 -8.598 6.51 -12.886 9.759 -6 -8.087 12.657 -20.616 -1.166 -38.611 -.78 -.781 -9.651 -23.489 -31.562 -22.967 10.416 6.098 14.82 16.359 14.801 26.89 -6.908 19.488 -10.418 34.549 -3.502 56.909 -9.103 -13.638 -14.265 -39.562 -21.803 -44.071 -6.605 -1.289 -9.833 -16.912 -35.48 -12.464 11.063 2.975 14.577 11.426 17.554 19.093 -6.785 3.5 -3.415 12.728 1.539 19.095 -.939 14.962 8.023 23.703 21.43 29.271 -2.209 20.397 -4.422 40.761 -6.629 61.158 -5.327 -.681 -13.522 20.057 -16.76 20.682 -5.211 3.246 -14.313 11.967 -3.875 14.427 -3.101 11.192 -5.977 17.938 -22.643 20.26 0 0 17.608 10.447 32.213 -7.421 15.646 -.392 10.503 -19.052 18.068 -27.266 0 -.388 4.294 -3.082 10.55 -19.516 2.738 14.67 17.789 59.593 51.821 81.89 29.665 31.753 54.043 61.741 53.781 104.061 11.579 -10.768 18.494 -27.826 23.81 -44.071 16.099 -5.6 39.128 -7.737 59.665 -6.815 -3.524 7.411 -7.466 14.524 -2.382 19.329 -14.33 4.921 -17.472 15.324 -11.719 25.722 -15.107 10.259 -16.1 16.855 -16.34 33.896 -27.948 35.834 -45.19 34.644 -72.875 25.352 -9.092 -5.338 -23.163 -13.017 -29.646 -8.965 -11.957 -7.969 -29.149 -9.153 -31.979 8.965 8.973 -7.438 14.329 -6.005 21.475 1.165 -1.437 3.641 -2.638 7.267 2.707 9.338 -2.339 2.6 -4.662 5.199 -7.003 7.796 -12.866 -1.979 -30.168 -1.868 -34.687 16.759 6.609 -5.473 21.273 -6.759 33.101 -1.539 2.209 .781 4.419 1.554 6.628 2.334 .26 2.988 .536 5.977 .794 8.964 0 0 -17.527 -2.704 -22.223 25.726 16.433 -17.479 28.059 -12.886 28.059 -12.886 6.333 9.271 29.639 7.875 46.404 -7.375 23.548 -13.167 30.414 5.754 45.613 -6.632 12.602 -9.397 27.513 -3.148 37.767 7.798 11.825 4.436 24.202 8.087 33.942 0 0 0 11.896 -7.592 23.763 4.669 .128 -13.821 -9.667 -21.166 -22.97 -21.43 -1.3 -1.299 -.537 .508 -3.92 -3.923 -12.475 -2.599 -26.489 -1.543 -37.396 -7.797 5.142 -19.517 12.635 -37.201 27.265 -52.239 18.057 -19.355 31.353 -28.159 54.155 -57.797 -.88 16.749 11.956 35.37 18.72 52.382 0 0 13.62 -21.745 15.593 -39.404 .388 0 17.064 -8.678 24.182 -16.061 15.023 9.32 39.508 -7.458 55.323 -21.333 9.747 3.688 17.147 3.425 28.478 0 -9.096 18.509 5.262 35.681 28.059 42.857 2.108 16.338 18.611 19.761 43.649 19.887 1.054 9.613 15.967 10.925 15.967 10.925 -9.42 4.396 -14.333 8.794 -14.006 18.72 -9.657 .067 -16.972 2.5 -19.515 13.633 -13.26 .228 -26.771 1.247 -38.189 7.797 -12.211 -1.894 -27.07 -6.954 -36.648 -16.761 -4.938 -4.157 -6.172 -10.149 -14.798 -12.464 -5.467 -6.464 -12.009 -5.021 -14.052 1.167 -5.651 -4.415 -26.85 -6.467 -30.393 13.632 9.895 -7.242 18.768 -10.001 24.977 -1.166 -3.384 6.137 8.242 9.645 18.303 12.091 7.134 .443 19.79 6.943 23.762 17.928 -9.204 2.793 -23.151 1.872 -32.355 -5.089 -8.179 -6.846 -19.229 -6.028 -25.303 -1.54 -8.425 -5.371 -28.491 4.77 -29.272 21.008 8.454 -7.742 16.148 -11.488 23.811 -6.582 -3.815 .905 -2.364 1.279 -1.963 3.501 6.498 3.771 12.972 7.531 19.469 11.298 -9.55 2.521 -18.532 6.331 -14.378 24.137 0 0 7.781 -15.378 25.302 -9.71 .392 -.391 2.416 5.494 7.424 1.54 7.583 -8.627 24.923 -12.491 40.149 -14.005 12.222 -1.459 24.422 -5.061 35.062 1.913 9.471 -4.873 20.021 -8.148 30.812 -.373 12.732 4.031 22.027 18.867 38.188 12.09 8.034 -5.562 17.913 -5.842 28.059 5.465 .125 -14.257 -10.561 -19.036 -25.723 -22.223 -3.512 -2.081 -6.996 -4.177 -10.507 -6.257 -9.743 -1.431 -19.526 .298 -29.271 -4.295 50.992 -13.184 86.74 -41.621 111.904 -82.213 8.055 2.86 16.082 5.685 24.137 8.543 5.713 .369 6.152 2.354 17.928 5.883 .443 -17.352 -7.006 -35.223 -38.189 -37.021l-40.941 -15.594c-8.691 -9.162 -12.619 -28.611 -1.541 -40.146 10.844 -9.658 12.734 -8.499 19.888 -20.263 8.698 -.793 16.897 8.168 24.931 8.168 3.816 11.336 25.807 21.354 39.775 17.927 8.756 7.751 25.41 12.06 43.65 5.836 10.354 9.067 23.842 12.854 39.73 5.836 4.217 4.221 13.121 7.572 23.391 5.462 .775 0 5.188 11.268 16.383 15.222 -4.883 4.743 -1.879 25.347 3.129 32.727 -3.416 7.922 -4.492 16.372 -1.586 24.558 -11.291 7.264 -13.594 12.661 -8.545 24.93 -14.787 23.763 -32.479 26.479 -49.113 19.142 -5.979 -3.769 -11.947 -7.575 -17.926 -11.345 -6.365 -6.237 -12.729 -12.438 -19.096 -18.676 -3.242 -3.043 -9.949 -3.998 -11.344 2.709 0 0 -24.498 -5.463 -26.471 15.218 10.154 -9.889 24.555 -1.18 24.555 -.792 0 .39 -3.428 2.722 -.791 6.676 .594 -.493 17.887 6.454 33.287 13.072 8.365 3.171 10.203 4.162 13.865 6.115 -4.012 -1.836 -8.756 -3.919 -13.865 -6.115 -9.377 -3.552 -18.51 -6.393 -21.197 -5.696 -8.723 -.812 -17.979 -1.896 -22.221 4.668 -9.379 3.969 -24.027 7.146 -23.393 24.559 6.334 -10.367 15.023 -9.932 26.1 -8.964 -.26 .779 -.488 1.556 -.748 2.335 12.027 5.476 9.746 -1.491 20.961 -2.522 9.379 -.861 22.668 2.503 29.695 4.854 -8.838 2.601 -20.852 1.51 -26.518 7.797 -1.043 2.082 -4.682 1.23 -3.082 6.211 0 0 -17.23 -.444 -21.85 23.389 17.52 -11.218 30.797 -10.875 31.184 -10.875 .393 0 5.463 1.165 5.463 1.165s21.041 -14.054 21.43 -14.054c.391 0 20.377 -8.849 29.6 1.167 8.051 3.961 16.66 4.213 24.975 -.792 16.387 -7.127 31.717 -7.626 46.781 2.381l13.633 8.169c1.947 -1.3 3.889 -2.621 5.836 -3.922 0 0 15.432 -4.356 26.748 9.384 -4.68 -23.774 -21.66 -24.556 -21.66 -24.556 -1.301 -1.171 -2.623 -2.331 -3.924 -3.501 -8.053 -3.117 -16.08 -6.268 -24.135 -9.384 -3.516 -8.706 -12.352 -15.635 -3.547 -26.099 8.992 -44.708 19.746 -78.282 2.334 -123.578 16.24 7.021 28.391 28.712 48.736 21.058 0 -18.189 -66.959 -52.728 -118.113 -80.486 83.801 -4.285 184.527 -66.145 145.803 -144.77 6.105 -18.97 12.191 -37.94 18.299 -56.909 8.617 17.363 26.074 30.6 41.734 36.229 -12.908 -24.646 -20.314 -99.991 -12.883 -152.009 -33.77 41.714 -71.057 78.733 -110.691 116.34 19.494 4.557 36.531 1.35 55.365 -.98 -5.324 10.914 -10.498 21.86 -15.824 32.774 -51.498 -30.16 -111.965 -7.526 -112.418 32.727 1.764 46.938 59.803 53.61 93.277 37.255 -6.637 42.797 -104.992 27.03 -104.992 27.03 -34.951 -12.049 -68.146 -9.984 -104.855 -9.71 7.627 -23.47 49.988 -44.301 82.258 -35.109 -45.182 -50.656 6.387 -113.549 68.58 -132.911 -67.789 -22.359 -9.416 -74.036 41.314 -111.065 0 0 -145.895 61.403 -159.191 61.205 -41.465 -3.145 -30.08 -52.369 -14.238 -78.774z"/></svg>