<svg height="1000" width="1000" xmlns="http://www.w3.org/2000/svg"><path d="m 465.53459,1052.0239 c -21.77062,-1.5847 -67.99353,-9.2548 -89.89535,-14.9172 -34.80314,-8.9976 -68.10165,-21.6092 -101.0569,-38.27486 C 223.25931,972.87762 186.23986,945.99293 145.21297,904.88005 66.284936,825.78656 18.815601,728.32589 2.4680881,611.80637 c -3.29078413,-23.4556 -3.29078413,-95.75246 0,-119.20806 C 18.896932,375.49905 66.37255,278.37611 146.20364,198.55228 226.03472,118.72842 323.16647,71.257108 440.27635,54.829754 c 23.45773,-3.290486 95.76114,-3.290486 119.21887,0 116.53009,16.34603 213.99959,63.811056 293.10026,142.731946 77.90039,77.72336 125.20579,171.25513 142.58992,281.92749 6.3837,40.64037 6.4245,105.62348 0.0911,145.0687 -9.01252,56.13144 -22.30209,98.75914 -45.78681,146.86604 -25.71468,52.67485 -54.48688,92.99727 -95.92184,134.42848 -41.43496,41.43124 -81.76104,70.20079 -134.44067,95.91319 -66.91195,32.6589 -132.60098,48.6039 -207.11751,50.2744 -19.44884,0.4361 -40.36266,0.4288 -46.47515,-0.02 z m 18.18593,-160.55407 0,-97.15521 -15.66011,1.30446 c -41.87025,3.48775 -105.96276,15.22873 -115.52888,21.16353 -5.41263,3.35797 31.88555,64.92582 61.87465,102.13603 14.06928,17.45705 65.23172,69.70636 68.25632,69.70636 0.58191,0 1.05802,-43.71979 1.05802,-97.15517 z m 71.75623,60.50981 c 34.59584,-35.60549 59.87923,-70.25133 85.83492,-117.61972 7.00249,-12.77934 8.14374,-16.20266 5.87157,-17.61242 -9.61456,-5.96531 -74.58365,-17.79213 -115.47208,-21.02026 l -15.66011,-1.23635 0,97.23686 0,97.23689 7.57747,-6.00303 c 4.16761,-3.30166 18.49932,-17.24355 31.84823,-30.98197 z m -131.63864,26.03787 c -2.20464,-2.50034 -9.74157,-10.91057 -16.74873,-18.6894 -27.07976,-30.06185 -55.37702,-70.83179 -76.82686,-110.68999 -9.3351,-17.34655 -11.16968,-19.61571 -14.97344,-18.52041 -17.6934,5.09483 -99.2862,49.86958 -97.80754,53.6727 1.12815,2.90164 23.86828,20.11502 44.98645,34.05301 26.39142,17.4183 62.66838,35.37598 91.77239,45.42886 23.22556,8.0225 55.89357,16.68185 71.73842,19.01611 1.02726,0.15153 0.0639,-1.77055 -2.14069,-4.27088 z m 181.2799,-2.69754 c 43.10671,-10.63215 87.82624,-29.48642 124.11254,-52.3271 19.21507,-12.09507 53.54745,-37.33494 53.54745,-39.36606 0,-4.26643 -81.6631,-48.71853 -98.31052,-53.51387 -3.84089,-1.10637 -5.71373,1.28939 -16.00515,20.47397 -21.49514,40.06978 -47.38718,76.13723 -87.84626,122.3693 l -8.38996,9.58716 6.76885,-1.22481 c 3.72284,-0.67363 15.47822,-3.37298 26.12305,-5.99859 z M 214.3538,847.10231 c 22.16945,-14.45009 64.47997,-36.8311 81.95062,-43.34942 5.27897,-1.96958 9.59813,-4.28876 9.59813,-5.15373 0,-0.86496 -3.06201,-9.60627 -6.80445,-19.42513 -22.53582,-59.12594 -39.6707,-143.41105 -39.6707,-195.13682 l 0,-15.67107 -98.16278,0 -98.162787,0 1.286048,13.63821 c 10.005979,106.11077 45.529579,189.09079 113.175199,264.36722 7.39565,8.22994 13.78596,14.96352 14.20068,14.96352 0.4147,0 10.58023,-6.40475 22.59004,-14.23278 z m 606.79534,0.59457 c 66.59289,-73.09971 105.1771,-162.92771 114.1241,-265.69253 l 1.18737,-13.63821 -98.05822,0 -98.05822,0 0,13.92926 c 0,53.24919 -16.06389,132.86766 -39.49317,195.74249 -3.8401,10.30526 -6.98198,19.50119 -6.98198,20.4354 0,0.93418 4.31916,3.31002 9.59813,5.2796 17.82609,6.65094 59.98188,29.0329 81.33151,43.1817 11.66931,7.73345 21.82651,14.13727 22.57159,14.23068 0.74506,0.0933 6.94557,-5.96738 13.77889,-13.46839 z M 369.67371,779.44004 c 31.90703,-8.12425 60.90304,-12.70374 91.3144,-14.42175 l 22.73241,-1.28419 0,-97.68397 0,-97.68399 -96.99162,0 -96.99162,0 0.0208,4.54607 c 0.0564,12.30632 4.60294,55.82275 8.17993,78.29343 6.68907,42.0208 17.2751,81.47947 32.68424,121.82824 4.85233,12.70582 6.6947,15.5571 9.35256,14.47408 1.82043,-0.74177 15.18492,-4.37234 29.69885,-8.06792 z m 299.52497,-6.53549 c 21.09097,-55.22664 33.95644,-112.65084 38.76146,-173.00933 1.14079,-14.32996 2.07415,-27.28626 2.07415,-28.79178 0,-2.26473 -16.74457,-2.7373 -96.99162,-2.7373 l -96.99162,0 0,97.99306 0,97.99306 12.68946,0 c 28.36162,0 90.04993,10.32765 120.41305,20.15916 6.25602,2.02567 11.97697,3.77384 12.7132,3.88481 0.73624,0.11092 4.0356,-6.86031 7.33192,-15.49168 z M 260.079,509.26724 c 2.27967,-47.87173 12.64633,-104.72854 27.61841,-151.47537 l 7.75027,-24.19841 -18.51531,-8.61672 c -25.08295,-11.67322 -54.7973,-28.95786 -79.10601,-46.01542 -11.09764,-7.78728 -21.21102,-14.55524 -22.47419,-15.03991 -3.02034,-1.15891 -24.24691,25.27214 -41.66871,51.8853 -39.15974,59.81961 -62.332068,129.0294 -69.170158,206.59362 l -1.202353,13.63821 97.746601,0 97.7466,0 1.27485,-26.7713 z m 223.64152,-55.05796 0,-81.82926 -11.19326,0 c -34.10908,0 -112.42953,-14.74407 -144.54691,-27.21144 -5.71598,-2.21882 -23.63029,62.53198 -31.00628,112.07141 -2.89775,19.46221 -7.16611,63.38375 -7.21594,74.25248 l -0.0208,4.54607 96.99162,0 96.99162,0 0,-81.82926 z m 225.38132,64.1501 c -4.37934,-59.77545 -11.53111,-99.99725 -26.64617,-149.85871 -3.89694,-12.85517 -7.27431,-23.56202 -7.50529,-23.79298 -0.23098,-0.23096 -9.02626,2.29583 -19.54504,5.61509 -35.44262,11.18403 -98.62005,22.05724 -128.16103,22.05724 l -11.19326,0 0,81.82926 0,81.82926 97.17302,0 97.17301,0 -1.29524,-17.67916 z m 226.15642,4.04095 c -6.83894,-77.57371 -30.02272,-146.81116 -69.17676,-206.59362 -17.99934,-27.4823 -38.49899,-53.099 -41.55418,-51.92672 -1.32252,0.50746 -11.48448,7.29405 -22.58212,15.08133 -24.3087,17.05756 -54.02305,34.3422 -79.106,46.01542 l -18.51531,8.61672 7.75027,24.19841 c 14.97208,46.74683 25.33874,103.60364 27.61841,151.47537 l 1.27485,26.7713 97.7466,0 97.74659,0 -1.20235,-13.63821 z m -451.53774,-293.64385 0,-113.3164 -7.57747,6.00299 c -14.25931,11.29646 -56.09626,55.94458 -70.82427,75.5832 -8.09361,10.79217 -20.32589,28.52184 -27.18281,39.39927 -12.79393,20.29548 -39.8717,72.40562 -39.89171,76.77001 -0.021,4.58666 55.65181,18.7803 92.93913,23.6946 21.20526,2.79474 31.3292,3.83553 46.98031,4.82974 l 5.55682,0.353 0,-113.31641 z m 84.86766,108.04861 c 36.83188,-4.71945 92.96034,-18.97788 92.93913,-23.60954 -0.0202,-4.36439 -27.09778,-56.47453 -39.89171,-76.77001 -6.85692,-10.87743 -19.0892,-28.6071 -27.18281,-39.39927 -14.72801,-19.63862 -56.56496,-64.28674 -70.82427,-75.5832 l -7.57747,-6.00299 0,113.43874 0,113.43875 14.64978,-1.26746 c 8.05738,-0.69711 25.10668,-2.60737 37.88735,-4.24502 z m -252.4343,-51.8942 c 23.60167,-52.24462 53.80917,-97.25086 103.00162,-153.46238 l 8.38996,-9.5871 -6.76885,1.22477 c -46.57159,8.42674 -102.40805,29.36313 -142.93143,53.59344 -32.20241,19.25493 -84.21251,60.81364 -79.91373,63.85515 28.03243,19.83373 37.39974,26.0339 54.02909,35.76166 21.18737,12.39409 51.8731,27.4201 54.56862,26.72087 0.9003,-0.23354 5.23142,-8.38143 9.62472,-18.10641 z m 394.8866,10.69297 c 29.12114,-13.38915 91.79733,-52.23726 91.91053,-56.96822 0.0637,-2.6581 -42.80723,-37.01224 -63.29574,-50.72145 -44.60416,-29.84541 -107.43083,-55.19658 -160.66031,-64.82801 l -6.76885,-1.22477 8.35096,9.5871 c 36.86777,42.32498 50.21703,59.82345 69.58583,91.21436 11.92609,19.32858 27.7534,49.14669 36.30269,68.39302 3.08516,6.94538 5.92251,12.62797 6.30522,12.62797 0.38269,0 8.60405,-3.63601 18.26967,-8.08 z" /></svg>