<svg xmlns="http://www.w3.org/2000/svg" width="1000" height="1000"><path fill="#000000" d="M697.984,29.094C400.825-79.245,420.075,145.671,484.74,203.451L314.155,459.338 c-202.233-17.879-171.972,198.104-27.521,282.712L199.963,1000l136.198-231.123c218.742,73.95,368.707-61.908,247.632-184.354 l94.925-290.274C772.273,314.902,955.24,138.802,697.984,29.094z M409.853,755.221c-73-11.77-136.471-42.546-189.238-118.398 l75.289-41.579c31.26,35.227,77.062,57.41,114.917,65.6L409.853,755.221z M413.465,644.045 c-48.656-15.187-85.156-38.096-105.05-59.231l215.469-364.079l-2.338-49.252c0,0,32.502,31.809,99.568,59.328l-32.001,24.248" /></svg>
