<?xml version="1.0" encoding="UTF-8"?>
<!DOCTYPE svg PUBLIC "-//W3C//DTD SVG 1.1//EN" "http://www.w3.org/Graphics/SVG/1.1/DTD/svg11.dtd">
<!-- Creator: CorelDRAW -->
<svg xmlns="http://www.w3.org/2000/svg" xml:space="preserve" width="1000px" height="1000px" style="shape-rendering:geometricPrecision; text-rendering:geometricPrecision; image-rendering:optimizeQuality; fill-rule:evenodd; clip-rule:evenodd"
viewBox="0 0 1000 1000"
 xmlns:xlink="http://www.w3.org/1999/xlink">
 <defs>
  <style type="text/css">
   <![CDATA[
    .fil0 {fill:#1F1A17}
   ]]>
  </style>
 </defs>
 <g id="Слой_x0020_1">
  <metadata id="CorelCorpID_0Corel-Layer"/>
  <path class="fil0" d="M499.991 668.623c-93.117,0 -168.631,-75.5138 -168.631,-168.631 0,-93.117 75.5138,-168.631 168.631,-168.631 93.117,0 168.632,75.5138 168.632,168.631 0,93.117 -75.515,168.631 -168.632,168.631zm-77.3812 325.402c-239.364,-37.2048 -422.62,-244.257 -422.62,-494.033 0,-101.098 30.052,-195.173 81.6638,-273.845l187.974 369.688c48.1406,107.036 165.38,168.305 280.945,146.529l-127.963 251.661zm543.918 -674.037c87.4619,225.897 -0.223229,488.128 -216.535,613.015 -87.5528,50.5489 -184.05,71.5607 -277.988,66.1997l226.172 -347.634c68.6256,-95.2087 63.0662,-227.375 -13.5756,-316.57l281.927 -15.0106zm-855.693 -134.029c151.902,-188.692 422.843,-243.871 639.155,-118.982 87.5528,50.5477 153.998,123.612 196.324,207.644l-414.146 -22.0524c-116.766,-11.8276 -228.447,59.0705 -267.37,170.041l-153.964 -236.651z"/>
 </g>
</svg>
