<?xml version="1.0" encoding="UTF-8"?>
<!DOCTYPE svg PUBLIC "-//W3C//DTD SVG 1.1//EN" "http://www.w3.org/Graphics/SVG/1.1/DTD/svg11.dtd">
<!-- Creator: CorelDRAW -->
<svg xmlns="http://www.w3.org/2000/svg" xml:space="preserve" width="1000px" height="1000px" style="shape-rendering:geometricPrecision; text-rendering:geometricPrecision; image-rendering:optimizeQuality; fill-rule:evenodd; clip-rule:evenodd"
viewBox="0 0 1000 1000"
 xmlns:xlink="http://www.w3.org/1999/xlink">
 <defs>
  <style type="text/css">
   <![CDATA[
    .fil0 {fill:#1F1A17}
   ]]>
  </style>
 </defs>
 <g id="Слой_x0020_1">
  <metadata id="CorelCorpID_0Corel-Layer"/>
  <g id="_46274264">
   <path id="_46252256" class="fil0" d="M818.894 396.696c85.0288,193.859 -63.6095,425.948 -246.571,444.229 -12.9484,37.1835 -71.243,112.094 -129.327,150.354 304.276,60.2481 585.165,-199.803 554.978,-512.452 -52.7315,-44.4685 -114.823,-71.817 -179.08,-82.1316z"/>
   <path id="_47432224" class="fil0" d="M252.856 284.334c125.11,-170.682 400.109,-157.8 507.397,-8.24292 38.6256,-7.36064 132.545,5.74843 194.671,36.9992 -100.043,-294.049 -465.346,-407.663 -720.591,-225.153 -12.085,67.9725 -4.68662,135.503 18.5232,196.396z"/>
   <path id="_47126912" class="fil0" d="M438.718 831.487c-210.137,-23.1768 -336.498,-268.148 -260.824,-435.987 -25.6772,-29.8229 -61.3028,-117.841 -65.3434,-187.354 -204.233,233.801 -119.821,607.464 165.613,737.606 64.8154,-23.504 119.509,-63.6875 160.554,-114.266z"/>
  </g>
  <path class="fil0" d="M500 690.073c-104.958,0 -190.073,-85.115 -190.073,-190.073 0,-104.958 85.115,-190.073 190.073,-190.073 104.958,0 190.074,85.115 190.074,190.073 0,104.958 -85.1162,190.073 -190.074,190.073z"/>
 </g>
</svg>
