<?xml version="1.0" encoding="UTF-8"?>
<!DOCTYPE svg PUBLIC "-//W3C//DTD SVG 1.1//EN" "http://www.w3.org/Graphics/SVG/1.1/DTD/svg11.dtd">
<!-- Creator: CorelDRAW -->
<svg xmlns="http://www.w3.org/2000/svg" xml:space="preserve" width="1000px" height="1000px" style="shape-rendering:geometricPrecision; text-rendering:geometricPrecision; image-rendering:optimizeQuality; fill-rule:evenodd; clip-rule:evenodd"
 xmlns:xlink="http://www.w3.org/1999/xlink">
 <defs>
  <style type="text/css">
   <![CDATA[
    .fil0 {fill:#1F1A17;fill-rule:nonzero}
   ]]>
  </style>
 </defs>
 <g id="Слой_x0020_1">
  <metadata id="CorelCorpID_0Corel-Layer"/>
  <g id="_84180224">
   <path id="_47774184" class="fil0" d="M540.798 999.628c-18.8681,0.119291 -39.1772,0.720473 -59.4874,1.29095 -45.5764,1.32284 -91.7847,2.61378 -145.714,-0.570473l-1.02165 -0.0602363 0 0.0602363 -3.03425 -0.239764c-2.04331,-0.151181 -3.96614,-0.361418 -5.91851,-0.751182 -8.98347,-1.14213 -17.5465,-3.06496 -25.3878,-5.58898 -9.91418,-3.21378 -19.4681,-7.66064 -28.4209,-13.1291 -41.0103,-25.1764 -68.8016,-72.0154 -77.9646,-139.284l-0.180709 -1.32165 -0.330709 -3.72638c-2.34331,-20.9398 -1.7126,-42.3319 1.50236,-63.5434 3.2752,-21.4205 9.22324,-43.5036 17.2158,-65.6162 38.2453,-105.786 128.258,-214.785 200.844,-264.748l-0.0602363 -0.090945c27.3402,-18.8067 54.8008,-34.8213 82.3217,-48.4004 17.3043,-8.563 34.8508,-16.1634 52.3666,-22.9536 4.92638,-18.5374 13.1291,-35.7225 24.0945,-50.6244 4.41733,-6.00945 9.34371,-11.7177 14.5417,-17.0055l2.13307 -1.95236c27.2799,-26.4685 64.3548,-42.9331 104.914,-42.9331l274.453 0 0.480709 0c2.10354,0 4.26615,0.180709 6.30945,0.420473 15.8929,0.690945 30.9756,3.7252 44.8559,8.80276l4.08544 1.7126c4.80709,1.92284 9.61418,4.17638 14.452,6.75945l0.0590552 -0.119291c19.8591,10.5449 37.2248,25.5071 50.6244,43.4138l162.509 0c3.66496,-12.4984 10.3949,-23.8252 19.3784,-32.7485l0.179528 -0.210236 2.31378 -2.04331 0.751182 -0.601182 0.239764 -0.210236c13.1303,-11.5961 30.3154,-18.8669 49.2733,-19.1977l0.810237 0.0295276 0 -0.239764 0.451181 0 48.4311 0 0.210236 0c3.24449,0 6.45945,0.390945 9.52442,0.930709 17.3646,2.19331 32.8973,10.0949 44.615,21.8729 13.3996,13.4894 21.9024,32.1473 22.2626,52.7575l0.0295276 0.811418 0.180709 0 0 0.45 0 30.7654 0 35.0008 -0.210236 0 0 154.096c0,28.9028 -23.465,52.3678 -52.3666,52.3678l-0.210236 0 -1.32165 0 -289.084 -1.20236c-2.13307,10.6961 -5.07756,21.3614 -8.89371,31.7563 -20.4295,55.552 -63.1819,100.589 -147.215,100.589l-219.202 0c-9.013,20.1886 -16.0134,45.8469 -22.8331,71.4142 -24.5162,91.8745 -48.9721,182.968 -167.556,183.81zm-62.3717 -103.442c19.8886,-0.540945 39.7477,-1.14213 61.9512,-1.29213 38.2158,-0.270473 52.3666,-52.9973 66.5469,-106.175 1.83307,-6.94016 30.9461,-107.708 36.6839,-103.893l0.120473 -0.270473c3.7252,-6.87993 7.93111,-13.5496 12.4087,-19.8886 9.22324,-15.1725 25.8378,-25.4173 44.8855,-25.4173l249.366 0c28.1811,0 42.2115,-14.1803 48.6107,-31.6063 1.8626,-5.10709 3.39567,-10.6358 4.47638,-16.2839 1.17165,-5.94922 2.01378,-11.9575 2.49449,-17.7567l0.0295276 -0.751182 0 -0.210236 0.0295276 0c0.390945,-5.94804 0.661418,-10.3949 0.690945,-13.3689l0 -0.210236c0.211417,-28.813 23.7355,-52.037 52.578,-51.9461l285.449 1.20118 0 -101.519 -0.210236 0 0 -6.96969c-9.28465,14.661 -25.7185,24.3355 -44.3457,24.3355l-237.108 0c-22.1729,1.89331 -44.015,-10.6051 -52.9985,-32.237 -4.11496,-9.85513 -11.6563,-18.1169 -21.0307,-23.074l0.0307087 -0.0897639 -0.240945 -0.120473c-1.05118,-0.540945 -2.28307,-1.14213 -3.78544,-1.7126l-0.210236 -0.0602363 -0.480709 -0.15 -1.23189 -0.451181c-4.05591,-1.47165 -8.14134,-2.40355 -12.2575,-2.70355l-2.73425 0.0307087 -0.480709 0 -274.453 0c-12.6177,0 -24.065,5.10709 -32.3268,13.3087 -1.68307,1.7126 -3.2752,3.5752 -4.65709,5.4378 -5.25827,7.15158 -8.59253,15.8339 -9.013,24.9673l0.0602363 1.98307 0.0590552 0 0 0.210236 -0.0590552 0c0.0295276,21.9319 -13.9406,42.3615 -35.8737,49.6926 -23.2831,7.78111 -46.6276,17.276 -69.8516,28.7528 -23.1638,11.4461 -46.2685,24.9059 -69.1619,40.6489l-0.0602363 -0.0897639 -0.15 0.0897639c-57.9851,39.8386 -130.331,128.048 -161.517,214.305 -5.52756,15.3225 -9.64371,30.6449 -11.928,45.4866 -2.04213,13.4291 -2.52284,26.0185 -1.26142,37.0737l0.0897639 0.63189 0.180709 1.32165c4.62638,33.8894 14.8122,55.1611 28.6925,63.6934 1.89213,1.14213 4.0252,2.13307 6.24922,2.85473 1.80236,0.570473 3.54449,1.05118 5.16733,1.35118l1.92284 0.0602363 3.03425 0.240945 0 0.0897639c50.5335,2.94449 93.3473,1.7126 135.619,0.480709z"/>
   <path id="_45869840" class="fil0" d="M74.1296 220.03c-29.6811,0 -53.778,-24.0969 -53.778,-53.778 0,-29.6811 24.0969,-53.778 53.778,-53.778l186.058 0.0307087c29.6811,0 53.7792,24.0969 53.7792,53.778 0,29.6811 -24.0981,53.778 -53.7792,53.778l-186.058 -0.0307087z"/>
   <path id="_46879096" class="fil0" d="M-353.373 707.287c-16.7398,23.9634 -49.7398,29.8193 -73.7032,13.0795 -23.9634,-16.7398 -29.8193,-49.7398 -13.0795,-73.7032l0.00826772 -0.011811c13.6335,-19.4693 28.6004,-37.9689 44.7508,-55.415 16.2496,-17.5536 33.3626,-33.7181 51.1973,-48.4193 92.9079,-76.591 210.492,-119.934 333.441,-119.934l0.0543308 0 0 0.207874c23.0244,0.00236221 45.8741,1.4941 68.3422,4.45158 8.27835,1.09016 10.0524,1.27441 10.9784,1.41614 18.815,2.88307 37.6181,6.83741 56.2855,11.8429 28.3217,7.56733 45.1453,36.6626 37.578,64.9843 -7.56733,28.3217 -36.6626,45.1453 -64.9843,37.578 -14.5453,-3.9 -29.4662,-7.02284 -44.6587,-9.35079 -7.54253,-1.15512 -7.25906,-1.2 -8.90198,-1.41614 -18.2847,-2.40591 -36.554,-3.62126 -54.639,-3.62244l0 0.207874 -0.0543308 0c-98.3859,0 -192.242,34.4894 -266.172,95.4355 -14.6067,12.0402 -28.2555,24.8823 -40.8177,38.4532 -12.6626,13.6784 -24.5729,28.4339 -35.6162,44.204l-0.00826772 0.011811z"/>
   <path id="_85069640" class="fil0" d="M-408.665 98.941c-26.5193,-12.6791 -37.7315,-44.4839 -25.0524,-71.002 12.6791,-26.5193 44.4839,-37.7327 71.0032,-25.0536l128.019 61.5674 80.0115 37.7906c2.25709,1.24725 4.44803,2.25827 6.73938,3.26929 0.405118,5.35748 0.67441,10.8165 0.67441,16.3099l0.034252 0 0 0.335433 0 0.675591 -0.034252 0c-0.201969,68.2004 -39.7618,161.844 -121.611,162.079l0 0.034252 -0.23504 0 -0.370866 0 -0.034252 -0.034252c-34.2024,-0.134646 -64.9666,-18.9036 -86.9717,-49.1292 -25.7232,-35.2973 -37.0677,-82.4079 -34.0335,-128.12l-18.1382 -8.72245z"/>
  </g>
 </g>
</svg>
