<?xml version="1.0" encoding="UTF-8"?>
<!DOCTYPE svg PUBLIC "-//W3C//DTD SVG 1.1//EN" "http://www.w3.org/Graphics/SVG/1.1/DTD/svg11.dtd">
<!-- Creator: CorelDRAW -->
<svg xmlns="http://www.w3.org/2000/svg" xml:space="preserve" width="1000px" height="1000px" style="shape-rendering:geometricPrecision; text-rendering:geometricPrecision; image-rendering:optimizeQuality; fill-rule:evenodd; clip-rule:evenodd"
viewBox="0 0 1000 1000"
 xmlns:xlink="http://www.w3.org/1999/xlink">
 <defs>
  <style type="text/css">
   <![CDATA[
    .fil0 {fill:none;fill-rule:nonzero}
    .fil2 {fill:#1F1A17;fill-rule:nonzero}
    .fil1 {fill:black;fill-rule:nonzero}
   ]]>
  </style>
 </defs>
 <g id="Слой_x0020_1">
  <metadata id="CorelCorpID_0Corel-Layer"/>
  <g id="_47838208">
   <line id="_45268952" class="fil0" x1="500.007" y1="139.621" x2="499.992" y2= "139.615" />
   <polygon id="_44849576" class="fil1" points="500.001,147.827 500.002,147.826 499.996,147.819 "/>
   <polygon id="_45258304" class="fil1" points="500,147.84 500.004,147.841 499.999,147.834 499.996,147.833 "/>
   <polygon id="_47366176" class="fil1" points="500.002,147.832 499.992,147.829 499.993,147.832 500.006,147.836 500.007,147.833 "/>
   <polygon id="_46718944" class="fil1" points="499.999,147.826 499.998,147.827 500.001,147.833 500.002,147.83 "/>
   <line id="_46882264" class="fil0" x1="500.008" y1="139.615" x2="499.993" y2= "139.621" />
   <polygon id="_45444552" class="fil1" points="499.998,147.826 499.999,147.827 500.004,147.819 "/>
   <polygon id="_44951976" class="fil1" points="500.002,147.827 500.001,147.826 499.998,147.83 499.999,147.833 "/>
   <polygon id="_46274184" class="fil1" points="499.994,147.836 500.007,147.832 500.008,147.829 499.998,147.832 499.993,147.833 "/>
   <polygon id="_47432224" class="fil1" points="499.996,147.841 500,147.84 500.004,147.833 500.001,147.834 "/>
   <g>
    <path id="_44967288" class="fil1" d="M239.049 182.454l-0.0814961 -0.0295276c-6.80197,-2.43307 -13.3228,-5.22284 -19.5402,-8.31733 -0.892914,-0.445276 -2.05394,-1.0441 -3.48898,-1.80236l-2.84528 -1.50591c-0.250394,-0.154725 -0.506693,-0.305906 -0.770079,-0.446457l-0.0318898 -0.0177165 -0.00944883 0.0177165c-5.62323,-3.16063 -10.8803,-6.56457 -15.7571,-10.1728 -0.392126,-0.28937 -1.30866,-0.999213 -2.7874,-2.15079l-1.94882 -1.52126c-0.17126,-0.161811 -0.349607,-0.32126 -0.530315,-0.477166l-0.0153543 -0.0141732 -0.0330709 0.0389764 -0.220866 -0.172441 -0.0188977 -0.0153543c-22.5803,-18.5977 -35.8713,-42.1996 -39.6296,-66.6615 -0.7063,-4.60748 -1.07126,-9.35316 -1.08543,-14.1898 -0.0141732,-4.93583 0.305906,-9.68505 0.964961,-14.1969l0.011811 -0.080315 0.046063 -0.307087c1.50118,-9.98269 1.35591,-18.5221 -0.080315,-25.7114l-0.0153543 0.00236221c-0.33189,-1.66417 -0.69567,-3.14646 -1.07717,-4.44922 -0.4063,-1.38662 -0.905906,-2.80866 -1.48583,-4.25433l-0.022441 0.00826772 -0.0271654 -0.0732284 -0.0732284 -0.175984c-3.3,-8.07166 -8.2819,-14.1969 -14.5524,-18.554 -1.25079,-0.868111 -2.52284,-1.65236 -3.8067,-2.34213 -1.41378,-0.761812 -2.74725,-1.39488 -3.99567,-1.90158l-0.00708662 0.0153543 -0.0814961 -0.034252c-6.20434,-2.51103 -12.8067,-3.37323 -19.5673,-2.78858 -1.27913,0.111024 -2.55827,0.275197 -3.82205,0.484252l0.00354331 0.0177165c-0.975591,0.162992 -1.94882,0.360237 -2.91614,0.578741 -0.309449,0.0555119 -0.617717,0.114567 -0.925985,0.190158 -8.04922,1.96772 -16.3914,6.13111 -24.1075,11.8583 -1.47165,1.09016 -2.89725,2.21811 -4.2626,3.36733 -1.17165,0.988583 -2.5063,2.19449 -4.00512,3.61772l-0.0484252 0.0448819 -0.0472441 0.0413386 -0.0236221 0.022441 -0.0165354 0.0153543c-11.0339,10.5036 -20.4697,21.724 -28.4433,33.463 -1.62638,2.39646 -3.14292,4.72441 -4.54252,6.97914 -1.4126,2.2748 -2.76969,4.56142 -4.06418,6.84331l-0.108662 0.183071 -0.00708662 0.0129921 -0.011811 0.0188977c-6.8067,12.0118 -12.3154,24.6225 -16.6559,37.6111 -0.950788,2.85 -1.75158,5.37048 -2.4,7.56497 -0.630709,2.14252 -1.33228,4.68189 -2.09528,7.63229l-0.0177165 0.0649607c-16.9016,65.2678 -4.363,136.339 18.5965,187.95 4.46693,10.0441 9.39331,19.4622 14.6268,28.0524 5.27363,8.65158 10.7599,16.3217 16.3075,22.8106l0.33189 0.394488 0.132284 0.153543 0.0271654 -0.022441 0.080315 0.0933072c5.29843,5.97048 12.4843,9.29292 19.8626,9.83859l0.0011811 -0.00354331c7.34174,0.529134 14.8665,-1.6441 20.9209,-6.64252 0.168898,-0.133465 0.333071,-0.272835 0.497244,-0.414567 1.26732,-1.09134 2.43071,-2.28425 3.48898,-3.56575l-0.0177165 -0.0141732c0.183071,-0.206693 0.360237,-0.420473 0.532678,-0.640158 0.220866,-0.262205 0.431103,-0.53504 0.635434,-0.814961 3.76536,-5.13426 7.5756,-10.102 11.4154,-14.8854l2.2937 -2.86063 2.2441 -2.70236 0.0708662 -0.0850394c4.09961,-4.92638 8.20394,-9.64253 12.2953,-14.1378l2.48386 -2.67402 1.93347 -2.08465 0.309449 -0.307087 0.011811 -0.011811 -0.0129921 -0.011811 0.240945 -0.259843 0.0425197 -0.0448819c22.0748,-23.4177 46.8284,-44.3174 73.7835,-62.2134 5.41654,-3.59646 10.7457,-6.97205 15.9709,-10.1126 4.99134,-3.00118 10.2118,-5.98701 15.6555,-8.94686 0.314173,-0.144095 0.622441,-0.302362 0.930709,-0.470079 7.08071,-3.88229 11.948,-10.2921 14.0858,-17.5181 2.12599,-7.18583 1.52244,-15.1807 -2.30906,-22.2839l-0.011811 0.00708662 -0.0590552 -0.113386c-2.63386,-4.85197 -6.4193,-8.65985 -10.8154,-11.2736l-0.0106299 0.0212599 -0.046063 -0.0283465c-0.512599,-0.302362 -1.05354,-0.596457 -1.6252,-0.885827 -0.308268,-0.17126 -0.627166,-0.334252 -0.951969,-0.485433 -0.992127,-0.46063 -1.91929,-0.840946 -2.76614,-1.13386l-0.00472441 0.011811 -0.0519685 -0.0188977 -0.0401575 -0.0141732 -0.00472441 0.0177165z"/>
    <path id="_47214896" class="fil1" d="M760.951 182.454l0.0814961 -0.0295276c6.80197,-2.43307 13.3228,-5.22284 19.5402,-8.31733 0.892914,-0.445276 2.05394,-1.0441 3.48898,-1.80236l2.84528 -1.50591c0.250394,-0.154725 0.506693,-0.305906 0.770079,-0.446457l0.0318898 -0.0177165 0.00944883 0.0177165c5.62323,-3.16063 10.8803,-6.56457 15.7571,-10.1728 0.392126,-0.28937 1.30866,-0.999213 2.7874,-2.15079l1.94882 -1.52126c0.17126,-0.161811 0.349607,-0.32126 0.530315,-0.477166l0.0153543 -0.0141732 0.0330709 0.0389764 0.220866 -0.172441 0.0188977 -0.0153543c22.5803,-18.5977 35.8713,-42.1996 39.6296,-66.6615 0.7063,-4.60748 1.07126,-9.35316 1.08543,-14.1898 0.0141732,-4.93583 -0.305906,-9.68505 -0.964961,-14.1969l-0.011811 -0.080315 -0.046063 -0.307087c-1.50118,-9.98269 -1.35591,-18.5221 0.080315,-25.7114l0.0153543 0.00236221c0.33189,-1.66417 0.69567,-3.14646 1.07717,-4.44922 0.4063,-1.38662 0.905906,-2.80866 1.48583,-4.25433l0.022441 0.00826772 0.0271654 -0.0732284 0.0732284 -0.175984c3.3,-8.07166 8.2819,-14.1969 14.5524,-18.554 1.25079,-0.868111 2.52284,-1.65236 3.8067,-2.34213 1.41378,-0.761812 2.74725,-1.39488 3.99567,-1.90158l0.00708662 0.0153543 0.0814961 -0.034252c6.20434,-2.51103 12.8067,-3.37323 19.5673,-2.78858 1.27913,0.111024 2.55827,0.275197 3.82205,0.484252l-0.00354331 0.0177165c0.975591,0.162992 1.94882,0.360237 2.91614,0.578741 0.309449,0.0555119 0.617717,0.114567 0.925985,0.190158 8.04922,1.96772 16.3914,6.13111 24.1075,11.8583 1.47165,1.09016 2.89725,2.21811 4.2626,3.36733 1.17165,0.988583 2.5063,2.19449 4.00512,3.61772l0.0484252 0.0448819 0.0472441 0.0413386 0.0236221 0.022441 0.0165354 0.0153543c11.0339,10.5036 20.4697,21.724 28.4433,33.463 1.62638,2.39646 3.14292,4.72441 4.54252,6.97914 1.4126,2.2748 2.76969,4.56142 4.06418,6.84331l0.108662 0.183071 0.00708662 0.0129921 0.011811 0.0188977c6.8067,12.0118 12.3154,24.6225 16.6559,37.6111 0.950788,2.85 1.75158,5.37048 2.4,7.56497 0.630709,2.14252 1.33228,4.68189 2.09528,7.63229l0.0177165 0.0649607c16.9016,65.2678 4.363,136.339 -18.5965,187.95 -4.46693,10.0441 -9.39331,19.4622 -14.6268,28.0524 -5.27363,8.65158 -10.7599,16.3217 -16.3075,22.8106l-0.33189 0.394488 -0.132284 0.153543 -0.0271654 -0.022441 -0.080315 0.0933072c-5.29843,5.97048 -12.4843,9.29292 -19.8626,9.83859l-0.0011811 -0.00354331c-7.34174,0.529134 -14.8665,-1.6441 -20.9209,-6.64252 -0.168898,-0.133465 -0.333071,-0.272835 -0.497244,-0.414567 -1.26732,-1.09134 -2.43071,-2.28425 -3.48898,-3.56575l0.0177165 -0.0141732c-0.183071,-0.206693 -0.360237,-0.420473 -0.532678,-0.640158 -0.220866,-0.262205 -0.431103,-0.53504 -0.635434,-0.814961 -3.76536,-5.13426 -7.5756,-10.102 -11.4154,-14.8854l-2.2937 -2.86063 -2.2441 -2.70236 -0.0708662 -0.0850394c-4.09961,-4.92638 -8.20394,-9.64253 -12.2953,-14.1378l-2.48386 -2.67402 -1.93347 -2.08465 -0.309449 -0.307087 -0.011811 -0.011811 0.0129921 -0.011811 -0.240945 -0.259843 -0.0425197 -0.0448819c-22.0748,-23.4177 -46.8284,-44.3174 -73.7835,-62.2134 -5.41654,-3.59646 -10.7457,-6.97205 -15.9709,-10.1126 -4.99134,-3.00118 -10.2118,-5.98701 -15.6555,-8.94686 -0.314173,-0.144095 -0.622441,-0.302362 -0.930709,-0.470079 -7.08071,-3.88229 -11.948,-10.2921 -14.0858,-17.5181 -2.12599,-7.18583 -1.52244,-15.1807 2.30906,-22.2839l0.011811 0.00708662 0.0590552 -0.113386c2.63386,-4.85197 6.4193,-8.65985 10.8154,-11.2736l0.0106299 0.0212599 0.046063 -0.0283465c0.512599,-0.302362 1.05354,-0.596457 1.6252,-0.885827 0.308268,-0.17126 0.627166,-0.334252 0.951969,-0.485433 0.992127,-0.46063 1.91929,-0.840946 2.76614,-1.13386l0.00472441 0.011811 0.0519685 -0.0188977 0.0401575 -0.0141732 0.00472441 0.0177165z"/>
   </g>
   <g>
    <path id="_47214960" class="fil2" d="M777.625 388.302l1.01221 1.31575 -0.034252 0c46.0229,63.1961 45.9886,164.215 -0.0673229,227.411 -22.0323,30.2658 -52.8378,49.0595 -87.0839,49.1941l-0.034252 0.034252 -0.370866 0 -0.236221 0 0 -0.034252c-81.9556,-0.236221 -121.567,-94.0016 -121.771,-162.292l-0.0330709 0 0 -0.675591 0 -0.336614 0.0330709 0c0,-5.5004 0.270473,-10.9665 0.675591,-16.3311 2.2937,-1.01221 4.48701,-2.02441 6.74764,-3.27284l201.162 -95.0127z"/>
    <path id="_47335472" class="fil2" d="M222.375 388.302l-1.01221 1.31575 0.0330709 0c-46.0217,63.1961 -45.9886,164.215 0.0673229,227.411 22.0335,30.2658 52.8378,49.0595 87.0851,49.1941l0.034252 0.034252 0.370866 0 0.236221 0 0 -0.034252c81.9556,-0.236221 121.567,-94.0016 121.769,-162.292l0.034252 0 0 -0.675591 0 -0.336614 -0.034252 0c0,-5.5004 -0.269292,-10.9665 -0.67441,-16.3311 -2.29488,-1.01221 -4.48819,-2.02441 -6.74882,-3.27284l-201.161 -95.0127z"/>
   </g>
   <path id="_47269824" class="fil2" d="M762.175 777.479c20.524,-20.9232 54.1252,-21.2457 75.0485,-0.720473 20.7543,20.3599 21.2351,53.5819 1.20945,74.5371 -12.5528,13.6394 -25.9276,26.5028 -40.0394,38.5394 -14.4898,12.3602 -29.4744,23.6445 -44.8548,33.8103 -80.1638,52.9831 -175.723,80.1355 -273.448,75.9355l-0.0177165 -0.0011811 0.00944883 -0.207874c-60.9697,-2.62323 -120.098,-17.2748 -174.202,-42.463 -8.46261,-3.9378 -17.178,-8.35276 -26.1319,-13.2354 -44.4201,-24.2185 -84.6816,-55.4138 -118.885,-92.6906 -19.8425,-21.6248 -18.398,-55.2437 3.22796,-75.0863 21.6248,-19.8425 55.2437,-18.3969 75.0863,3.22796 26.8335,29.2441 57.6815,53.315 91.1198,71.5453 6.18426,3.37323 12.8693,6.73229 20.0315,10.0665 41.8878,19.5 87.4772,30.8362 134.301,32.85l0.00826772 -0.207874 0.0177165 0.0011811c75.293,3.23622 148.8,-17.6043 210.347,-58.2839 12.1748,-8.04686 23.7177,-16.7079 34.5414,-25.9394 10.6606,-9.0945 20.9008,-18.9555 30.6484,-29.5477 0.633071,-0.719292 1.28976,-1.42441 1.97008,-2.11772l0.011811 -0.011811z"/>
  </g>
 </g>
</svg>
