<?xml version="1.0" encoding="UTF-8"?>
<!DOCTYPE svg PUBLIC "-//W3C//DTD SVG 1.1//EN" "http://www.w3.org/Graphics/SVG/1.1/DTD/svg11.dtd">
<!-- Creator: CorelDRAW -->
<svg xmlns="http://www.w3.org/2000/svg" xml:space="preserve" width="1000px" height="1000px" style="shape-rendering:geometricPrecision; text-rendering:geometricPrecision; image-rendering:optimizeQuality; fill-rule:evenodd; clip-rule:evenodd"
viewBox="0 0 1000 1000"
 xmlns:xlink="http://www.w3.org/1999/xlink">
 <defs>
  <style type="text/css">
   <![CDATA[
    .fil0 {fill:#1F1A17;fill-rule:nonzero}
   ]]>
  </style>
 </defs>
 <g id="Слой_x0020_1">
  <metadata id="CorelCorpID_0Corel-Layer"/>
  <path class="fil0" d="M830.988 38.8051c-190.112,-39.978 -474.603,-40.0607 -664.822,-0.186614 -103.011,21.613 -166.921,57.3638 -167.218,102.027l-0.187795 0.145276 0 0.146457 0 0.186614 0.187795 0.146457c0.405118,44.641 64.18,80.3516 166.975,101.943l0.0543308 -0.125197c190.057,39.978 474.657,40.0607 664.822,0.166536 103.011,-21.613 166.921,-57.3638 167.218,-102.027l0.187795 -0.145276 0 -0.145276 0 -0.187795 -0.187795 -0.146457c-0.405118,-44.6622 -64.18,-80.3304 -166.975,-101.922l-0.0543308 0.124016zm-332.507 59.1c193.472,0 350.37,19.2744 350.37,43.0394 0,23.7662 -156.898,43.0406 -350.37,43.0406 -193.471,0 -350.368,-19.2744 -350.368,-43.0406 0,-23.765 156.898,-43.0394 350.368,-43.0394z"/>
  <g id="_45397392">
   <path id="_46818336" class="fil0" d="M646.283 564.74c-29.7201,0 -53.8489,-24.1288 -53.8489,-53.8489 0,-29.7201 24.1288,-53.8477 53.8489,-53.8477l186.301 0.0307087c29.7201,0 53.8489,24.1288 53.8489,53.8477 0,29.7201 -24.1288,53.8489 -53.8489,53.8489l-186.301 -0.0307087z"/>
   <path id="_47985320" class="fil0" d="M164.38 564.74c-29.7201,0 -53.8489,-24.1288 -53.8489,-53.8489 0,-29.7201 24.1288,-53.8477 53.8489,-53.8477l186.301 0.0307087c29.7201,0 53.8489,24.1288 53.8489,53.8477 0,29.7201 -24.1288,53.8489 -53.8489,53.8489l-186.301 -0.0307087z"/>
  </g>
  <path class="fil0" d="M760.658 774.4c20.524,-20.9232 54.1252,-21.2457 75.0485,-0.720473 20.7543,20.3599 21.2351,53.5819 1.20945,74.5371 -12.5528,13.6394 -25.9276,26.5028 -40.0394,38.5394 -14.4898,12.3602 -29.4744,23.6445 -44.8548,33.8103 -80.1638,52.9831 -175.723,80.1355 -273.448,75.9355l-0.0177165 -0.0011811 0.00944883 -0.207874c-60.9697,-2.62323 -120.098,-17.2748 -174.202,-42.463 -8.46261,-3.9378 -17.178,-8.35276 -26.1319,-13.2354 -44.4201,-24.2185 -84.6816,-55.4138 -118.885,-92.6906 -19.8425,-21.6248 -18.398,-55.2437 3.22796,-75.0863 21.6248,-19.8425 55.2437,-18.3969 75.0863,3.22796 26.8335,29.2441 57.6815,53.315 91.1198,71.5453 6.18426,3.37323 12.8693,6.73229 20.0315,10.0665 41.8878,19.5 87.4772,30.8362 134.301,32.85l0.00826772 -0.207874 0.0177165 0.0011811c75.293,3.23622 148.8,-17.6043 210.347,-58.2839 12.1748,-8.04686 23.7177,-16.7079 34.5414,-25.9394 10.6606,-9.0945 20.9008,-18.9555 30.6484,-29.5477 0.633071,-0.719292 1.28976,-1.42441 1.97008,-2.11772l0.011811 -0.011811z"/>
 </g>
</svg>
