<?xml version="1.0" encoding="UTF-8"?>
<!DOCTYPE svg PUBLIC "-//W3C//DTD SVG 1.1//EN" "http://www.w3.org/Graphics/SVG/1.1/DTD/svg11.dtd">
<!-- Creator: CorelDRAW -->
<svg xmlns="http://www.w3.org/2000/svg" xml:space="preserve" width="1000px" height="1000px" style="shape-rendering:geometricPrecision; text-rendering:geometricPrecision; image-rendering:optimizeQuality; fill-rule:evenodd; clip-rule:evenodd"
 xmlns:xlink="http://www.w3.org/1999/xlink">
 <defs>
  <style type="text/css">
   <![CDATA[
    .fil1 {fill:#1F1A17}
    .fil0 {fill:#1F1A17;fill-rule:nonzero}
   ]]>
  </style>
 </defs>
 <g id="Слой_x0020_1">
  <metadata id="CorelCorpID_0Corel-Layer"/>
  <path class="fil0" d="M1214.25 336.777l-73.2071 0 -41.0469 0 -490.926 0c-23.4473,0 -42.4784,19.0299 -42.4784,42.4784l0.170079 3.15473 -0.533859 409.167 -0.170079 0 0 0.170079 0.170079 0c0.0484252,56.2406 23.1319,107.482 60.0756,144.499l0.0980316 0.0732284 0.0720473 0.0968505 0.218504 0.193701c36.9685,36.7985 87.893,59.6634 143.819,59.7851l0 0.170079 0.36378 0 216.688 0 1.60158 0c1.65,0 3.30118,-0.145276 4.90276,-0.315355 13.3748,-0.413386 26.3362,-2.06339 38.6918,-4.85433 14.1756,-3.22914 27.6473,-7.84016 40.2449,-13.6417 53.2075,-24.5894 94.3749,-71.5583 111.196,-128.673l29.8796 0 0.170079 0 0 -0.170079c35.2453,-0.0484252 67.3099,-14.4662 90.4666,-37.6713 22.9382,-22.963 37.2591,-54.7855 37.3807,-89.7875l0 -0.168898 0.170079 0 0 -0.364961 0.170079 -255.978 0 -0.170079 -0.170079 0c-0.0484252,-35.1721 -14.4425,-67.2367 -37.5744,-90.345l0.0720473 -0.0732284c-22.9618,-22.9618 -54.8327,-37.2591 -89.98,-37.4044l-0.170079 0 0 -0.170079 -0.364961 0zm-439.23 97.7824l0 346.46c0,35.1933 68.6634,33.2457 68.6634,0l0 -346.46 101.497 0 0 350.823c0,35.1933 68.6634,33.2457 68.6634,0l0 -350.823 75.4158 0 38.0221 0 67.8119 0 0.337796 0 0 -0.155906c10.702,0.0673229 20.5949,4.60867 27.8799,11.8937l0.0897639 -0.0897639 0.0673229 0.0897639c7.2626,7.24016 11.8051,17.2453 11.8264,28.128l-0.155906 0 0 0.157087 -0.170079 247.563 0 0.337796 0.155906 0c-0.0897639,10.7917 -4.65355,20.7756 -11.8713,28.0146 -7.23898,7.26379 -17.2677,11.8051 -28.1729,11.8264l0 -0.155906 -0.157087 0 -59.876 0 0 0.111024c-20.0315,0 -37.2107,15.3579 -39.0319,35.7059 -3.70985,40.1575 -29.2524,74.4001 -64.6418,90.7465 -6.99213,3.21496 -14.2784,5.75552 -21.6295,7.41969 -6.72284,1.50591 -13.6039,2.45079 -20.4827,2.69764l-2.67638 -0.0673229 -1.48347 0 -200.717 0 -0.337796 0 0 0.157087c-29.9492,-0.0448819 -57.3343,-12.3662 -77.3682,-32.1307l-0.742914 -0.673229c-20.1449,-20.1236 -32.7142,-47.9363 -32.7355,-78.3804l0.155906 0 0 -0.157087 -0.155906 0 0.46063 -353.038 101.359 0zm340.741 266.169l0 -206.628 31.6288 0c20.4378,0 37.1374,16.754 37.1374,37.2107l0 132.23c0,20.4567 -16.7055,37.187 -37.1374,37.187l-31.6288 0z"/>
  <path class="fil1" d="M1165.61 175.104c-6.56103,-8.07166 -14.7437,-15.2929 -23.7768,-21.0591 -12.163,-7.7693 -25.8083,-12.9591 -39.3166,-14.3043 -12.8492,-1.28976 -25.8355,1.01575 -37.1481,8.04449 -20.9209,13.0146 -47.993,7.99016 -62.9008,-10.8992 -45.6048,-51.2327 -120.011,-48.4052 -162.731,1.34528 -15.6225,18.2575 -41.98,21.9366 -61.7493,9.55394 -9.58111,-5.95749 -20.152,-8.34568 -30.5859,-7.93465 -13.7823,0.549213 -28.1421,5.76615 -41.1839,13.9748 -9.22442,5.79331 -17.5713,13.1244 -24.5729,21.2788l483.965 0zm87.8316 -41.7603c16.8579,27.0992 26.0835,58.3713 23.7225,90.7418 -0.493701,26.0835 -21.828,47.1142 -48.0485,47.1142l-615.012 0 0 -0.109843c-25.5614,-0.0271654 -46.8674,-20.2902 -47.8559,-46.0713 -1.23543,-31.0252 8.23701,-61.6382 24.9024,-88.4351 15.6508,-25.2319 38.1095,-47.6091 64.0004,-63.8623 26.5217,-16.6937 57.1359,-27.3461 88.5178,-28.5815 42.5292,-1.6748 41.8701,7.98898 79.1008,-14.3327 4.00866,-2.27835 8.20867,-4.30985 12.2173,-6.53386 66.7453,-32.289 145.241,-24.711 205.563,19.3831 3.32244,2.41654 6.56221,4.94292 9.7193,7.52363 20.2075,-6.17835 41.074,-7.85316 61.6382,-5.76615 28.8296,2.91024 56.9717,13.3441 81.3792,28.911 24.326,15.4854 45.3851,36.2965 60.156,60.0189z"/>
  <g id="_84722856">
   <g>
    <path id="_86208936" class="fil0" d="M229.74 49.8839c-60.5504,0 -109.66,64.7953 -109.66,144.379 0,79.5048 49.1091,144.3 109.66,144.3 60.5504,0 109.68,-64.7953 109.68,-144.3 0,-79.5839 -49.1292,-144.379 -109.68,-144.379z"/>
    <path id="_46766160" class="fil0" d="M-113.192 255.756c29.7201,0 53.8489,-24.1288 53.8489,-53.8489 0,-29.7201 -24.1288,-53.8477 -53.8489,-53.8477l-267.016 0.0307087c-29.7201,0 -53.8489,24.1288 -53.8489,53.8477 0,29.7201 24.1288,53.8489 53.8489,53.8489l267.016 -0.0307087z"/>
   </g>
   <path id="_44907648" class="fil0" d="M258.75 786.408c26.276,-12.2563 57.5823,-1.08071 70.1197,25.1339 12.6118,26.3717 1.45748,57.978 -24.9142,70.5898l-0.0295276 0.0141732 -0.500788 0.231496 0.0850394 0.183071c-9.12875,4.25079 -19.2166,8.54883 -30.2362,12.8835 -10.0665,3.95788 -20.2819,7.6193 -30.626,10.9748 -53.0469,17.2099 -108.832,26.0469 -165.299,26.0469l0 0.207874 -0.0212599 0 0 -0.207874c-64.5083,-0.00236221 -126.809,-11.4496 -184.582,-32.7048 -23.5122,-8.6504 -46.4386,-18.9921 -68.615,-30.9107 -113.28,-60.8788 -203.638,-162.057 -249.645,-288.513 -9.9756,-27.5185 4.24725,-57.9154 31.7658,-67.891 27.5185,-9.9756 57.9154,4.24725 67.891,31.7658 36.8433,101.265 109.318,182.352 200.232,231.21 17.5276,9.4193 35.8748,17.6776 54.9119,24.6815 46.7717,17.2087 96.756,26.4768 148.041,26.478l0 -0.207874 0.0212599 0 0 0.207874c44.8784,0 89.5938,-7.14686 132.495,-21.065 8.31379,-2.69646 16.5898,-5.66575 24.8126,-8.89843 7.26733,-2.85827 15.2752,-6.32481 24.0095,-10.3913l0.0838583 0.180709z"/>
  </g>
 </g>
</svg>
