<?xml version="1.0" encoding="UTF-8"?>
<!DOCTYPE svg PUBLIC "-//W3C//DTD SVG 1.1//EN" "http://www.w3.org/Graphics/SVG/1.1/DTD/svg11.dtd">
<!-- Creator: CorelDRAW -->
<svg xmlns="http://www.w3.org/2000/svg" xml:space="preserve" width="1000px" height="1000px" style="shape-rendering:geometricPrecision; text-rendering:geometricPrecision; image-rendering:optimizeQuality; fill-rule:evenodd; clip-rule:evenodd"
viewBox="0 0 1000 1000"
 xmlns:xlink="http://www.w3.org/1999/xlink">
 <defs>
  <style type="text/css">
   <![CDATA[
    .fil0 {fill:none;fill-rule:nonzero}
    .fil2 {fill:#1F1A17;fill-rule:nonzero}
    .fil1 {fill:black;fill-rule:nonzero}
   ]]>
  </style>
 </defs>
 <g id="Слой_x0020_1">
  <metadata id="CorelCorpID_0Corel-Layer"/>
  <line class="fil0" x1="160.237" y1="152.159" x2="160.221" y2= "152.153" />
  <polygon class="fil1" points="186.476,160.365 186.477,160.364 186.471,160.357 "/>
  <polygon class="fil1" points="186.484,160.378 186.488,160.38 186.483,160.373 186.481,160.371 "/>
  <polygon class="fil1" points="186.475,160.37 186.464,160.368 186.466,160.37 186.478,160.375 186.48,160.371 "/>
  <polygon class="fil1" points="186.477,160.364 186.476,160.365 186.48,160.371 186.481,160.369 "/>
  <line class="fil0" x1="794.734" y1="152.153" x2="794.718" y2= "152.159" />
  <polygon class="fil1" points="768.478,160.364 768.479,160.365 768.484,160.357 "/>
  <polygon class="fil1" points="768.479,160.365 768.478,160.364 768.474,160.369 768.475,160.371 "/>
  <polygon class="fil1" points="768.477,160.375 768.49,160.37 768.491,160.368 768.48,160.37 768.475,160.371 "/>
  <polygon class="fil1" points="768.467,160.38 768.471,160.378 768.474,160.371 768.472,160.373 "/>
  <g id="_47850752">
   <path id="_46017520" class="fil1" d="M777.257 163.53l0.0649607 -0.022441c5.44134,-1.94764 10.6571,-4.17874 15.6319,-6.65552 0.714567,-0.355512 1.64291,-0.833859 2.79095,-1.44095l2.27599 -1.20473c0.200788,-0.124016 0.4063,-0.244488 0.616536,-0.356693l0.0248032 -0.0141732 0.00826772 0.0129921c4.49882,-2.52756 8.70355,-5.25119 12.6059,-8.1378 0.312992,-0.231496 1.04646,-0.798426 2.22874,-1.72087l1.56024 -1.21654c0.137008,-0.129921 0.27874,-0.257481 0.424016,-0.382677l0.0129921 -0.0106299 0.0259843 0.0318898 0.175984 -0.138189 0.0153543 -0.0129921c18.065,-14.8784 28.6973,-33.7595 31.7044,-53.3292 0.564567,-3.68622 0.8563,-7.48229 0.868111,-11.3516 0.0106299,-3.94843 -0.244488,-7.74804 -0.772442,-11.3575l-0.00944883 -0.0649607 -0.0366142 -0.244488c-1.20118,-7.98662 -1.08425,-14.8181 0.0649607,-20.5701l0.011811 0.00236221c0.265748,-1.3311 0.5563,-2.51693 0.861024,-3.55985 0.324803,-1.10906 0.725197,-2.24646 1.18937,-3.40394l0.0177165 0.00826772 0.022441 -0.0590552 0.0578741 -0.141732c2.63977,-6.45709 6.62599,-11.3563 11.6421,-14.8429 1.00039,-0.694489 2.01732,-1.32165 3.04488,-1.87323 1.1315,-0.609449 2.19803,-1.11614 3.19725,-1.52126l0.00472441 0.0129921 0.0661418 -0.0283465c4.963,-2.00906 10.2449,-2.69882 15.6532,-2.22992 1.02284,0.0885827 2.04685,0.218504 3.05788,0.386221l-0.00236221 0.0153543c0.780709,0.129921 1.55906,0.287008 2.33268,0.462992 0.246851,0.0437008 0.494882,0.090945 0.740552,0.151181 6.43938,1.57323 13.1138,4.90512 19.2862,9.48662 1.17756,0.871654 2.31732,1.7752 3.40985,2.6941 0.937796,0.790158 2.00551,1.75512 3.20433,2.8937l0.0389764 0.0354331 0.0377953 0.034252 0.0188977 0.0177165 0.0129921 0.0129921c8.82757,8.40237 16.376,17.3788 22.7551,26.7697 1.30039,1.91693 2.51339,3.77953 3.63307,5.58308 1.13032,1.82008 2.21693,3.64961 3.25158,5.47559l0.0862205 0.146457 0.00708662 0.00944883 0.00826772 0.0153543c5.44607,9.60946 9.85276,19.6973 13.3252,30.0886 0.760631,2.28071 1.40079,4.29685 1.92047,6.05197 0.504331,1.71378 1.06536,3.74528 1.67599,6.1063l0.0141732 0.0519685c13.5213,52.2142 3.49016,109.071 -14.8772,150.36 -3.57402,8.03505 -7.51418,15.5693 -11.7024,22.4421 -4.21772,6.92127 -8.60788,13.0571 -13.0453,18.2492l-0.264567 0.315355 -0.10748 0.121654 -0.0200788 -0.0177165 -0.0649607 0.0744095c-4.23898,4.77756 -9.98741,7.43505 -15.8906,7.87087l0 -0.00236221c-5.87363,0.424016 -11.8937,-1.31575 -16.7374,-5.31496 -0.135827,-0.105118 -0.266929,-0.217323 -0.398032,-0.330709 -1.01339,-0.872835 -1.9441,-1.82717 -2.79095,-2.85236l0.0141732 -0.011811c-0.146457,-0.165354 -0.288189,-0.335433 -0.426378,-0.511418 -0.175984,-0.210236 -0.344882,-0.42874 -0.509056,-0.65315 -3.01181,-4.1067 -6.06024,-8.08111 -9.13229,-11.9079l-1.83425 -2.2878 -1.7941 -2.1626 -0.0578741 -0.0673229c-3.27992,-3.94134 -6.56221,-7.71497 -9.83623,-11.3102l-1.98662 -2.14016 -1.54725 -1.66654 -0.246851 -0.246851 -0.00944883 -0.00944883 0.0106299 -0.00944883 -0.193701 -0.207874 -0.034252 -0.0354331c-17.6599,-18.7347 -37.4622,-35.4532 -59.0268,-49.7717 -4.33347,-2.87717 -8.59607,-5.57717 -12.776,-8.08938 -3.99331,-2.40118 -8.16969,-4.78937 -12.5256,-7.15749 -0.250394,-0.115748 -0.497244,-0.240945 -0.744095,-0.375591 -5.66457,-3.1063 -9.55867,-8.23465 -11.2677,-14.015 -1.70197,-5.74843 -1.2189,-12.1453 1.84606,-17.8276l0.0106299 0.00590552 0.0472441 -0.0897639c2.10591,-3.88229 5.13426,-6.92835 8.65158,-9.02009l0.00944883 0.0177165 0.0366142 -0.022441c0.408662,-0.243307 0.842127,-0.477166 1.29921,-0.708662 0.246851,-0.137008 0.501969,-0.26811 0.761812,-0.388583 0.793701,-0.368504 1.53543,-0.673229 2.21339,-0.907087l0.00236221 0.00826772 0.0425197 -0.0141732 0.0318898 -0.0106299 0.00472441 0.0129921z"/>
   <path id="_46529904" class="fil1" d="M222.744 163.53l-0.0649607 -0.022441c-5.44134,-1.94764 -10.6571,-4.17874 -15.6319,-6.65552 -0.714567,-0.355512 -1.64291,-0.833859 -2.79095,-1.44095l-2.27599 -1.20473c-0.200788,-0.124016 -0.4063,-0.244488 -0.616536,-0.356693l-0.0248032 -0.0141732 -0.00826772 0.0129921c-4.49882,-2.52756 -8.70355,-5.25119 -12.6059,-8.1378 -0.312992,-0.231496 -1.04646,-0.798426 -2.22874,-1.72087l-1.56024 -1.21654c-0.137008,-0.129921 -0.27874,-0.257481 -0.424016,-0.382677l-0.0129921 -0.0106299 -0.0259843 0.0318898 -0.175984 -0.138189 -0.0153543 -0.0129921c-18.065,-14.8784 -28.6973,-33.7595 -31.7044,-53.3292 -0.564567,-3.68622 -0.8563,-7.48229 -0.868111,-11.3516 -0.0106299,-3.94843 0.244488,-7.74804 0.772442,-11.3575l0.00944883 -0.0649607 0.0366142 -0.244488c1.20118,-7.98662 1.08425,-14.8181 -0.0649607,-20.5701l-0.011811 0.00236221c-0.265748,-1.3311 -0.5563,-2.51693 -0.861024,-3.55985 -0.324803,-1.10906 -0.725197,-2.24646 -1.18937,-3.40394l-0.0177165 0.00826772 -0.022441 -0.0590552 -0.0578741 -0.141732c-2.63977,-6.45709 -6.62599,-11.3563 -11.6421,-14.8429 -1.00039,-0.694489 -2.01732,-1.32165 -3.04488,-1.87323 -1.1315,-0.609449 -2.19803,-1.11614 -3.19725,-1.52126l-0.00472441 0.0129921 -0.0661418 -0.0283465c-4.963,-2.00906 -10.2449,-2.69882 -15.6532,-2.22992 -1.02284,0.0885827 -2.04685,0.218504 -3.05788,0.386221l0.00236221 0.0153543c-0.780709,0.129921 -1.55906,0.287008 -2.33268,0.462992 -0.246851,0.0437008 -0.494882,0.090945 -0.740552,0.151181 -6.43938,1.57323 -13.1138,4.90512 -19.2862,9.48662 -1.17756,0.871654 -2.31732,1.7752 -3.40985,2.6941 -0.937796,0.790158 -2.00551,1.75512 -3.20433,2.8937l-0.0389764 0.0354331 -0.0377953 0.034252 -0.0188977 0.0177165 -0.0129921 0.0129921c-8.82757,8.40237 -16.376,17.3788 -22.7551,26.7697 -1.30039,1.91693 -2.51339,3.77953 -3.63307,5.58308 -1.13032,1.82008 -2.21693,3.64961 -3.25158,5.47559l-0.0862205 0.146457 -0.00708662 0.00944883 -0.00826772 0.0153543c-5.44607,9.60946 -9.85276,19.6973 -13.3252,30.0886 -0.760631,2.28071 -1.40079,4.29685 -1.92047,6.05197 -0.504331,1.71378 -1.06536,3.74528 -1.67599,6.1063l-0.0141732 0.0519685c-13.5213,52.2142 -3.49016,109.071 14.8772,150.36 3.57402,8.03505 7.51418,15.5693 11.7024,22.4421 4.21772,6.92127 8.60788,13.0571 13.0453,18.2492l0.264567 0.315355 0.10748 0.121654 0.0200788 -0.0177165 0.0649607 0.0744095c4.23898,4.77756 9.98741,7.43505 15.8906,7.87087l0 -0.00236221c5.87363,0.424016 11.8937,-1.31575 16.7374,-5.31496 0.135827,-0.105118 0.266929,-0.217323 0.398032,-0.330709 1.01339,-0.872835 1.9441,-1.82717 2.79095,-2.85236l-0.0141732 -0.011811c0.146457,-0.165354 0.288189,-0.335433 0.426378,-0.511418 0.175984,-0.210236 0.344882,-0.42874 0.509056,-0.65315 3.01181,-4.1067 6.06024,-8.08111 9.13229,-11.9079l1.83425 -2.2878 1.7941 -2.1626 0.0578741 -0.0673229c3.27992,-3.94134 6.56221,-7.71497 9.83623,-11.3102l1.98662 -2.14016 1.54725 -1.66654 0.246851 -0.246851 0.00944883 -0.00944883 -0.0106299 -0.00944883 0.193701 -0.207874 0.034252 -0.0354331c17.6599,-18.7347 37.4622,-35.4532 59.0268,-49.7717 4.33347,-2.87717 8.59607,-5.57717 12.776,-8.08938 3.99331,-2.40118 8.16969,-4.78937 12.5256,-7.15749 0.250394,-0.115748 0.497244,-0.240945 0.744095,-0.375591 5.66457,-3.1063 9.55867,-8.23465 11.2677,-14.015 1.70197,-5.74843 1.2189,-12.1453 -1.84606,-17.8276l-0.0106299 0.00590552 -0.0472441 -0.0897639c-2.10591,-3.88229 -5.13426,-6.92835 -8.65158,-9.02009l-0.00944883 0.0177165 -0.0366142 -0.022441c-0.408662,-0.243307 -0.842127,-0.477166 -1.29921,-0.708662 -0.246851,-0.137008 -0.501969,-0.26811 -0.761812,-0.388583 -0.793701,-0.368504 -1.53543,-0.673229 -2.21339,-0.907087l-0.00236221 0.00826772 -0.0425197 -0.0141732 -0.0318898 -0.0106299 -0.00472441 0.0129921z"/>
  </g>
  <g id="_45311832">
   <path id="_46641496" class="fil2" d="M168.763 482.366c-26.5193,-12.6791 -37.7315,-44.4839 -25.0524,-71.002 12.6791,-26.5193 44.4839,-37.7327 71.0032,-25.0536l128.019 61.5674 80.0115 37.7906c2.25709,1.24725 4.44803,2.25827 6.73938,3.26929 0.405118,5.35748 0.67441,10.8165 0.67441,16.3099l0.034252 0 0 0.335433 0 0.675591 -0.034252 0c-0.201969,68.2004 -39.7618,161.844 -121.611,162.079l0 0.034252 -0.23504 0 -0.370866 0 -0.034252 -0.034252c-34.2024,-0.134646 -64.9666,-18.9036 -86.9717,-49.1292 -25.7232,-35.2973 -37.0677,-82.4079 -34.0335,-128.12l-18.1382 -8.72245z"/>
   <path id="_48042248" class="fil2" d="M831.237 482.366c26.5193,-12.6791 37.7315,-44.4839 25.0524,-71.002 -12.6791,-26.5193 -44.4839,-37.7327 -71.0032,-25.0536l-128.019 61.5674 -80.0115 37.7906c-2.25709,1.24725 -4.44803,2.25827 -6.73938,3.26929 -0.405118,5.35748 -0.67441,10.8165 -0.67441,16.3099l-0.034252 0 0 0.335433 0 0.675591 0.034252 0c0.201969,68.2004 39.7618,161.844 121.611,162.079l0 0.034252 0.23504 0 0.370866 0 0.034252 -0.034252c34.2024,-0.134646 64.9666,-18.9036 86.9717,-49.1292 25.7232,-35.2973 37.0677,-82.4079 34.0335,-128.12l18.1382 -8.72245z"/>
  </g>
  <path class="fil2" d="M791.33 746.947c18.6992,-22.4185 52.03,-25.4658 74.4827,-6.79253 22.4729,18.6898 25.5414,52.0607 6.85158,74.5335l-0.0519685 0.0625985 -0.103937 0.121654 0.103937 0.0862205c-12.2221,14.5559 -25.3748,28.5284 -39.3685,41.8689 -13.8059,13.1622 -28.2343,25.474 -43.2036,36.8918 -77.4792,59.0965 -170.636,95.706 -268.966,104.296 -29.2382,2.52166 -54.9874,-19.1362 -57.5091,-48.3744 -2.52166,-29.2382 19.1362,-54.9874 48.3744,-57.5091 78.3119,-6.84095 152.338,-35.8713 213.74,-82.7056 12.0402,-9.18426 23.5583,-19.0028 34.4823,-29.4177 10.7374,-10.2366 21.1134,-21.2953 31.0654,-33.1477l0.102756 0.0862205z"/>
 </g>
</svg>
