<?xml version="1.0" encoding="UTF-8"?>
<!DOCTYPE svg PUBLIC "-//W3C//DTD SVG 1.1//EN" "http://www.w3.org/Graphics/SVG/1.1/DTD/svg11.dtd">
<!-- Creator: CorelDRAW -->
<svg xmlns="http://www.w3.org/2000/svg" xml:space="preserve" width="1000px" height="1000px" style="shape-rendering:geometricPrecision; text-rendering:geometricPrecision; image-rendering:optimizeQuality; fill-rule:evenodd; clip-rule:evenodd"
viewBox="0 0 1000 1000"
 xmlns:xlink="http://www.w3.org/1999/xlink">
 <defs>
  <style type="text/css">
   <![CDATA[
    .fil0 {fill:#1F1A17;fill-rule:nonzero}
   ]]>
  </style>
 </defs>
 <g id="Слой_x0020_1">
  <metadata id="CorelCorpID_0Corel-Layer"/>
  <path class="fil0" d="M612.012 739.562l0 -78.7418 -224.025 0 0 78.7418 0 0.458268 -0.21378 0c0.0614174,25.9004 10.8862,49.7221 28.2248,67.0902 38.7744,38.8973 129.32,38.6221 168.095,-0.090945 17.3374,-17.2772 28.102,-41.1603 28.1327,-67.2438l-0.21378 0 0 -0.21378zm-470.829 -79.5367c-29.4177,0 -53.2996,-23.8831 -53.2996,-53.2996 0,-29.4177 23.8819,-53.2996 53.2996,-53.2996 239.191,-0.305906 478.443,-0.673229 717.634,-0.979135 29.4177,0 53.2996,23.8831 53.2996,53.2996 0,29.4177 -23.8819,53.2996 -53.2996,53.2996l-139.778 0.275197 0 80.2406 0 0.21378 -0.21378 0c-0.0614174,55.6843 -22.8425,106.324 -59.5075,142.897 -36.4193,36.3886 -86.8146,59.0174 -142.316,59.1709l0 0.21378 -0.458268 0 -33.0874 0 -0.21378 0 0 -0.21378c-55.6536,-0.0614174 -106.324,-22.8437 -142.897,-59.5075 -36.3591,-36.3898 -59.0174,-86.8146 -59.1709,-142.316l-0.21378 0 0 -0.458268 0 -79.6288 -139.778 0.0921261z"/>
  <g id="_45947552">
   <path id="_45355464" class="fil0" d="M261.786 57.9414c60.5504,0 109.66,64.7953 109.66,144.379 0,79.5048 -49.1091,144.3 -109.66,144.3 -60.5504,0 -109.68,-64.7953 -109.68,-144.3 0,-79.5839 49.1292,-144.379 109.68,-144.379z"/>
   <path id="_45522744" class="fil0" d="M738.216 57.9414c60.5493,0 109.68,64.7953 109.68,144.379 0,79.5048 -49.1304,144.3 -109.68,144.3 -60.5516,0 -109.661,-64.7953 -109.661,-144.3 0,-79.5839 49.1091,-144.379 109.661,-144.379z"/>
  </g>
 </g>
</svg>
