<?xml version="1.0" encoding="UTF-8"?>
<!DOCTYPE svg PUBLIC "-//W3C//DTD SVG 1.1//EN" "http://www.w3.org/Graphics/SVG/1.1/DTD/svg11.dtd">
<!-- Creator: CorelDRAW -->
<svg xmlns="http://www.w3.org/2000/svg" xml:space="preserve" width="1000px" height="1000px" style="shape-rendering:geometricPrecision; text-rendering:geometricPrecision; image-rendering:optimizeQuality; fill-rule:evenodd; clip-rule:evenodd"
viewBox="0 0 1000 1000"
 xmlns:xlink="http://www.w3.org/1999/xlink">
 <defs>
  <style type="text/css">
   <![CDATA[
    .fil0 {fill:#1F1A17;fill-rule:nonzero}
   ]]>
  </style>
 </defs>
 <g id="Слой_x0020_1">
  <metadata id="CorelCorpID_0Corel-Layer"/>
  <g id="_44983288">
   <path id="_44892936" class="fil0" d="M612.012 790.718l0 -72.0898 -224.025 0 0 73.1221c0,28.1705 7.56851,52.6902 28.011,73.1682 38.7744,38.8973 129.32,38.6221 168.095,-0.090945 20.8347,-20.7626 27.9189,-46.3429 27.9189,-74.1095zm-470.829 -72.8847c-29.4177,0 -53.2996,-23.8831 -53.2996,-53.2996 0,-29.4177 23.8819,-53.2996 53.2996,-53.2996 239.191,-0.305906 478.443,-0.673229 717.634,-0.979135 29.4177,0 53.2996,23.8831 53.2996,53.2996 0,29.4177 -23.8819,53.2996 -53.2996,53.2996l-139.778 0.275197 0 74.1319c0,55.8697 -19.4327,109.031 -59.7213,149.219 -42.0437,42.0083 -96.3875,59.3847 -153.873,59.3847 -61.5544,0 -118.641,-13.1469 -165.099,-59.7213 -39.887,-39.9213 -59.3847,-92.9257 -59.3847,-148.394l0 -74.0091 -139.778 0.0921261z"/>
   <g>
    <path id="_45714824" class="fil0" d="M261.786 0.135827c60.5504,0 109.66,64.7953 109.66,144.379 0,79.5048 -49.1091,144.3 -109.66,144.3 -60.5504,0 -109.68,-64.7953 -109.68,-144.3 0,-79.5839 49.1292,-144.379 109.68,-144.379z"/>
    <path id="_46211056" class="fil0" d="M738.216 0.135827c60.5493,0 109.68,64.7953 109.68,144.379 0,79.5048 -49.1304,144.3 -109.68,144.3 -60.5516,0 -109.661,-64.7953 -109.661,-144.3 0,-79.5839 49.1091,-144.379 109.661,-144.379z"/>
   </g>
  </g>
 </g>
</svg>
