<?xml version="1.0" encoding="UTF-8"?>
<!DOCTYPE svg PUBLIC "-//W3C//DTD SVG 1.1//EN" "http://www.w3.org/Graphics/SVG/1.1/DTD/svg11.dtd">
<!-- Creator: CorelDRAW -->
<svg xmlns="http://www.w3.org/2000/svg" xml:space="preserve" width="1000px" height="1000px" style="shape-rendering:geometricPrecision; text-rendering:geometricPrecision; image-rendering:optimizeQuality; fill-rule:evenodd; clip-rule:evenodd"
viewBox="0 0 1000 1000"
 xmlns:xlink="http://www.w3.org/1999/xlink">
 <defs>
  <style type="text/css">
   <![CDATA[
    .fil0 {fill:#1F1A17;fill-rule:nonzero}
   ]]>
  </style>
 </defs>
 <g id="Слой_x0020_1">
  <metadata id="CorelCorpID_0Corel-Layer"/>
  <path class="fil0" d="M865.041 379.31c57.5623,78.9048 107.766,259.885 -15.5776,260.351 -123.344,0.465355 -69.58,-186.341 -27.1855,-259.045 13.5319,-23.1933 31.761,-16.3866 42.763,-1.30512z"/>
  <path class="fil0" d="M149.678 649.399c-26.276,12.2563 -57.5823,1.08071 -70.1197,-25.1339 -12.6118,-26.3717 -1.45748,-57.978 24.9142,-70.5898l0.0295276 -0.0141732 0.500788 -0.231496 -0.0850394 -0.183071c9.12875,-4.25079 19.2166,-8.54883 30.2362,-12.8835 10.0665,-3.95788 20.2819,-7.6193 30.626,-10.9748 53.0469,-17.2099 108.832,-26.0469 165.299,-26.0469l0 -0.207874 0.0212599 0 0 0.207874c64.5083,0.00236221 126.809,11.4496 184.582,32.7048 23.5122,8.6504 46.4386,18.9921 68.615,30.9107 113.28,60.8788 203.638,162.057 249.645,288.513 9.9756,27.5185 -4.24725,57.9154 -31.7658,67.891 -27.5185,9.9756 -57.9154,-4.24725 -67.891,-31.7658 -36.8433,-101.265 -109.318,-182.352 -200.232,-231.21 -17.5276,-9.4193 -35.8748,-17.6776 -54.9119,-24.6815 -46.7717,-17.2087 -96.756,-26.4768 -148.041,-26.478l0 0.207874 -0.0212599 0 0 -0.207874c-44.8784,0 -89.5938,7.14686 -132.495,21.065 -8.31379,2.69646 -16.5898,5.66575 -24.8126,8.89843 -7.26733,2.85827 -15.2752,6.32481 -24.0095,10.3913l-0.0838583 -0.180709z"/>
  <g id="_47056472">
   <path id="_23698520" class="fil0" d="M541.489 164.538c-26.5193,-12.6791 -37.7315,-44.4839 -25.0524,-71.002 12.6791,-26.5193 44.4839,-37.7327 71.0032,-25.0536l128.019 61.5674 80.0115 37.7906c2.25709,1.24725 4.44803,2.25827 6.73938,3.26929 0.405118,5.35748 0.67441,10.8165 0.67441,16.3099l0.034252 0 0 0.335433 0 0.675591 -0.034252 0c-0.201969,68.2004 -39.7618,161.844 -121.611,162.079l0 0.034252 -0.23504 0 -0.370866 0 -0.034252 -0.034252c-34.2024,-0.134646 -64.9666,-18.9036 -86.9717,-49.1292 -25.7232,-35.2973 -37.0677,-82.4079 -34.0335,-128.12l-18.1382 -8.72245z"/>
   <path id="_84605696" class="fil0" d="M375.613 164.538c26.5193,-12.6791 37.7315,-44.4839 25.0524,-71.002 -12.6791,-26.5193 -44.4839,-37.7327 -71.0032,-25.0536l-128.019 61.5674 -80.0115 37.7906c-2.25709,1.24725 -4.44803,2.25827 -6.73938,3.26929 -0.405118,5.35748 -0.67441,10.8165 -0.67441,16.3099l-0.034252 0 0 0.335433 0 0.675591 0.034252 0c0.201969,68.2004 39.7618,161.844 121.611,162.079l0 0.034252 0.23504 0 0.370866 0 0.034252 -0.034252c34.2024,-0.134646 64.9666,-18.9036 86.9717,-49.1292 25.7232,-35.2973 37.0677,-82.4079 34.0335,-128.12l18.1382 -8.72245z"/>
  </g>
 </g>
</svg>
