<?xml version="1.0" encoding="UTF-8"?>
<!DOCTYPE svg PUBLIC "-//W3C//DTD SVG 1.1//EN" "http://www.w3.org/Graphics/SVG/1.1/DTD/svg11.dtd">
<!-- Creator: CorelDRAW -->
<svg xmlns="http://www.w3.org/2000/svg" xml:space="preserve" width="1000px" height="1000px" style="shape-rendering:geometricPrecision; text-rendering:geometricPrecision; image-rendering:optimizeQuality; fill-rule:evenodd; clip-rule:evenodd"
viewBox="0 0 1000 1000"
 xmlns:xlink="http://www.w3.org/1999/xlink">
 <defs>
  <style type="text/css">
   <![CDATA[
    .fil0 {fill:#1F1A17}
   ]]>
  </style>
 </defs>
 <g id="Слой_x0020_1">
  <metadata id="CorelCorpID_0Corel-Layer"/>
  <path class="fil0" d="M503.963 984.672c-215.78,0 -386.89,-126.3 -465.782,-306.357 -87.6969,-200.147 -17.6835,-521.252 138.959,-662.986l-6.09686 156.546c8.16379,-9.88229 67.7304,-12.561 77.4532,0.105118 31.8851,-61.7717 136.332,-108.113 220.25,-109.595 -31.9453,26.5217 -105.735,124.029 -99.1194,174.06 40.6654,12.5162 103.146,13.0795 135.984,15.3012 9.95788,5.47678 8.39883,39.9957 -11.8406,67.826 -26.4071,36.313 -97.0678,49.037 -97.0678,49.037l8.25473 105.653 -77.5253 -37.4658c-25.128,63.2375 35.2087,119.914 97.917,109.186 68.9256,-11.7933 93.4631,-56.7863 141.913,-53.9752 48.4512,2.81221 67.4469,29.354 61.0524,54.5741 -7.57796,29.8914 -59.9233,25.0819 -59.9233,25.0819 -43.8201,69.8646 -102.32,100.261 -197.361,92.1898 144.26,119.076 338.109,10.9228 387.239,-86.4898 49.1304,-97.4127 6.43111,-241.501 -43.0406,-282.588 58.2237,24.9225 98.5076,50.9634 119.421,107.063 11.498,-124.9 -46.2048,-266.608 -148.991,-349.612 193.178,56.0032 311.039,205.701 314.342,444.666 3.30355,238.964 -211.469,487.779 -496.037,487.779z"/>
 </g>
</svg>
