<?xml version="1.0" encoding="UTF-8"?>
<!DOCTYPE svg PUBLIC "-//W3C//DTD SVG 1.1//EN" "http://www.w3.org/Graphics/SVG/1.1/DTD/svg11.dtd">
<!-- Creator: CorelDRAW -->
<svg xmlns="http://www.w3.org/2000/svg" xml:space="preserve" width="1000px" height="1000px" style="shape-rendering:geometricPrecision; text-rendering:geometricPrecision; image-rendering:optimizeQuality; fill-rule:evenodd; clip-rule:evenodd"
viewBox="0 0 1000 1000"
 xmlns:xlink="http://www.w3.org/1999/xlink">
 <defs>
  <style type="text/css">
   <![CDATA[
    .fil0 {fill:#1F1A17}
   ]]>
  </style>
 </defs>
 <g id="Слой_x0020_1">
  <metadata id="CorelCorpID_0Corel-Layer"/>
  <path class="fil0" d="M512.691 909.189c-30.4524,0 -60.1843,-2.83347 -88.8957,-8.22757 -33.9957,39.0496 -254.29,145.515 -344.818,76.226 -210.5,-161.115 181.847,-682.725 360.591,-772.916l0.0413386 -13.6158c-143.352,44.7898 -307.316,208.22 -367.509,301.407 10.9146,-282.912 270.065,-420.995 509.544,-386.47 127.275,-76.0288 255.503,-128.312 342.581,-95.778 59.5784,22.2567 72.9319,104.108 37.865,212.998l-19.2343 0c63.4619,-264.96 -125.188,-218.48 -299.333,-104.047 192.421,54.7819 335.203,235.606 306.255,438.972l-561.011 0c0,82.9642 23.276,151.643 126.028,151.643 65.204,0 107.952,-35.9091 120.204,-92.7296l301.449 0c-52.8745,168.908 -222.599,292.538 -423.76,292.538zm-113.281 -13.5036c-106.701,-25.963 -197.537,-87.7005 -256.289,-170.372 -45.7536,98.9611 -58.0394,182.977 -9.54095,222.561 39.4926,32.2335 189.311,6.41812 265.83,-52.1894zm-12.6732 -463.901c0,-77.0505 45.8776,-128.393 123.848,-128.393 79.2721,0 128.059,47.4886 128.059,128.393l-251.907 0z"/>
 </g>
</svg>
