<svg xmlns="http://www.w3.org/2000/svg" width="1000" height="1000"><path fill="#000000" d="M214.674-0.011v60.55h-89.911v939.473H785.33V823.258h89.908V-0.011H214.674z M711.031,916.209H199.068v-17.732h511.963 V916.209z M711.033,792.082h-0.003H199.065v-17.734h511.969V792.082z M711.033,667.953h-0.003H199.065v-17.734h511.969V667.953z M711.033,543.822h-0.003v0.002H199.065V526.09h511.969V543.822z M711.033,419.695h-0.003H199.065v-17.731h511.969V419.695z M711.033,295.566h-0.003H199.065v-17.73h511.969V295.566z M711.033,171.441h-0.003H199.065v-17.733h511.969V171.441z M854.437,802.445H785.33V60.542H235.477V20.795h618.96V802.445z" /></svg>
