<svg xmlns="http://www.w3.org/2000/svg" width="1000" height="1000"><path fill="#000000" d="M63.173,4.064v16.671H38.418v258.66h181.871v-48.664h24.754V4.064H63.173z M199.832,256.322H58.876v-4.882 h140.956V256.322z M199.832,222.147H58.875v-4.883h140.958V222.147z M199.832,187.971H58.875v-4.882h140.958V187.971zM199.832,153.796H58.875v-4.883h140.958V153.796z M199.832,119.62H58.875v-4.882h140.958V119.62z M199.832,85.444H58.875v-4.882	h140.958V85.444z M199.832,51.269H58.875v-4.883h140.958V51.269z M239.316,225.001h-19.027V20.736H68.901V9.793h170.415V225.001z" /></svg>
