<?xml version="1.0" encoding="UTF-8"?>
<!DOCTYPE svg PUBLIC "-//W3C//DTD SVG 1.1//EN" "http://www.w3.org/Graphics/SVG/1.1/DTD/svg11.dtd">
<!-- Creator: CorelDRAW -->
<svg xmlns="http://www.w3.org/2000/svg" xml:space="preserve" width="1000px" height="1000px" style="shape-rendering:geometricPrecision; text-rendering:geometricPrecision; image-rendering:optimizeQuality; fill-rule:evenodd; clip-rule:evenodd"
viewBox="0 0 1000 1000"
 xmlns:xlink="http://www.w3.org/1999/xlink">
 <defs>
  <style type="text/css">
   <![CDATA[
    .fil0 {fill:#1F1A17;fill-rule:nonzero}
   ]]>
  </style>
 </defs>
 <g id="Слой_x0020_1">
  <metadata id="CorelCorpID_0Corel-Layer"/>
  <g id="_44882680">
   <path id="_47735200" class="fil0" d="M261.786 57.8469c60.5504,0 109.66,64.7953 109.66,144.379 0,79.5048 -49.1091,144.3 -109.66,144.3 -60.5504,0 -109.68,-64.7953 -109.68,-144.3 0,-79.5839 49.1292,-144.379 109.68,-144.379z"/>
   <path id="_47757208" class="fil0" d="M516.638 481.554l-33.2752 0 -0.461811 0 0 -0.214961c-26.0481,0.0614174 -50.0056,10.9488 -67.4729,28.3855 -17.4378,17.3764 -28.2626,41.3953 -28.2933,67.6276l0.214961 0 0 0.216142 0 160.934 0 0.461811 -0.214961 0c0.0614174,26.0788 10.9476,50.0056 28.3855,67.4729 17.3752,17.4071 41.3941,28.2626 67.6276,28.2933l0 -0.214961 0.214961 0 33.2752 0 0.461811 0 0 0.214961c26.0788,-0.0614174 50.0056,-10.9476 67.4729,-28.3855 17.4071,-17.3752 28.2626,-41.3941 28.2933,-67.6276l-0.214961 0 0 -0.214961 0 -160.934 0 -0.461811 0.214961 0c-0.0614174,-26.0481 -10.9476,-50.0056 -28.3855,-67.4741 -17.3752,-17.4366 -41.3941,-28.2626 -67.6276,-28.2933l0 0.214961 -0.214961 0zm-33.2752 -107.637l33.2752 0 0.214961 0 0 0.214961c55.9725,0.0614174 106.931,22.9736 143.713,59.8465 36.5658,36.5977 59.354,87.3107 59.5075,143.128l0.216142 0 0 0.461811 0 160.934 0 0.214961 -0.216142 0c-0.0614174,55.9725 -23.0339,106.962 -59.8465,143.713 -36.6272,36.5965 -87.3095,59.354 -143.127,59.5075l0 0.216142 -0.461811 0 -33.2752 0 -0.214961 0 0 -0.216142c-56.0339,-0.0614174 -106.962,-23.0339 -143.713,-59.8465 -36.5965,-36.6272 -59.354,-87.3095 -59.5075,-143.127l-0.216142 0 0 -0.461811 0 -160.934 0 -0.216142 0.216142 0c0.0614174,-56.002 22.9725,-106.93 59.8465,-143.712 36.6272,-36.5965 87.3095,-59.3552 143.127,-59.5087l0 -0.214961 0.461811 0z"/>
   <path id="_46678488" class="fil0" d="M738.216 57.8469c60.5493,0 109.68,64.7953 109.68,144.379 0,79.5048 -49.1304,144.3 -109.68,144.3 -60.5516,0 -109.661,-64.7953 -109.661,-144.3 0,-79.5839 49.1091,-144.379 109.661,-144.379z"/>
  </g>
 </g>
</svg>
