<?xml version="1.0" encoding="UTF-8"?>
<!DOCTYPE svg PUBLIC "-//W3C//DTD SVG 1.1//EN" "http://www.w3.org/Graphics/SVG/1.1/DTD/svg11.dtd">
<!-- Creator: CorelDRAW -->
<svg xmlns="http://www.w3.org/2000/svg" xml:space="preserve" width="297mm" height="420mm" style="shape-rendering:geometricPrecision; text-rendering:geometricPrecision; image-rendering:optimizeQuality; fill-rule:evenodd; clip-rule:evenodd"
viewBox="0 0 297 420"
 xmlns:xlink="http://www.w3.org/1999/xlink">
 <defs>
  <style type="text/css">
   <![CDATA[
    .fil0 {fill:#1F1A17;fill-rule:nonzero}
   ]]>
  </style>
 </defs>
 <g id="Слой_x0020_1">
  <metadata id="CorelCorpID_0Corel-Layer"/>
  <path class="fil0" d="M211.613 203.725c-14.45,16.17 -36.815,20.325 -55.935,10.705 -5.305,-2.685 -10.035,-6.36 -13.97,-10.755 -8.57,9.685 -21.085,15.78 -35.01,15.78 -13.25,0 -26.01,-5.85 -34.855,-15.73 -7.815,-8.765 -15.815,-27.05 -11.025,-38.915l161.845 0c4.99,11.83 -3.395,30.345 -11.05,38.915zm-99.4233 85.5177c-4.425,-1.89 -9.56,0.15 -11.45,4.58 -1.895,4.43 0.155,9.555 4.585,11.46 43.955,18.87 95.23,3.515 120.125,-38.335 2.465,-4.145 1.105,-9.48 -3.025,-11.955 -4.13,-2.455 -9.49,-1.1 -11.945,3.035 -19.85,33.35 -63.255,46.2 -98.29,31.215z"/>
 </g>
</svg>
