<?xml version="1.0" encoding="UTF-8"?>
<!DOCTYPE svg PUBLIC "-//W3C//DTD SVG 1.1//EN" "http://www.w3.org/Graphics/SVG/1.1/DTD/svg11.dtd">
<!-- Creator: CorelDRAW -->
<svg xmlns="http://www.w3.org/2000/svg" xml:space="preserve" width="297mm" height="420mm" style="shape-rendering:geometricPrecision; text-rendering:geometricPrecision; image-rendering:optimizeQuality; fill-rule:evenodd; clip-rule:evenodd"
viewBox="0 0 297 420"
 xmlns:xlink="http://www.w3.org/1999/xlink">
 <defs>
  <style type="text/css">
   <![CDATA[
    .fil0 {fill:#1F1A17;fill-rule:nonzero}
   ]]>
  </style>
 </defs>
 <g id="Слой_x0020_1">
  <metadata id="CorelCorpID_0Corel-Layer"/>
  <path class="fil0" d="M112.189 289.243c-4.425,-1.89 -9.56,0.15 -11.45,4.58 -1.895,4.43 0.155,9.555 4.585,11.46 43.955,18.87 95.23,3.515 120.125,-38.335 2.465,-4.145 1.105,-9.48 -3.025,-11.955 -4.13,-2.455 -9.49,-1.1 -11.945,3.035 -19.85,33.35 -63.255,46.2 -98.29,31.215zm-6.39 -137c-17.53,-6.725 -25.255,-21.135 -22.885,-34.65 1.325,-7.55 -3.775,-7 -7.775,-3.375 -21.125,19.145 -13.46,53.325 -3.05,66.03 8.985,-11.66 20.49,-21.255 33.71,-28.005zm84.485 -0.78c17.53,-6.725 25.255,-21.135 22.885,-34.65 -1.325,-7.55 3.775,-7 7.775,-3.375 21.125,19.145 13.46,53.325 3.05,66.03 -8.985,-11.66 -20.49,-21.255 -33.71,-28.005zm-89.27 54.54l-0.15 0.195 0.005 0c-6.82,9.365 -6.815,24.335 0.01,33.7 3.265,4.485 7.83,7.27 12.905,7.29l0.005 0.005 0.055 0 0.035 0 0 -0.005c12.145,-0.035 18.015,-13.93 18.045,-24.05l0.005 0 0 -0.1 0 -0.05 -0.005 0c0,-0.815 -0.04,-1.625 -0.1,-2.42 -0.34,-0.15 -0.665,-0.3 -1,-0.485l-29.81 -14.08zm91.265 0l0.15 0.195 -0.005 0c6.82,9.365 6.815,24.335 -0.01,33.7 -3.265,4.485 -7.83,7.27 -12.905,7.29l-0.005 0.005 -0.055 0 -0.035 0 0 -0.005c-12.145,-0.035 -18.015,-13.93 -18.045,-24.05l-0.005 0 0 -0.1 0 -0.05 0.005 0c0,-0.815 0.04,-1.625 0.1,-2.42 0.34,-0.15 0.665,-0.3 1,-0.485l29.81 -14.08z"/>
 </g>
</svg>
