<?xml version="1.0" encoding="UTF-8"?>
<!DOCTYPE svg PUBLIC "-//W3C//DTD SVG 1.1//EN" "http://www.w3.org/Graphics/SVG/1.1/DTD/svg11.dtd">
<!-- Creator: CorelDRAW -->
<svg xmlns="http://www.w3.org/2000/svg" xml:space="preserve" width="1000px" height="1000px" style="shape-rendering:geometricPrecision; text-rendering:geometricPrecision; image-rendering:optimizeQuality; fill-rule:evenodd; clip-rule:evenodd"
viewBox="0 0 1000 1000"
 xmlns:xlink="http://www.w3.org/1999/xlink">
 <defs>
  <style type="text/css">
   <![CDATA[
    .fil0 {fill:#1F1A17;fill-rule:nonzero}
   ]]>
  </style>
 </defs>
 <g id="Слой_x0020_1">
  <metadata id="CorelCorpID_0Corel-Layer"/>
  <g id="_45598432">
   <path id="_44978016" class="fil0" d="M5.12126 137.932c-0.262205,-18.0154 14.1177,-32.889 32.1343,-33.1477 308.496,-0.080315 616.991,-0.080315 925.487,-0.00236221 18.0177,0.262205 32.4,15.1335 32.1378,33.15 -2.52756,152.525 -126.313,306.515 -275.111,309.137 -83.7898,1.48701 -163.377,-35.8051 -218.227,-95.4284 -54.8469,59.6233 -134.431,96.9119 -218.219,95.4284 -148.797,-2.62441 -275.675,-156.613 -278.202,-309.137z"/>
   <path id="_85891944" class="fil0" d="M774.278 640.388c15.0201,-25.1103 47.5548,-33.2906 72.665,-18.2705 25.1103,15.0201 33.2906,47.5548 18.2705,72.665l-0.00708662 0.011811c-0.317717,0.531496 -0.647245,1.05 -0.980316,1.56496 -9.96969,17.0303 -20.7166,32.7496 -32.1284,47.0941 -11.8429,14.8843 -25.2544,29.3055 -40.0772,43.1658 -73.6123,68.8264 -171.39,108.657 -274.569,108.657l-0.0318898 0 0 -0.207874c-29.3469,-0.00236221 -58.506,-3.21614 -86.9552,-9.52087 -5.23701,-1.15984 -9.87284,-2.26299 -13.8992,-3.30591 -24.1914,-6.26693 -47.3174,-14.5028 -69.0603,-24.6319 -26.6008,-12.3827 -38.1272,-43.9878 -25.7445,-70.5886 12.3827,-26.6008 43.9878,-38.1272 70.5886,-25.7445 16.9169,7.8815 33.9201,14.0327 50.791,18.4028 3.95906,1.0252 7.35001,1.85197 10.1622,2.47441 21.0095,4.65591 42.5115,7.02993 64.1174,7.03111l0 -0.207874 0.0318898 0c76.3583,0 148.4,-29.1768 202.318,-79.5898 9.97324,-9.32481 19.7646,-19.9914 29.2819,-31.9547 8.91969,-11.2122 16.8484,-22.6666 23.6823,-34.2827 0.48189,-0.925985 0.993308,-1.84252 1.53662,-2.74961l0.00708662 -0.011811z"/>
  </g>
 </g>
</svg>
