<?xml version="1.0" encoding="UTF-8"?>
<!DOCTYPE svg PUBLIC "-//W3C//DTD SVG 1.1//EN" "http://www.w3.org/Graphics/SVG/1.1/DTD/svg11.dtd">
<!-- Creator: CorelDRAW -->
<svg xmlns="http://www.w3.org/2000/svg" xml:space="preserve" width="297mm" height="420mm" style="shape-rendering:geometricPrecision; text-rendering:geometricPrecision; image-rendering:optimizeQuality; fill-rule:evenodd; clip-rule:evenodd"
viewBox="0 0 297 420"
 xmlns:xlink="http://www.w3.org/1999/xlink">
 <defs>
  <style type="text/css">
   <![CDATA[
    .fil1 {fill:#1F1A17}
    .fil0 {fill:#1F1A17;fill-rule:nonzero}
   ]]>
  </style>
 </defs>
 <g id="Слой_x0020_1">
  <metadata id="CorelCorpID_0Corel-Layer"/>
  <g id="_46617464">
   <path id="_100484504" class="fil0" d="M95.9195 274.935c-4.425,1.89 -9.56,-0.15 -11.45,-4.58 -1.895,-4.43 0.155,-9.555 4.585,-11.46 43.955,-18.87 95.23,-3.515 120.125,38.335 2.465,4.145 1.105,9.48 -3.025,11.955 -4.13,2.455 -9.49,1.1 -11.945,-3.035 -19.85,-33.35 -63.255,-46.2 -98.29,-31.215z"/>
   <path id="_104218128" class="fil1" d="M216.064 220.287c9.2203,12.6388 17.2619,41.6282 -2.4952,41.7027 -19.7572,0.0745 -11.1453,-29.8481 -4.3545,-41.4937 2.1674,-3.715 5.0874,-2.6247 6.8497,-0.209z"/>
   <path id="_100666272" class="fil0" d="M170.985 165.045l-0.155 0.205c-7.56,10.39 -8.095,36.57 -0.5,46.995 3.425,4.705 8.21,7.625 13.535,7.645 5.63,0 10.455,-3.235 13.67,-7.66l-0.005 0c5.725,-7.85 5.905,-22.35 5.76,-31.915 -10.865,-4.745 -21.575,-10.205 -32.305,-15.27z"/>
   <path id="_100776344" class="fil0" d="M126.679 165.045l0.16 0.205 -0.005 0c7.56,10.39 8.095,36.57 0.5,46.995 -3.425,4.705 -8.21,7.625 -13.535,7.645 -5.63,0 -10.455,-3.235 -13.67,-7.66l0.005 0c-5.725,-7.85 -5.905,-22.35 -5.76,-31.915 10.865,-4.745 21.575,-10.205 32.305,-15.27z"/>
  </g>
 </g>
</svg>
