<?xml version="1.0" encoding="UTF-8"?>
<!DOCTYPE svg PUBLIC "-//W3C//DTD SVG 1.1//EN" "http://www.w3.org/Graphics/SVG/1.1/DTD/svg11.dtd">
<!-- Creator: CorelDRAW -->
<svg xmlns="http://www.w3.org/2000/svg" xml:space="preserve" width="297mm" height="420mm" style="shape-rendering:geometricPrecision; text-rendering:geometricPrecision; image-rendering:optimizeQuality; fill-rule:evenodd; clip-rule:evenodd"
viewBox="0 0 297 420"
 xmlns:xlink="http://www.w3.org/1999/xlink">
 <defs>
  <style type="text/css">
   <![CDATA[
    .fil0 {fill:#1F1A17;fill-rule:nonzero}
   ]]>
  </style>
 </defs>
 <g id="Слой_x0020_1">
  <metadata id="CorelCorpID_0Corel-Layer"/>
  <path class="fil0" d="M89.1588 295.07c-4.81,0 -8.715,-3.905 -8.715,-8.715 0,-4.81 3.905,-8.715 8.715,-8.715l111.07 0.005c4.81,0 8.715,3.905 8.715,8.715 0,4.81 -3.905,8.715 -8.715,8.715l-111.07 -0.005zm114.615 -106.635c3.225,-3.585 8.755,-3.875 12.34,-0.65 3.57,3.21 3.875,8.705 0.695,12.295 -7.345,8.615 -18.395,13.765 -29.805,13.765 -12.68,0 -24.745,-6.25 -32.025,-16.64 -2.775,-3.945 -1.825,-9.395 2.12,-12.17 3.945,-2.775 9.395,-1.825 12.17,2.12 7.015,10 20.765,12.11 30.41,5.155l0.01 0.01c0.56,-0.41 1.18,-0.9 1.81,-1.475l0.07 -0.07 0.155 -0.165c0.58,-0.535 1.15,-1.11 1.675,-1.715l0.14 -0.17 0.02 -0.035 0.005 0.005 0.165 -0.21 0.045 -0.05zm-83.26 0c3.225,-3.585 8.755,-3.875 12.34,-0.65 3.57,3.21 3.875,8.705 0.695,12.295 -7.345,8.615 -18.395,13.765 -29.805,13.765 -12.68,0 -24.745,-6.25 -32.025,-16.64 -2.775,-3.945 -1.825,-9.395 2.12,-12.17 3.945,-2.775 9.395,-1.825 12.17,2.12 7.015,10 20.765,12.11 30.41,5.155l0.01 0.01c0.56,-0.41 1.18,-0.9 1.81,-1.475l0.07 -0.07 0.155 -0.165c0.58,-0.535 1.15,-1.11 1.675,-1.715l0.14 -0.17 0.02 -0.035 0.005 0.005 0.165 -0.21 0.045 -0.05z"/>
 </g>
</svg>
