<?xml version="1.0" encoding="UTF-8"?>
<!DOCTYPE svg PUBLIC "-//W3C//DTD SVG 1.1//EN" "http://www.w3.org/Graphics/SVG/1.1/DTD/svg11.dtd">
<!-- Creator: CorelDRAW -->
<svg xmlns="http://www.w3.org/2000/svg" xml:space="preserve" width="297mm" height="420mm" style="shape-rendering:geometricPrecision; text-rendering:geometricPrecision; image-rendering:optimizeQuality; fill-rule:evenodd; clip-rule:evenodd"
viewBox="0 0 297 420"
 xmlns:xlink="http://www.w3.org/1999/xlink">
 <defs>
  <style type="text/css">
   <![CDATA[
    .fil0 {fill:#1F1A17;fill-rule:nonzero}
   ]]>
  </style>
 </defs>
 <g id="Слой_x0020_1">
  <metadata id="CorelCorpID_0Corel-Layer"/>
  <g id="_104018768">
   <g>
    <path id="_103041536" class="fil0" d="M85.1617 194.465c-4.81,0 -8.715,-3.905 -8.715,-8.715 0,-4.81 3.905,-8.715 8.715,-8.715l47.29 0.005c4.81,0 8.715,3.905 8.715,8.715 0,4.81 -3.905,8.715 -8.715,8.715l-47.29 -0.005z"/>
    <path id="_47578896" class="fil0" d="M162.007 194.465c-4.81,0 -8.715,-3.905 -8.715,-8.715 0,-4.81 3.905,-8.715 8.715,-8.715l47.29 0.005c4.81,0 8.715,3.905 8.715,8.715 0,4.81 -3.905,8.715 -8.715,8.715l-47.29 -0.005z"/>
   </g>
   <path id="_47724288" class="fil0" d="M215.007 263.015c3.375,-3.435 8.905,-3.475 12.34,-0.1 3.435,3.375 3.475,8.905 0.1,12.34 -0.79,0.805 -1.575,1.58 -2.345,2.32 -21.62,20.785 -49.54,31.34 -77.535,31.575 -27.79,0.24 -55.675,-9.675 -77.58,-29.775l-0.48 -0.48c-0.975,-0.905 -1.775,-1.65 -2.39,-2.255 -3.435,-3.375 -3.475,-8.905 -0.1,-12.34 3.375,-3.435 8.905,-3.475 12.34,-0.1l2.005 1.935 0.455 0.39c18.535,17.01 42.12,25.4 65.61,25.195 23.665,-0.2 47.275,-9.13 65.575,-26.725 0.695,-0.665 1.375,-1.335 2.005,-1.98z"/>
  </g>
 </g>
</svg>
