<?xml version="1.0" encoding="UTF-8"?>
<!DOCTYPE svg PUBLIC "-//W3C//DTD SVG 1.1//EN" "http://www.w3.org/Graphics/SVG/1.1/DTD/svg11.dtd">
<!-- Creator: CorelDRAW -->
<svg xmlns="http://www.w3.org/2000/svg" xml:space="preserve" width="1000px" height="1000px" style="shape-rendering:geometricPrecision; text-rendering:geometricPrecision; image-rendering:optimizeQuality; fill-rule:evenodd; clip-rule:evenodd"
viewBox="0 0 1000 1000"
 xmlns:xlink="http://www.w3.org/1999/xlink">
 <defs>
  <style type="text/css">
   <![CDATA[
    .fil0 {fill:#1F1A17;fill-rule:nonzero}
   ]]>
  </style>
 </defs>
 <g id="Слой_x0020_1">
  <metadata id="CorelCorpID_0Corel-Layer"/>
  <g id="_46819144">
   <g>
    <path id="_45582064" class="fil0" d="M777.058 49.8839c-60.5504,0 -109.66,64.7953 -109.66,144.379 0,79.5048 49.1091,144.3 109.66,144.3 60.5504,0 109.68,-64.7953 109.68,-144.3 0,-79.5839 -49.1292,-144.379 -109.68,-144.379z"/>
    <path id="_86198496" class="fil0" d="M434.126 255.756c29.7201,0 53.8489,-24.1288 53.8489,-53.8489 0,-29.7201 -24.1288,-53.8477 -53.8489,-53.8477l-267.016 0.0307087c-29.7201,0 -53.8489,24.1288 -53.8489,53.8477 0,29.7201 24.1288,53.8489 53.8489,53.8489l267.016 -0.0307087z"/>
   </g>
   <path id="_85988536" class="fil0" d="M806.069 786.408c26.276,-12.2563 57.5823,-1.08071 70.1197,25.1339 12.6118,26.3717 1.45748,57.978 -24.9142,70.5898l-0.0295276 0.0141732 -0.500788 0.231496 0.0850394 0.183071c-9.12875,4.25079 -19.2166,8.54883 -30.2362,12.8835 -10.0665,3.95788 -20.2819,7.6193 -30.626,10.9748 -53.0469,17.2099 -108.832,26.0469 -165.299,26.0469l0 0.207874 -0.0212599 0 0 -0.207874c-64.5083,-0.00236221 -126.809,-11.4496 -184.582,-32.7048 -23.5122,-8.6504 -46.4386,-18.9921 -68.615,-30.9107 -113.28,-60.8788 -203.638,-162.057 -249.645,-288.513 -9.9756,-27.5185 4.24725,-57.9154 31.7658,-67.891 27.5185,-9.9756 57.9154,4.24725 67.891,31.7658 36.8433,101.265 109.318,182.352 200.232,231.21 17.5276,9.4193 35.8748,17.6776 54.9119,24.6815 46.7717,17.2087 96.756,26.4768 148.041,26.478l0 -0.207874 0.0212599 0 0 0.207874c44.8784,0 89.5938,-7.14686 132.495,-21.065 8.31379,-2.69646 16.5898,-5.66575 24.8126,-8.89843 7.26733,-2.85827 15.2752,-6.32481 24.0095,-10.3913l0.0838583 0.180709z"/>
  </g>
 </g>
</svg>
