<?xml version="1.0" encoding="UTF-8"?>
<!DOCTYPE svg PUBLIC "-//W3C//DTD SVG 1.1//EN" "http://www.w3.org/Graphics/SVG/1.1/DTD/svg11.dtd">
<!-- Creator: CorelDRAW -->
<svg xmlns="http://www.w3.org/2000/svg" xml:space="preserve" width="297mm" height="420mm" style="shape-rendering:geometricPrecision; text-rendering:geometricPrecision; image-rendering:optimizeQuality; fill-rule:evenodd; clip-rule:evenodd"
viewBox="0 0 297 420"
 xmlns:xlink="http://www.w3.org/1999/xlink">
 <defs>
  <style type="text/css">
   <![CDATA[
    .fil0 {fill:#1F1A17;fill-rule:nonzero}
   ]]>
  </style>
 </defs>
 <g id="Слой_x0020_1">
  <metadata id="CorelCorpID_0Corel-Layer"/>
  <path class="fil0" d="M99.4894 222.4c-4.83,0 -8.75,-3.92 -8.75,-8.75 0,-4.83 3.92,-8.75 8.75,-8.75l26.565 0c4.83,0 8.75,3.92 8.75,8.75 0,4.83 -3.92,8.75 -8.75,8.75l-26.565 0zm110.205 -103.24l0.01 -0.03c19.06,5.185 30.885,13.75 30.96,24.475l0.035 0.035 0 0.045 0 0.035 -0.035 0.035c-0.055,10.725 -11.905,19.31 -31.005,24.5 -35.26,9.58 -88.03,9.56 -123.27,-0.04l-0.01 0.03c-19.06,-5.185 -30.885,-13.76 -30.96,-24.48l-0.035 -0.035 0 -0.045 0 -0.035 0.035 -0.035c0.055,-10.725 11.905,-19.31 31.005,-24.5 35.27,-9.575 88.02,-9.555 123.27,0.045zm-118.69 16.835c-11.12,3.025 -18.045,5.825 -18.155,7.655l0.035 0 0 0.035 0 0.045 -0.035 0c0.095,1.825 7,4.615 18.11,7.635l0 0.03c32.195,8.765 81.92,8.735 114.12,-0.02 11.13,-3.025 18.055,-5.825 18.15,-7.655l-0.03 0 0 -0.035 0 -0.045 0.03 0c-0.11,-1.82 -7.005,-4.61 -18.105,-7.63l0 -0.03c-32.215,-8.775 -81.89,-8.73 -114.12,0.015zm79.02 86.405c-4.83,0 -8.75,-3.92 -8.75,-8.75 0,-4.83 3.92,-8.75 8.75,-8.75l26.565 0c4.83,0 8.75,3.92 8.75,8.75 0,4.83 -3.92,8.75 -8.75,8.75l-26.565 0zm-88.07 52.895c-2.545,-4.095 -1.295,-9.485 2.8,-12.03 4.095,-2.545 9.485,-1.295 12.03,2.8 0.04,0.065 14.25,24.525 52.27,24.1 37.915,-0.425 50,-23.85 50.035,-23.915 2.355,-4.205 7.685,-5.705 11.89,-3.35 4.205,2.355 5.705,7.685 3.35,11.89 -0.05,0.09 -16.755,32.265 -65.135,32.805 -48.075,0.54 -67.185,-32.215 -67.24,-32.3z"/>
 </g>
</svg>
