<?xml version="1.0" encoding="UTF-8"?>
<!DOCTYPE svg PUBLIC "-//W3C//DTD SVG 1.1//EN" "http://www.w3.org/Graphics/SVG/1.1/DTD/svg11.dtd">
<!-- Creator: CorelDRAW -->
<svg xmlns="http://www.w3.org/2000/svg" xml:space="preserve" width="1000px" height="1000px" style="shape-rendering:geometricPrecision; text-rendering:geometricPrecision; image-rendering:optimizeQuality; fill-rule:evenodd; clip-rule:evenodd"
viewBox="0 0 1000 1000"
 xmlns:xlink="http://www.w3.org/1999/xlink">
 <defs>
  <style type="text/css">
   <![CDATA[
    .fil0 {fill:#1F1A17;fill-rule:nonzero}
   ]]>
  </style>
 </defs>
 <g id="Слой_x0020_1">
  <metadata id="CorelCorpID_0Corel-Layer"/>
  <path class="fil0" d="M779.56 533.489c0,-11.9327 6.83504,-23.0032 17.0693,-28.8933 -1.3748,-2.08583 187.513,-4.04292 208.132,-3.97796 27.2906,0 46.4989,-29.8252 33.065,-55.0595 -26.8028,-50.3268 -44.426,-205.891 21.3697,-219.508 34.2898,-8.68465 47.9847,45.1701 56.628,65.9823 21.1748,51.2315 42.3319,128.264 64.2804,179.152 20.4673,47.4284 37.1929,87.9544 37.2366,103.56l0 253.451c0.0425197,41.191 -35.2571,72.1288 -74.8583,73.6123l-330.502 0.236221c-16.4256,0 -25.6477,-9.22205 -29.9055,-24.0366 -4.40552,-15.026 -6.42756,-33.8386 4.19174,-46.8248 6.34371,-7.78111 15.998,-12.6177 26.1,-12.7039 20.6185,0.923623 37.9465,-17.3067 37.9465,-37.4516 0,-20.6398 -16.7032,-37.3866 -37.3217,-37.4717 -9.11694,0 -17.8878,-3.99922 -24.1205,-10.578 -14.1685,-15.4158 -15.6095,-49.4918 -0.173622,-64.7327 3.43937,-3.37677 7.67363,-6.10512 12.2976,-7.80355 3.82559,-1.39843 7.82481,-2.17205 11.6941,-2.17205 20.5973,0 37.624,-16.8106 37.624,-37.474 0,-20.6374 -16.7032,-37.3855 -37.3217,-37.4717 -28.0347,0 -33.4736,-28.376 -33.4311,-49.8343zm-116.659 -29.4957c-0.0980316,34.5437 8.02796,70.663 29.7626,98.0741 -9.77481,11.0138 -17.6599,23.9433 -22.9961,37.9654 -17.7803,47.0587 -10.1398,104.624 22.852,143.049 -4.48937,5.2878 -17.7827,26.4662 -17.9268,26.4662 -28.4303,57.0532 -9.65552,143.534 45.5552,177.979 17.3929,10.8449 38.6433,17.2004 63.8953,17.224l375.929 -0.266929c90.215,-3.39567 166.119,-75.3213 166.021,-167.623l0 -285.832c0,-48.3461 -30.176,-107.584 -48.6615,-150.47 -24.6461,-57.1288 -48.4441,-114.548 -72.1914,-172.041 -36.9933,-88.93 -90.5233,-137.613 -196.756,-110.64 -111.077,50.1154 -107.78,173.177 -92.3387,264.63l-129.938 -0.533859c-67.6064,-0.217323 -122.965,52.4221 -123.206,122.019z"/>
  <path class="fil0" d="M411.914 769.579c29.302,-2.1626 54.8882,19.8284 57.0508,49.1315 2.1626,29.302 -19.8295,54.8882 -49.1315,57.0508l-2.43662 0.18189 -2.83229 0.183071c-30.1547,1.97953 -60.463,1.24843 -90.2221,-1.82717 -30.7937,-3.19843 -60.7666,-9.01654 -89.6115,-17.1496 -149.16,-42.1559 -276.208,-148.155 -342.366,-294.91 -12.0614,-26.7732 -0.121654,-58.33 26.6528,-70.3914 26.7732,-12.0626 58.33,-0.121654 70.3914,26.6516 53.0008,117.543 154.735,202.465 274.076,236.184 23.5453,6.64016 47.5772,11.361 71.7012,13.8591 23.9114,2.49803 48.7052,3.01536 73.7127,1.30984l0.578741 -0.0921261 2.43662 -0.18189z"/>
  <path class="fil0" d="M29.0988 196.599c-29.302,0 -53.0918,-23.7886 -53.0918,-53.0906 0,-29.302 23.7898,-53.0906 53.0918,-53.0906l288.086 0.0295276c29.302,0 53.0906,23.7898 53.0906,53.0918 0,29.302 -23.7886,53.0906 -53.0906,53.0906l-288.086 -0.0307087z"/>
  <path class="fil0" d="M626.838 10.3429c59.7012,0 108.131,63.8729 108.131,142.337 0,78.4028 -48.43,142.277 -108.131,142.277 -59.7012,0 -108.131,-63.8741 -108.131,-142.277 0,-78.4642 48.43,-142.337 108.131,-142.337z"/>
 </g>
</svg>
