<?xml version="1.0" encoding="UTF-8"?>
<!DOCTYPE svg PUBLIC "-//W3C//DTD SVG 1.1//EN" "http://www.w3.org/Graphics/SVG/1.1/DTD/svg11.dtd">
<!-- Creator: CorelDRAW -->
<svg xmlns="http://www.w3.org/2000/svg" xml:space="preserve" width="297mm" height="420mm" style="shape-rendering:geometricPrecision; text-rendering:geometricPrecision; image-rendering:optimizeQuality; fill-rule:evenodd; clip-rule:evenodd"
viewBox="0 0 297 420"
 xmlns:xlink="http://www.w3.org/1999/xlink">
 <defs>
  <style type="text/css">
   <![CDATA[
    .fil0 {fill:#1F1A17;fill-rule:nonzero}
   ]]>
  </style>
 </defs>
 <g id="Слой_x0020_1">
  <metadata id="CorelCorpID_0Corel-Layer"/>
  <g id="_105284064">
   <path id="_44934288" class="fil0" d="M186.373 167.593c9.8,0 17.75,10.485 17.75,23.365 0,12.87 -7.95,23.355 -17.75,23.355 -9.8,0 -17.75,-10.485 -17.75,-23.355 0,-12.88 7.95,-23.365 17.75,-23.365z"/>
   <path id="_101897376" class="fil0" d="M109.263 167.593c9.8,0 17.75,10.485 17.75,23.365 0,12.87 -7.95,23.355 -17.75,23.355 -9.8,0 -17.75,-10.485 -17.75,-23.355 0,-12.88 7.95,-23.365 17.75,-23.365z"/>
   <path id="_100472120" class="fil0" d="M215.593 267.118c3.375,-3.435 8.905,-3.475 12.34,-0.1 3.435,3.375 3.475,8.905 0.1,12.34 -0.79,0.805 -1.575,1.58 -2.345,2.32 -21.62,20.785 -49.54,31.34 -77.535,31.575 -27.79,0.24 -55.675,-9.675 -77.58,-29.775l-0.48 -0.48c-0.975,-0.905 -1.775,-1.65 -2.39,-2.255 -3.435,-3.375 -3.475,-8.905 -0.1,-12.34 3.375,-3.435 8.905,-3.475 12.34,-0.1l2.005 1.935 0.455 0.39c18.535,17.01 42.12,25.4 65.61,25.195 23.665,-0.2 47.275,-9.13 65.575,-26.725 0.695,-0.665 1.375,-1.335 2.005,-1.98z"/>
  </g>
 </g>
</svg>
