<?xml version="1.0" encoding="UTF-8"?>
<!DOCTYPE svg PUBLIC "-//W3C//DTD SVG 1.1//EN" "http://www.w3.org/Graphics/SVG/1.1/DTD/svg11.dtd">
<!-- Creator: CorelDRAW -->
<svg xmlns="http://www.w3.org/2000/svg" xml:space="preserve" width="297mm" height="420mm" style="shape-rendering:geometricPrecision; text-rendering:geometricPrecision; image-rendering:optimizeQuality; fill-rule:evenodd; clip-rule:evenodd"
viewBox="0 0 297 420"
 xmlns:xlink="http://www.w3.org/1999/xlink">
 <defs>
  <style type="text/css">
   <![CDATA[
    .fil0 {fill:#1F1A17;fill-rule:nonzero}
   ]]>
  </style>
 </defs>
 <g id="Слой_x0020_1">
  <metadata id="CorelCorpID_0Corel-Layer"/>
  <g id="_47853216">
   <path id="_101667480" class="fil0" d="M186.311 167.548c9.8,0 17.75,10.485 17.75,23.365 0,12.87 -7.95,23.355 -17.75,23.355 -9.8,0 -17.75,-10.485 -17.75,-23.355 0,-12.88 7.95,-23.365 17.75,-23.365z"/>
   <path id="_44908248" class="fil0" d="M88.1907 199.618c-4.81,0 -8.715,-3.905 -8.715,-8.715 0,-4.81 3.905,-8.715 8.715,-8.715l47.29 0.005c4.81,0 8.715,3.905 8.715,8.715 0,4.81 -3.905,8.715 -8.715,8.715l-47.29 -0.005z"/>
   <path id="_102609616" class="fil0" d="M189.941 289.258c4.425,-1.89 9.56,0.15 11.45,4.58 1.895,4.43 -0.155,9.555 -4.585,11.46 -43.955,18.87 -95.23,3.515 -120.125,-38.335 -2.465,-4.145 -1.105,-9.48 3.025,-11.955 4.13,-2.455 9.49,-1.1 11.945,3.035 19.85,33.35 63.255,46.2 98.29,31.215z"/>
  </g>
 </g>
</svg>
