<?xml version="1.0" encoding="UTF-8"?>
<!DOCTYPE svg PUBLIC "-//W3C//DTD SVG 1.1//EN" "http://www.w3.org/Graphics/SVG/1.1/DTD/svg11.dtd">
<!-- Creator: CorelDRAW -->
<svg xmlns="http://www.w3.org/2000/svg" xml:space="preserve" width="1000px" height="1000px" style="shape-rendering:geometricPrecision; text-rendering:geometricPrecision; image-rendering:optimizeQuality; fill-rule:evenodd; clip-rule:evenodd"
viewBox="0 0 1000 1000"
 xmlns:xlink="http://www.w3.org/1999/xlink">
 <defs>
  <style type="text/css">
   <![CDATA[
    .fil0 {fill:#1F1A17;fill-rule:nonzero}
   ]]>
  </style>
 </defs>
 <g id="Слой_x0020_1">
  <metadata id="CorelCorpID_0Corel-Layer"/>
  <g id="_46172736">
   <path id="_48057448" class="fil0" d="M257.192 49.9996c60.5504,0 109.66,64.7953 109.66,144.379 0,79.5048 -49.1091,144.3 -109.66,144.3 -60.5504,0 -109.68,-64.7953 -109.68,-144.3 0,-79.5839 49.1292,-144.379 109.68,-144.379z"/>
   <path id="_47690512" class="fil0" d="M733.622 49.9996c60.5493,0 109.68,64.7953 109.68,144.379 0,79.5048 -49.1304,144.3 -109.68,144.3 -60.5516,0 -109.661,-64.7953 -109.661,-144.3 0,-79.5839 49.1091,-144.379 109.661,-144.379z"/>
  </g>
  <path class="fil0" d="M877.039 882.792c25.9004,14.9539 34.787,48.1205 19.8343,74.0221 -14.9539,25.9004 -48.1217,34.787 -74.0221,19.8331l-709.077 -378.736c-25.9004,-14.9539 -34.7882,-48.1217 -19.8343,-74.0221 14.9539,-25.9004 48.1217,-34.7882 74.0221,-19.8343l709.077 378.737z"/>
 </g>
</svg>
