<?xml version="1.0" encoding="UTF-8"?>
<!DOCTYPE svg PUBLIC "-//W3C//DTD SVG 1.1//EN" "http://www.w3.org/Graphics/SVG/1.1/DTD/svg11.dtd">
<!-- Creator: CorelDRAW -->
<svg xmlns="http://www.w3.org/2000/svg" xml:space="preserve" width="1000px" height="1000px" style="shape-rendering:geometricPrecision; text-rendering:geometricPrecision; image-rendering:optimizeQuality; fill-rule:evenodd; clip-rule:evenodd"
viewBox="0 0 1000 1000"
 xmlns:xlink="http://www.w3.org/1999/xlink">
 <defs>
  <style type="text/css">
   <![CDATA[
    .fil0 {fill:#1F1A17;fill-rule:nonzero}
   ]]>
  </style>
 </defs>
 <g id="Слой_x0020_1">
  <metadata id="CorelCorpID_0Corel-Layer"/>
  <g id="_46538096">
   <g>
    <path id="_47200016" class="fil0" d="M365.383 187.904c19.8024,-22.0146 53.7603,-23.7945 75.7737,-3.99213 21.9213,19.7114 23.7945,53.4532 4.26733,75.4985 -45.1016,52.9004 -112.955,84.5245 -183.018,84.5245 -77.8631,0 -151.948,-38.3788 -196.651,-102.178 -17.0398,-24.2244 -11.2063,-57.691 13.0181,-74.7308 24.2244,-17.0398 57.6898,-11.2063 74.7308,13.0181 43.0748,61.4056 127.507,74.3623 186.734,31.6547l0.0614174 0.0614174c3.43819,-2.51811 7.24489,-5.52638 11.1142,-9.05788l0.429922 -0.429922 0.951969 -1.01339c3.56103,-3.28465 7.06064,-6.81615 10.285,-10.5307l0.859843 -1.0441 0.122835 -0.214961 0.0307087 0.0307087 1.01339 -1.28858 0.276378 -0.307087z"/>
    <path id="_46655240" class="fil0" d="M850.465 187.904c19.8036,-22.0146 53.7603,-23.7945 75.7749,-3.99213 21.9213,19.7114 23.7945,53.4532 4.26733,75.4985 -45.1028,52.9004 -112.955,84.5245 -183.019,84.5245 -77.8619,0 -151.948,-38.3788 -196.65,-102.178 -17.041,-24.2244 -11.2075,-57.691 13.0169,-74.7308 24.2244,-17.0398 57.691,-11.2063 74.7308,13.0181 43.076,61.4056 127.508,74.3623 186.734,31.6547l0.0614174 0.0614174c3.43937,-2.51811 7.24607,-5.52638 11.1142,-9.05788l0.429922 -0.429922 0.951969 -1.01339c3.56221,-3.28465 7.06182,-6.81615 10.2862,-10.5307l0.858662 -1.0441 0.122835 -0.214961 0.0307087 0.0307087 1.01339 -1.28858 0.276378 -0.307087z"/>
   </g>
   <path id="_46539120" class="fil0" d="M158.985 842.699c-29.5359,0 -53.5146,-23.9788 -53.5146,-53.5146 0,-29.5359 23.9788,-53.5146 53.5146,-53.5146l682.03 0.0307087c29.5359,0 53.5146,23.9788 53.5146,53.5146 0,29.5359 -23.9788,53.5146 -53.5146,53.5146l-682.03 -0.0307087z"/>
  </g>
 </g>
</svg>
