<?xml version="1.0" encoding="UTF-8"?>
<!DOCTYPE svg PUBLIC "-//W3C//DTD SVG 1.1//EN" "http://www.w3.org/Graphics/SVG/1.1/DTD/svg11.dtd">
<!-- Creator: CorelDRAW -->
<svg xmlns="http://www.w3.org/2000/svg" xml:space="preserve" width="1000px" height="1000px" style="shape-rendering:geometricPrecision; text-rendering:geometricPrecision; image-rendering:optimizeQuality; fill-rule:evenodd; clip-rule:evenodd"
viewBox="0 0 1000 1000"
 xmlns:xlink="http://www.w3.org/1999/xlink">
 <defs>
  <style type="text/css">
   <![CDATA[
    .fil0 {fill:#1F1A17;fill-rule:nonzero}
   ]]>
  </style>
 </defs>
 <g id="Слой_x0020_1">
  <metadata id="CorelCorpID_0Corel-Layer"/>
  <path class="fil0" d="M907.685 171.095c26.5181,-12.6791 37.7315,-44.4839 25.0524,-71.0032 -12.6791,-26.5181 -44.4851,-37.7315 -71.0044,-25.0524l-199.792 103.005 -80.0115 37.7906c-2.25709,1.24725 -4.44803,2.25827 -6.73938,3.26929 -0.405118,5.35748 -0.67441,10.8165 -0.67441,16.3099l-0.034252 0 0 0.335433 0 0.675591 0.034252 0c0.201969,68.2004 39.7618,161.844 121.611,162.079l0 0.034252 0.23504 0 0.370866 0 0.034252 -0.034252c34.2024,-0.134646 64.9666,-18.9036 86.9717,-49.1292 25.7232,-35.2973 37.0677,-82.4079 34.0335,-128.12l89.9127 -50.1603z"/>
  <path class="fil0" d="M92.1024 171.095c-26.5181,-12.6791 -37.7315,-44.4839 -25.0524,-71.0032 12.6791,-26.5181 44.4851,-37.7315 71.0044,-25.0524l199.792 103.005 80.0115 37.7906c2.25709,1.24725 4.44803,2.25827 6.73938,3.26929 0.405118,5.35748 0.67441,10.8165 0.67441,16.3099l0.034252 0 0 0.335433 0 0.675591 -0.034252 0c-0.201969,68.2004 -39.7618,161.844 -121.611,162.079l0 0.034252 -0.23504 0 -0.370866 0 -0.034252 -0.034252c-34.2024,-0.134646 -64.9666,-18.9036 -86.9717,-49.1292 -25.7232,-35.2973 -37.0677,-82.4079 -34.0335,-128.12l-89.9127 -50.1603z"/>
  <path class="fil0" d="M909.303 933.907c20.3977,21.2268 53.7886,21.4854 74.5359,0.617717 20.7473,-20.8477 20.9811,-55.0087 0.603544,-76.2355 -4.77284,-4.98307 -9.50552,-9.76654 -14.1626,-14.3303 -130.564,-128.436 -299.195,-193.649 -468.254,-195.104 -167.83,-1.4752 -336.246,59.7922 -468.526,183.983l-2.90197 2.96929c-5.88308,5.58071 -10.7138,10.1847 -14.4354,13.9311 -20.7473,20.8488 -20.9823,55.0099 -0.603544,76.2367 20.3764,21.2268 53.7874,21.4654 74.5359,0.617717l12.0969 -11.9587 2.74843 -2.41181c111.938,-105.096 254.366,-156.936 396.229,-155.66 142.934,1.23543 285.518,56.4036 396.037,165.128 4.18819,4.10552 8.29725,8.25119 12.0969,12.2173z"/>
 </g>
</svg>
