<?xml version="1.0" encoding="UTF-8"?>
<!DOCTYPE svg PUBLIC "-//W3C//DTD SVG 1.1//EN" "http://www.w3.org/Graphics/SVG/1.1/DTD/svg11.dtd">
<!-- Creator: CorelDRAW -->
<svg xmlns="http://www.w3.org/2000/svg" xml:space="preserve" width="297mm" height="420mm" style="shape-rendering:geometricPrecision; text-rendering:geometricPrecision; image-rendering:optimizeQuality; fill-rule:evenodd; clip-rule:evenodd"
viewBox="0 0 297 420"
 xmlns:xlink="http://www.w3.org/1999/xlink">
 <defs>
  <style type="text/css">
   <![CDATA[
    .fil0 {fill:#1F1A17;fill-rule:nonzero}
   ]]>
  </style>
 </defs>
 <g id="Слой_x0020_1">
  <metadata id="CorelCorpID_0Corel-Layer"/>
  <path class="fil0" d="M162.022 261.471c0,-2.4445 1.4007,-4.7129 3.4973,-5.9197 -0.2819,-0.4273 38.4166,-0.8281 42.6406,-0.8149 1.2245,0 2.4578,-0.2775 3.6118,-0.8941 3.7394,-1.9909 5.1533,-6.6465 3.1624,-10.386 -4.1447,-7.7829 -6.5892,-18.323 -5.4396,-26.8943 0.7928,-5.9197 3.9245,-11.0467 9.8178,-12.7865 7.0253,-1.7794 9.831,9.254 11.6016,13.5177 4.3385,10.4961 8.6726,20.9877 13.1697,31.4134 4.1931,9.7164 7.6199,18.0191 7.6287,21.2168l0 51.9255c0.0088,8.4391 -7.2235,14.7773 -15.3367,15.0812l-67.7115 0.0485c-3.3651,0 -5.2546,-1.8896 -6.1267,-4.9244 -0.903,-3.0787 -1.317,-6.9327 0.8589,-9.5931 1.2993,-1.5945 3.277,-2.5855 5.3471,-2.6031 4.224,0.1894 7.7741,-3.5457 7.7741,-7.6728 0,-4.2284 -3.4224,-7.6595 -7.6464,-7.6771 -1.8675,0 -3.6646,-0.8193 -4.9419,-2.1671 -2.9026,-3.1581 -3.1977,-10.1393 -0.0352,-13.2621 0.7047,-0.6916 1.5724,-1.2509 2.5194,-1.5989 0.784,-0.2863 1.6033,-0.4449 2.3961,-0.4449 4.2196,0 7.708,-3.4443 7.708,-7.6771 0,-4.2284 -3.4224,-7.6596 -7.6464,-7.6772 -5.7435,0 -6.8579,-5.814 -6.8491,-10.2098zm-9.3845 -94.2649c9.8,0 17.75,10.485 17.75,23.365 0,12.87 -7.95,23.355 -17.75,23.355 -9.8,0 -17.75,-10.485 -17.75,-23.355 0,-12.88 7.95,-23.365 17.75,-23.365zm-98.12 32.365c-4.81,0 -8.715,-3.905 -8.715,-8.715 0,-4.81 3.905,-8.715 8.715,-8.715l47.29 0.005c4.81,0 8.715,3.905 8.715,8.715 0,4.81 -3.905,8.715 -8.715,8.715l-47.29 -0.005zm62.84 96.0253c4.81,-0.355 9.01,3.255 9.365,8.065 0.355,4.81 -3.255,9.01 -8.065,9.365l-0.4 0.03 -0.465 0.03c-4.95,0.325 -9.925,0.205 -14.81,-0.3 -5.055,-0.525 -9.975,-1.48 -14.71,-2.815 -24.485,-6.92 -45.34,-24.32 -56.2,-48.41 -1.98,-4.395 -0.02,-9.575 4.375,-11.555 4.395,-1.98 9.575,-0.02 11.555,4.375 8.7,19.295 25.4,33.235 44.99,38.77 3.865,1.09 7.81,1.865 11.77,2.275 3.925,0.41 7.995,0.495 12.1,0.215l0.095 -0.015 0.4 -0.03zm29.3102 -34.1871c-0.0176,6.2721 1.4579,12.8306 5.4044,17.8077 -1.775,1.9997 -3.2065,4.3473 -4.1755,6.8932 -3.2286,8.5448 -1.8411,18.9969 4.1491,25.9737 -0.8149,0.9602 -3.2286,4.8054 -3.255,4.8054 -5.1621,10.3596 -1.753,26.0619 8.2718,32.3163 3.1581,1.9689 7.0165,3.1229 11.6016,3.1273l68.2577 -0.0485c16.3806,-0.6166 30.1625,-13.6762 30.1448,-30.4355l0 -51.8991c0,-8.7783 -5.4792,-19.5343 -8.8355,-27.3215 -4.4751,-10.3728 -8.796,-20.7984 -13.108,-31.2373 -6.717,-16.1471 -15.7243,-30.6822 -35.7255,-20.0892 -8.7166,4.061 -14.3545,17.3804 -15.1341,23.2165 -1.11,8.2718 0.2158,17.2351 2.5194,24.8329l-27.7444 -0.0969c-12.2755,-0.0396 -22.3267,9.5183 -22.3708,22.155z"/>
 </g>
</svg>
