<?xml version="1.0" encoding="UTF-8"?>
<!DOCTYPE svg PUBLIC "-//W3C//DTD SVG 1.1//EN" "http://www.w3.org/Graphics/SVG/1.1/DTD/svg11.dtd">
<!-- Creator: CorelDRAW -->
<svg xmlns="http://www.w3.org/2000/svg" xml:space="preserve" width="297mm" height="420mm" style="shape-rendering:geometricPrecision; text-rendering:geometricPrecision; image-rendering:optimizeQuality; fill-rule:evenodd; clip-rule:evenodd"
viewBox="0 0 297 420"
 xmlns:xlink="http://www.w3.org/1999/xlink">
 <defs>
  <style type="text/css">
   <![CDATA[
    .fil0 {fill:#1F1A17;fill-rule:nonzero}
   ]]>
  </style>
 </defs>
 <g id="Слой_x0020_1">
  <metadata id="CorelCorpID_0Corel-Layer"/>
  <path class="fil0" d="M90.5166 280.143c-4.81,0 -8.715,-3.905 -8.715,-8.715 0,-4.81 3.905,-8.715 8.715,-8.715 39.11,-0.05 78.23,-0.11 117.34,-0.16 4.81,0 8.715,3.905 8.715,8.715 0,4.81 -3.905,8.715 -8.715,8.715l-22.855 0.045 0 13.12 0 0.035 -0.035 0c-0.01,9.105 -3.735,17.385 -9.73,23.365 -5.955,5.95 -14.195,9.65 -23.27,9.675l0 0.035 -0.075 0 -5.41 0 -0.035 0 0 -0.035c-9.1,-0.01 -17.385,-3.735 -23.365,-9.73 -5.945,-5.95 -9.65,-14.195 -9.675,-23.27l-0.035 0 0 -0.075 0 -13.02 -22.855 0.015zm20.115 -112.55c9.8,0 17.75,10.485 17.75,23.365 0,12.87 -7.95,23.355 -17.75,23.355 -9.8,0 -17.75,-10.485 -17.75,-23.355 0,-12.88 7.95,-23.365 17.75,-23.365zm77.11 0c9.8,0 17.75,10.485 17.75,23.365 0,12.87 -7.95,23.355 -17.75,23.355 -9.8,0 -17.75,-10.485 -17.75,-23.355 0,-12.88 7.95,-23.365 17.75,-23.365zm-20.24 125.555l0 -12.875 -36.63 0 0 12.875 0 0.075 -0.035 0c0.01,4.235 1.78,8.13 4.615,10.97 6.34,6.36 21.145,6.315 27.485,-0.015 2.835,-2.825 4.595,-6.73 4.6,-10.995l-0.035 0 0 -0.035z"/>
 </g>
</svg>
