<?xml version="1.0" encoding="UTF-8"?>
<!DOCTYPE svg PUBLIC "-//W3C//DTD SVG 1.1//EN" "http://www.w3.org/Graphics/SVG/1.1/DTD/svg11.dtd">
<!-- Creator: CorelDRAW -->
<svg xmlns="http://www.w3.org/2000/svg" xml:space="preserve" width="1000px" height="1000px" style="shape-rendering:geometricPrecision; text-rendering:geometricPrecision; image-rendering:optimizeQuality; fill-rule:evenodd; clip-rule:evenodd"
viewBox="0 0 1000 1000"
 xmlns:xlink="http://www.w3.org/1999/xlink">
 <defs>
  <style type="text/css">
   <![CDATA[
    .fil0 {fill:#1F1A17;fill-rule:nonzero}
   ]]>
  </style>
 </defs>
 <g id="Слой_x0020_1">
  <metadata id="CorelCorpID_0Corel-Layer"/>
  <path class="fil0" d="M1199.29 485.977l-73.2071 0 -41.0469 0 -490.926 0c-23.4473,0 -42.4784,19.0299 -42.4784,42.4784l0.170079 3.15473 -0.36378 267.37 -0.170079 0 0 0.170079 0.170079 0c0.0484252,56.2406 23.1319,107.482 60.0756,144.499l0.0980316 0.0732284 0.0720473 0.0968505 0.218504 0.193701c36.9685,36.7985 87.893,59.6634 143.819,59.7851l0 0.170079 0.36378 0 216.688 0 1.60158 0c1.65,0 3.30118,-0.145276 4.90276,-0.315355 13.3748,-0.413386 26.3362,-2.06339 38.6918,-4.85433 14.1756,-3.22914 27.6473,-7.84016 40.2449,-13.6417 53.2075,-24.5894 94.3749,-71.5583 111.196,-128.673l29.8796 0 0.170079 0 0 -0.170079c35.2453,-0.0484252 67.3099,-14.4662 90.4666,-37.6713 22.9382,-22.963 37.2591,-54.7855 37.3807,-89.7875l0 -0.168898 0.170079 0 0 -0.364961 0 -114.181 0 -0.170079 -0.170079 0c-0.0484252,-35.1721 -14.4425,-67.2367 -37.5744,-90.345l0.0720473 -0.0732284c-22.9618,-22.9618 -54.8327,-37.2591 -89.98,-37.4044l-0.170079 0 0 -0.170079 -0.364961 0zm-86.9682 97.7824l67.8119 0 0.337796 0 0 -0.155906c10.702,0.0673229 20.5949,4.60867 27.8799,11.8937l0.0897639 -0.0897639 0.0673229 0.0897639c7.2626,7.24016 11.8051,17.2453 11.8264,28.128l-0.155906 0 0 0.157087 0 105.765 0 0.337796 0.155906 0c-0.0897639,10.7917 -4.65355,20.7756 -11.8713,28.0146 -7.23898,7.26379 -17.2677,11.8051 -28.1729,11.8264l0 -0.155906 -0.157087 0 -59.876 0 0 0.111024c-20.0315,0 -37.2107,15.3579 -39.0319,35.7059 -3.70985,40.1575 -29.2524,74.4001 -64.6418,90.7465 -6.99213,3.21496 -14.2784,5.75552 -21.6295,7.41969 -6.72284,1.50591 -13.6039,2.45079 -20.4827,2.69764l-2.67638 -0.0673229 -1.48347 0 -200.717 0 -0.337796 0 0 0.157087c-29.9492,-0.0448819 -57.3343,-12.3662 -77.3682,-32.1307l-0.742914 -0.673229c-20.1449,-20.1236 -32.7142,-47.9363 -32.7355,-78.3804l0.155906 0 0 -0.157087 -0.155906 0 0.290551 -211.24 415.598 0 38.0221 0zm-11.3504 146.737l0 -93.7418 31.6288 0c20.4378,0 37.1374,16.7504 37.1374,37.2107l0 19.3441c0,20.4603 -16.702,37.187 -37.1374,37.187l-31.6288 0z"/>
  <path class="fil0" d="M858.385 55.3193c15.9449,-23.504 47.9528,-29.6457 71.4567,-13.7008 23.504,15.9449 29.6457,47.9528 13.7008,71.4567 -19.5473,28.8189 -3.15945,64.1634 12.0177,96.7914 31.3878,67.5001 60.0886,129.36 -26.4567,195.059 -22.6181,17.1555 -54.9213,12.7264 -72.0768,-9.89174 -17.1555,-22.6181 -12.7264,-54.9213 9.89174,-72.0768 20.2854,-15.3839 8.17914,-41.5158 -5.01969,-69.9213 -26.8996,-57.8445 -55.9548,-120.413 -3.51378,-197.717z"/>
  <path class="fil0" d="M2.48977 755.063c-29.302,0 -53.0918,-23.7886 -53.0918,-53.0906 0,-29.302 23.7898,-53.0906 53.0918,-53.0906l288.086 0.0295276c29.302,0 53.0906,23.7898 53.0906,53.0918 0,29.302 -23.7886,53.0906 -53.0906,53.0906l-288.086 -0.0307087z"/>
  <g id="_47678408">
   <path id="_84176832" class="fil0" d="M11.915 305.988c19.8024,22.0146 53.7603,23.7945 75.7737,3.99213 21.9213,-19.7114 23.7945,-53.4532 4.26733,-75.4985 -45.1016,-52.9004 -112.955,-84.5245 -183.018,-84.5245 -77.8631,0 -151.948,38.3788 -196.651,102.178 -17.0398,24.2244 -11.2063,57.691 13.0181,74.7308 24.2244,17.0398 57.6898,11.2063 74.7308,-13.0181 43.0748,-61.4056 127.507,-74.3623 186.734,-31.6547l0.0614174 -0.0614174c3.43819,2.51811 7.24489,5.52638 11.1142,9.05788l0.429922 0.429922 0.951969 1.01339c3.56103,3.28465 7.06064,6.81615 10.285,10.5307l0.859843 1.0441 0.122835 0.214961 0.0307087 -0.0307087 1.01339 1.28858 0.276378 0.307087z"/>
   <path id="_45078728" class="fil0" d="M496.998 305.988c19.8036,22.0146 53.7603,23.7945 75.7749,3.99213 21.9213,-19.7114 23.7945,-53.4532 4.26733,-75.4985 -45.1028,-52.9004 -112.955,-84.5245 -183.019,-84.5245 -77.8619,0 -151.948,38.3788 -196.65,102.178 -17.041,24.2244 -11.2075,57.691 13.0169,74.7308 24.2244,17.0398 57.691,11.2063 74.7308,-13.0181 43.076,-61.4056 127.508,-74.3623 186.734,-31.6547l0.0614174 -0.0614174c3.43937,2.51811 7.24607,5.52638 11.1142,9.05788l0.429922 0.429922 0.951969 1.01339c3.56221,3.28465 7.06182,6.81615 10.2862,10.5307l0.858662 1.0441 0.122835 0.214961 0.0307087 -0.0307087 1.01339 1.28858 0.276378 0.307087z"/>
  </g>
 </g>
</svg>
