<?xml version="1.0" encoding="UTF-8"?>
<!DOCTYPE svg PUBLIC "-//W3C//DTD SVG 1.1//EN" "http://www.w3.org/Graphics/SVG/1.1/DTD/svg11.dtd">
<!-- Creator: CorelDRAW -->
<svg xmlns="http://www.w3.org/2000/svg" xml:space="preserve" width="1000px" height="1000px" style="shape-rendering:geometricPrecision; text-rendering:geometricPrecision; image-rendering:optimizeQuality; fill-rule:evenodd; clip-rule:evenodd"
viewBox="0 0 1000 1000"
 xmlns:xlink="http://www.w3.org/1999/xlink">
 <defs>
  <style type="text/css">
   <![CDATA[
    .fil0 {fill:#1F1A17;fill-rule:nonzero}
   ]]>
  </style>
 </defs>
 <g id="Слой_x0020_1">
  <metadata id="CorelCorpID_0Corel-Layer"/>
  <path class="fil0" d="M181.108 635.253c56.7745,114.064 173.283,192.399 303.081,196.43 140.323,4.37953 269.266,-75.7501 330.388,-196.43l-633.468 0zm304.924 301.872c-183.897,-3.24095 -418.706,-153.786 -422.018,-354.493 -0.432284,-29.1012 22.8047,-53.113 51.9,-53.5465l764.969 -0.207874c29.2181,0 52.9241,23.7201 52.9241,52.9382 -5.45079,198.806 -261.632,358.614 -447.775,355.309z"/>
  <g id="_46839928">
   <path id="_45966424" class="fil0" d="M260.695 48.6874c60.5504,0 109.66,64.7953 109.66,144.379 0,79.5048 -49.1091,144.3 -109.66,144.3 -60.5504,0 -109.68,-64.7953 -109.68,-144.3 0,-79.5839 49.1292,-144.379 109.68,-144.379z"/>
   <path id="_45571152" class="fil0" d="M737.125 48.6874c60.5493,0 109.68,64.7953 109.68,144.379 0,79.5048 -49.1304,144.3 -109.68,144.3 -60.5516,0 -109.661,-64.7953 -109.661,-144.3 0,-79.5839 49.1091,-144.379 109.661,-144.379z"/>
  </g>
 </g>
</svg>
