<?xml version="1.0" encoding="UTF-8"?>
<!DOCTYPE svg PUBLIC "-//W3C//DTD SVG 1.1//EN" "http://www.w3.org/Graphics/SVG/1.1/DTD/svg11.dtd">
<!-- Creator: CorelDRAW -->
<svg xmlns="http://www.w3.org/2000/svg" xml:space="preserve" width="297mm" height="420mm" style="shape-rendering:geometricPrecision; text-rendering:geometricPrecision; image-rendering:optimizeQuality; fill-rule:evenodd; clip-rule:evenodd"
viewBox="0 0 297 420"
 xmlns:xlink="http://www.w3.org/1999/xlink">
 <defs>
  <style type="text/css">
   <![CDATA[
    .fil0 {fill:#1F1A17;fill-rule:nonzero}
   ]]>
  </style>
 </defs>
 <g id="Слой_x0020_1">
  <metadata id="CorelCorpID_0Corel-Layer"/>
  <path class="fil0" d="M204.242 261.522l-115.235 0c4.625,27.175 28.22,47.6 55.315,48.44 28.95,0.905 54.97,-19.95 59.92,-48.44zm-122.268 -57.09c0,4.83 -3.92,8.75 -8.75,8.75 -4.83,0 -8.75,-3.92 -8.75,-8.75l0 -0.035 0.035 0c0.0199,-21.6019 17.5783,-39.1489 39.16,-39.2l0 -0.035 0.075 0 0.035 0 0 0.035c21.6042,0.0199 39.1502,17.5807 39.2,39.16l0.035 0 0 0.075c0,4.83 -3.92,8.75 -8.75,8.75 -4.83,0 -8.75,-3.92 -8.75,-8.75l0 -0.075 0.035 0c-0.02,-11.9184 -9.8653,-21.7201 -21.77,-21.73l0 0.035 -0.035 0 -0.075 0 0 -0.035c-11.8952,0.0205 -21.7201,9.8613 -21.73,21.77l0.035 0 0 0.035zm85.84 0c0,4.83 -3.92,8.75 -8.75,8.75 -4.83,0 -8.75,-3.92 -8.75,-8.75l0 -0.035 0.035 0c0.0199,-21.602 17.5784,-39.1489 39.16,-39.2l0 -0.035 0.075 0 0.035 0 0 0.035c21.604,0.0199 39.1502,17.5808 39.2,39.16l0.035 0 0 0.075c0,4.83 -3.92,8.75 -8.75,8.75 -4.83,0 -8.75,-3.92 -8.75,-8.75l0 -0.075 0.035 0c-0.02,-11.9373 -9.8408,-21.7201 -21.77,-21.73l0 0.035 -0.035 0 -0.075 0 0 -0.035c-11.8619,0.0203 -21.7201,9.9137 -21.73,21.77l0.035 0 0 0.035zm-97.0475 48.475c-0.07,-4.81 3.77,-8.78 8.58,-8.85l134.465 -0.035c4.83,0 8.75,3.92 8.75,8.75 0,41.575 -37.1,75.345 -77.935,74.62 -39.725,-0.7 -73.185,-33.765 -73.86,-74.485z"/>
 </g>
</svg>
