<?xml version="1.0" encoding="UTF-8"?>
<!DOCTYPE svg PUBLIC "-//W3C//DTD SVG 1.1//EN" "http://www.w3.org/Graphics/SVG/1.1/DTD/svg11.dtd">
<!-- Creator: CorelDRAW -->
<svg xmlns="http://www.w3.org/2000/svg" xml:space="preserve" width="297mm" height="420mm" style="shape-rendering:geometricPrecision; text-rendering:geometricPrecision; image-rendering:optimizeQuality; fill-rule:evenodd; clip-rule:evenodd"
viewBox="0 0 297 420"
 xmlns:xlink="http://www.w3.org/1999/xlink">
 <defs>
  <style type="text/css">
   <![CDATA[
    .fil0 {fill:#1F1A17;fill-rule:nonzero}
   ]]>
  </style>
 </defs>
 <g id="Слой_x0020_1">
  <metadata id="CorelCorpID_0Corel-Layer"/>
  <g id="_101381920">
   <path id="_101770656" class="fil0" d="M204.788 261.821l-115.235 0c4.625,27.175 28.22,47.6 55.315,48.44 28.95,0.905 54.97,-19.95 59.92,-48.44zm-133.475 -8.615c-0.07,-4.81 3.77,-8.78 8.58,-8.85l134.465 -0.035c4.83,0 8.75,3.92 8.75,8.75 0,41.575 -37.1,75.345 -77.935,74.62 -39.725,-0.7 -73.185,-33.765 -73.86,-74.485z"/>
   <g>
    <path id="_102618448" class="fil0" d="M185.766 167.593c9.8,0 17.75,10.485 17.75,23.365 0,12.87 -7.95,23.355 -17.75,23.355 -9.8,0 -17.75,-10.485 -17.75,-23.355 0,-12.88 7.95,-23.365 17.75,-23.365z"/>
    <path id="_48067080" class="fil0" d="M108.656 167.593c9.8,0 17.75,10.485 17.75,23.365 0,12.87 -7.95,23.355 -17.75,23.355 -9.8,0 -17.75,-10.485 -17.75,-23.355 0,-12.88 7.95,-23.365 17.75,-23.365z"/>
   </g>
  </g>
 </g>
</svg>
