<?xml version="1.0" encoding="UTF-8"?>
<!DOCTYPE svg PUBLIC "-//W3C//DTD SVG 1.1//EN" "http://www.w3.org/Graphics/SVG/1.1/DTD/svg11.dtd">
<!-- Creator: CorelDRAW -->
<svg xmlns="http://www.w3.org/2000/svg" xml:space="preserve" width="297mm" height="420mm" style="shape-rendering:geometricPrecision; text-rendering:geometricPrecision; image-rendering:optimizeQuality; fill-rule:evenodd; clip-rule:evenodd"
viewBox="0 0 297 420"
 xmlns:xlink="http://www.w3.org/1999/xlink">
 <defs>
  <style type="text/css">
   <![CDATA[
    .fil0 {fill:#1F1A17;fill-rule:nonzero}
   ]]>
  </style>
 </defs>
 <g id="Слой_x0020_1">
  <metadata id="CorelCorpID_0Corel-Layer"/>
  <path class="fil0" d="M74.9137 153.399c-3.415,3.415 -8.955,3.415 -12.37,0 -3.415,-3.415 -3.415,-8.955 0,-12.37l0.05 -0.05c1.375,-1.375 2.895,-2.815 4.525,-4.285l0.53 -0.42c1.4,-1.26 2.79,-2.47 4.145,-3.585 8.245,-6.76 17.27,-12.475 26.82,-16.92 4.375,-2.035 9.585,-0.135 11.62,4.24 2.035,4.375 0.135,9.585 -4.24,11.62 -8.355,3.89 -16.135,8.795 -23.13,14.53 -1.26,1.03 -2.445,2.065 -3.57,3.07l-0.06 0.06 -0.425 0.395c-1.22,1.1 -2.51,2.33 -3.845,3.665l-0.05 0.05z"/>
  <path class="fil0" d="M189.285 289.161c4.1656,2.405 5.5949,7.7393 3.1899,11.9049 -2.405,4.1656 -7.7393,5.5949 -11.9049,3.1899l-96.1869 -55.5393c-4.1656,-2.405 -5.5949,-7.7394 -3.1899,-11.905 2.405,-4.1655 7.7393,-5.5949 11.9049,-3.1899l96.1869 55.5394z"/>
  <path class="fil0" d="M235.159 141.029c3.415,3.415 3.415,8.955 0,12.37 -3.415,3.415 -8.955,3.415 -12.37,0l-0.05 -0.05c-1.335,-1.335 -2.62,-2.56 -3.845,-3.665l-0.385 -0.375c-1.145,-1.03 -2.375,-2.09 -3.67,-3.15 -6.995,-5.735 -14.775,-10.64 -23.13,-14.53 -4.375,-2.035 -6.275,-7.245 -4.24,-11.62 2.035,-4.375 7.245,-6.275 11.62,-4.24 9.55,4.445 18.575,10.16 26.82,16.92 1.35,1.11 2.735,2.31 4.13,3.555l0.545 0.45c1.63,1.47 3.15,2.91 4.525,4.285l0.05 0.05z"/>
  <path class="fil0" d="M108.893 167.593c9.8,0 17.75,10.485 17.75,23.365 0,12.87 -7.95,23.355 -17.75,23.355 -9.8,0 -17.75,-10.485 -17.75,-23.355 0,-12.88 7.95,-23.365 17.75,-23.365zm77.11 0c9.8,0 17.75,10.485 17.75,23.365 0,12.87 -7.95,23.355 -17.75,23.355 -9.8,0 -17.75,-10.485 -17.75,-23.355 0,-12.88 7.95,-23.365 17.75,-23.365z"/>
 </g>
</svg>
