<?xml version="1.0" encoding="UTF-8"?>
<!DOCTYPE svg PUBLIC "-//W3C//DTD SVG 1.1//EN" "http://www.w3.org/Graphics/SVG/1.1/DTD/svg11.dtd">
<!-- Creator: CorelDRAW -->
<svg xmlns="http://www.w3.org/2000/svg" xml:space="preserve" width="297mm" height="420mm" style="shape-rendering:geometricPrecision; text-rendering:geometricPrecision; image-rendering:optimizeQuality; fill-rule:evenodd; clip-rule:evenodd"
viewBox="0 0 297 420"
 xmlns:xlink="http://www.w3.org/1999/xlink">
 <defs>
  <style type="text/css">
   <![CDATA[
    .fil0 {fill:#1F1A17;fill-rule:nonzero}
   ]]>
  </style>
 </defs>
 <g id="Слой_x0020_1">
  <metadata id="CorelCorpID_0Corel-Layer"/>
  <g id="_104288704">
   <path id="_101479864" class="fil0" d="M191.029 191.802l0.15 0.195 -0.005 0c6.82,9.365 6.815,24.335 -0.01,33.7 -3.265,4.485 -7.83,7.27 -12.905,7.29l-0.005 0.005 -0.055 0 -0.035 0 0 -0.005c-12.145,-0.035 -18.015,-13.93 -18.045,-24.05l-0.005 0 0 -0.1 0 -0.05 0.005 0c0,-0.815 0.04,-1.625 0.1,-2.42 0.34,-0.15 0.665,-0.3 1,-0.485l29.81 -14.08z"/>
   <path id="_47538320" class="fil0" d="M99.7637 191.802l-0.15 0.195 0.005 0c-6.82,9.365 -6.815,24.335 0.01,33.7 3.265,4.485 7.83,7.27 12.905,7.29l0.005 0.005 0.055 0 0.035 0 0 -0.005c12.145,-0.035 18.015,-13.93 18.045,-24.05l0.005 0 0 -0.1 0 -0.05 -0.005 0c0,-0.815 -0.04,-1.625 -0.1,-2.42 -0.34,-0.15 -0.665,-0.3 -1,-0.485l-29.81 -14.08z"/>
   <path id="_103954912" class="fil0" d="M213.644 150.622c4.34,-2.075 9.545,-0.24 11.62,4.1 2.075,4.34 0.24,9.545 -4.1,11.62l-57.005 27.415c-4.34,2.075 -9.545,0.24 -11.62,-4.1 -2.075,-4.34 -0.24,-9.545 4.1,-11.62l57.005 -27.415z"/>
   <path id="_101086744" class="fil0" d="M69.6287 166.342c-4.34,-2.075 -6.175,-7.28 -4.1,-11.62 2.075,-4.34 7.28,-6.175 11.62,-4.1l57.005 27.415c4.34,2.075 6.175,7.28 4.1,11.62 -2.075,4.34 -7.28,6.175 -11.62,4.1l-57.005 -27.415z"/>
   <path id="_102305216" class="fil0" d="M214.289 308.167c3.375,3.435 8.905,3.475 12.34,0.1 3.435,-3.375 3.475,-8.905 0.1,-12.34 -0.79,-0.805 -1.575,-1.58 -2.345,-2.32 -21.62,-20.785 -49.54,-31.34 -77.535,-31.575 -27.79,-0.24 -55.675,9.675 -77.58,29.775l-0.48 0.48c-0.975,0.905 -1.775,1.65 -2.39,2.255 -3.435,3.375 -3.475,8.905 -0.1,12.34 3.375,3.435 8.905,3.475 12.34,0.1l2.005 -1.935 0.455 -0.39c18.535,-17.01 42.12,-25.4 65.61,-25.195 23.665,0.2 47.275,9.13 65.575,26.725 0.695,0.665 1.375,1.335 2.005,1.98z"/>
  </g>
 </g>
</svg>
