<?xml version="1.0" encoding="UTF-8"?>
<!DOCTYPE svg PUBLIC "-//W3C//DTD SVG 1.1//EN" "http://www.w3.org/Graphics/SVG/1.1/DTD/svg11.dtd">
<!-- Creator: CorelDRAW -->
<svg xmlns="http://www.w3.org/2000/svg" xml:space="preserve" width="297mm" height="420mm" style="shape-rendering:geometricPrecision; text-rendering:geometricPrecision; image-rendering:optimizeQuality; fill-rule:evenodd; clip-rule:evenodd"
viewBox="0 0 297 420"
 xmlns:xlink="http://www.w3.org/1999/xlink">
 <defs>
  <style type="text/css">
   <![CDATA[
    .fil0 {fill:#1F1A17;fill-rule:nonzero}
   ]]>
  </style>
 </defs>
 <g id="Слой_x0020_1">
  <metadata id="CorelCorpID_0Corel-Layer"/>
  <path class="fil0" d="M142.364 189.491c-0.0062,0.0074 -0.0172,0.0083 -0.0246,0.0021 -0.0073,-0.0063 -0.0082,-0.0173 -0.002,-0.0246l0.0001 -0.0002c0.0003,-0.0003 0.0006,-0.0006 0.0009,-0.0009l0.0001 -0.0002c0.0039,-0.0045 0.0077,-0.0088 0.0114,-0.0126 0.0043,-0.0043 0.0088,-0.0086 0.0135,-0.0128 0.0238,-0.0211 0.0515,-0.0376 0.0815,-0.0486 0.009,-0.0032 0.019,0.0014 0.0223,0.0105 0.0033,0.0091 -0.0014,0.0191 -0.0104,0.0224 -0.0259,0.0094 -0.0498,0.0236 -0.0703,0.0418 -0.0038,0.0034 -0.0077,0.0071 -0.0115,0.011 -0.0037,0.0038 -0.007,0.0074 -0.0101,0.011l-0.0008 0.001 -0.0001 0.0001zm4.4541 42.2443l5.41 0 0.035 0 0 0.035c9.1,0.01 17.385,3.735 23.365,9.73 5.945,5.95 9.65,14.195 9.675,23.27l0.035 0 0 0.075 0 26.165 0 0.035 -0.035 0c-0.01,9.1 -3.745,17.39 -9.73,23.365 -5.955,5.95 -14.195,9.65 -23.27,9.675l0 0.035 -0.075 0 -5.41 0 -0.035 0 0 -0.035c-9.11,-0.01 -17.39,-3.745 -23.365,-9.73 -5.95,-5.955 -9.65,-14.195 -9.675,-23.27l-0.035 0 0 -0.075 0 -26.165 0 -0.035 0.035 0c0.01,-9.105 3.735,-17.385 9.73,-23.365 5.955,-5.95 14.195,-9.65 23.27,-9.675l0 -0.035 0.075 0zm5.41 17.5l-5.41 0 -0.075 0 0 -0.035c-4.235,0.01 -8.13,1.78 -10.97,4.615 -2.835,2.825 -4.595,6.73 -4.6,10.995l0.035 0 0 0.035 0 26.165 0 0.075 -0.035 0c0.01,4.24 1.78,8.13 4.615,10.97 2.825,2.83 6.73,4.595 10.995,4.6l0 -0.035 0.035 0 5.41 0 0.075 0 0 0.035c4.24,-0.01 8.13,-1.78 10.97,-4.615 2.83,-2.825 4.595,-6.73 4.6,-10.995l-0.035 0 0 -0.035 0 -26.165 0 -0.075 0.035 0c-0.01,-4.235 -1.78,-8.13 -4.615,-10.97 -2.825,-2.835 -6.73,-4.595 -10.995,-4.6l0 0.035 -0.035 0zm33.01 -81.87c-9.8,0 -17.75,10.485 -17.75,23.365 0,12.87 7.95,23.355 17.75,23.355 9.8,0 17.75,-10.485 17.75,-23.355 0,-12.88 -7.95,-23.365 -17.75,-23.365zm-76.065 0c-9.8,0 -17.75,10.485 -17.75,23.365 0,12.87 7.95,23.355 17.75,23.355 9.8,0 17.75,-10.485 17.75,-23.355 0,-12.88 -7.95,-23.365 -17.75,-23.365zm126.625 -1.63c-6.865,6.865 -12.595,-0.485 -17.285,-4.62 -10.25,-9.045 -22.105,-16.13 -34.975,-20.805 -4.53,-1.64 -6.87,-6.65 -5.23,-11.18 1.64,-4.53 6.65,-6.87 11.18,-5.23 14.845,5.395 28.73,13.64 40.575,24.085 4.83,4.255 12.8,10.685 5.735,17.75zm-162 -14.905c-3.11,3.68 -8.625,4.135 -12.305,1.025 -3.68,-3.11 -4.135,-8.625 -1.025,-12.305 4.02,-4.745 8.365,-9.225 13.025,-13.345 11.895,-10.54 25.725,-18.805 40.72,-24.26 4.53,-1.64 9.54,0.7 11.18,5.23 1.64,4.53 -0.7,9.54 -5.23,11.18 -12.95,4.71 -24.88,11.835 -35.12,20.91 -4.005,3.54 -7.86,7.425 -11.245,11.565zm68.712 38.8225l0.0108 0 0.0001 0 0 0.0001c0.0182,0 0.0347,0.0075 0.0467,0.0195 0.0119,0.0119 0.0193,0.0283 0.0193,0.0465l0.0001 0 0 0.0001 0 0.0524 0 0 -0.0001 0c0,0.0182 -0.0074,0.0348 -0.0194,0.0468 -0.0119,0.0119 -0.0284,0.0193 -0.0466,0.0193l0 0.0001 -0.0001 0 -0.0108 0 -0.0001 0 0 -0.0001c-0.0182,0 -0.0348,-0.0075 -0.0467,-0.0194 -0.0119,-0.0119 -0.0193,-0.0284 -0.0194,-0.0466l0 0 0 -0.0001 0 -0.0524 0 0 0 0c0,-0.0182 0.0075,-0.0348 0.0195,-0.0468 0.0119,-0.0119 0.0284,-0.0193 0.0465,-0.0193l0 -0.0001 0.0002 0zm0.0108 0.035l-0.0108 0 -0.0002 0 0 0c-0.0084,0 -0.0162,0.0035 -0.0219,0.0092 -0.0057,0.0056 -0.0092,0.0134 -0.0092,0.022l0.0001 0 0 0 0 0.0524 0 0.0001 -0.0001 0c0,0.0085 0.0035,0.0163 0.0092,0.022 0.0057,0.0056 0.0135,0.0092 0.022,0.0092l0 -0.0001 0.0001 0 0.0108 0 0.0001 0 0 0.0001c0.0085,-0.0001 0.0163,-0.0036 0.022,-0.0093 0.0056,-0.0056 0.0092,-0.0134 0.0092,-0.022l-0.0001 0 0 0 0 -0.0524 0 -0.0001 0.0001 0c0,-0.0085 -0.0036,-0.0163 -0.0092,-0.0219 -0.0057,-0.0057 -0.0135,-0.0092 -0.022,-0.0092l0 0 -0.0001 0zm0.066 -0.1637c-0.0196,0 -0.0355,0.021 -0.0355,0.0467 0,0.0258 0.0159,0.0467 0.0355,0.0467 0.0196,0 0.0355,-0.0209 0.0355,-0.0467 0,-0.0257 -0.0159,-0.0467 -0.0355,-0.0467zm-0.1521 0c-0.0196,0 -0.0355,0.021 -0.0355,0.0467 0,0.0258 0.0159,0.0467 0.0355,0.0467 0.0196,0 0.0355,-0.0209 0.0355,-0.0467 0,-0.0257 -0.0159,-0.0467 -0.0355,-0.0467zm0.2532 -0.028c0.0069,0.0068 0.0069,0.0179 0,0.0247 -0.0068,0.0069 -0.0179,0.0069 -0.0247,0l-0.0001 -0.0001 -0.0008 -0.0008c-0.0026,-0.0026 -0.0056,-0.0054 -0.0089,-0.0083 -0.0039,-0.0034 -0.0073,-0.0063 -0.0103,-0.0086 -0.018,-0.014 -0.0381,-0.0252 -0.0597,-0.033 -0.009,-0.0033 -0.0137,-0.0133 -0.0104,-0.0224 0.0032,-0.009 0.0132,-0.0137 0.0223,-0.0104 0.0249,0.009 0.0483,0.022 0.0692,0.0383 0.0046,0.0036 0.0086,0.0068 0.012,0.0098 0.0032,0.0029 0.0068,0.0062 0.0104,0.0098l0.0009 0.0009 0.0001 0.0001z"/>
 </g>
</svg>
