<svg xmlns="http://www.w3.org/2000/svg" width="1000" height="1000"><path fill="#000000" d="m 613.23925,282.92295 c -27.74194,0 -54.74731,5.54839 -78.62903,14.78495 -9.27957,3.5914 -11.67474,7.27688 -11.76076,14.44892 l 0,390.12097 c 0.0968,7.52688 5.76076,14.04301 13.10484,14.78495 0.31183,0.0322 338.86828,0 341.06183,0 67.91398,0 122.98387,-55.05914 122.98387,-122.98387 0,-67.92474 -55.06989,-122.98388 -122.98387,-122.98388 -16.84946,0 -33.06989,3.60484 -47.71505,9.74463 C 819.51613,370.00091 726.61559,282.92295 613.23925,282.92295 z m -115.5914,28.89785 c -7.3871,0 -13.66936,5.98925 -13.77688,13.44086 l -5.37635,276.88172 5.37635,100.80645 c 0.0968,7.34409 6.38978,13.44086 13.77688,13.44086 7.36559,0 13.33333,-6.32527 13.44086,-13.77688 l 6.04839,-100.47043 -6.04839,-276.88172 c -0.10753,-7.43011 -6.07527,-13.44086 -13.44086,-13.44086 z m -42.00269,23.85753 c -6.89247,0 -12.66129,5.4543 -12.76882,12.43279 l -4.7043,254.03226 c 0,0.16129 4.7043,102.15054 4.7043,102.15054 0.10753,6.90323 5.8871,12.43279 12.76882,12.43279 6.88172,0 12.63979,-5.46505 12.76882,-12.43279 l 5.04032,-102.15054 -5.04032,-254.03226 c -0.11828,-6.95699 -5.8871,-12.43279 -12.76882,-12.43279 z M 329.97312,364.9122 c -5.52688,0 -9.93011,4.42473 -10.08065,10.08064 l -6.38441,227.15054 6.38441,104.50269 c 0.15054,5.5914 4.56452,10.08064 10.08065,10.08064 5.50537,0 9.89785,-4.45698 10.08064,-10.08064 l 7.05646,-104.50269 -7.05646,-227.15054 c -0.17204,-5.64516 -4.58602,-10.08064 -10.08064,-10.08064 z m 41.66666,4.7043 c -6.03225,0 -10.95967,4.95968 -11.0887,11.08871 l -5.71237,221.43817 5.71237,103.49463 c 0.12903,6.06451 5.05645,10.75268 11.0887,10.75268 5.98925,0 10.5914,-4.62365 10.75269,-10.75268 l 6.72043,-103.49463 -6.72043,-221.43817 c -0.16129,-6.12903 -4.76344,-11.08871 -10.75269,-11.08871 z m -82.99731,3.36021 c -5.04301,0 -8.91129,4.24732 -9.07258,9.40861 0,0.0107 -6.72043,219.75806 -6.72043,219.75806 l 6.72043,105.17473 c 0.16129,5.11828 4.04033,9.07258 9.07258,9.07258 5,0 9.2043,-3.91129 9.40861,-9.07258 l 7.72849,-105.17473 -7.72849,-219.75806 c -0.20431,-5.16129 -4.40861,-9.40861 -9.40861,-9.40861 z m 124.66398,4.03226 c -6.50537,0 -11.63172,5.1371 -11.76075,11.76076 l -5.37635,213.37365 5.37635,102.82258 c 0.12903,6.53764 5.24462,11.76075 11.76075,11.76075 6.49463,0 11.61022,-5.13709 11.76075,-11.76075 l 6.04839,-102.82258 -6.04839,-213.37365 c -0.15053,-6.60215 -5.26612,-11.76076 -11.76075,-11.76076 z m -165.32258,13.77688 c -4.53763,0 -8.20699,3.72312 -8.40054,8.40054 0,0.0108 -7.39247,202.95699 -7.39247,202.95699 l 7.39247,106.1828 c 0.1828,4.63441 3.86291,8.40053 8.40054,8.40053 4.49462,0 8.18548,-3.72311 8.40054,-8.40053 l 8.06451,-106.1828 -8.06451,-202.95699 c -0.22581,-4.68817 -3.90592,-8.40054 -8.40054,-8.40054 z m -40.6586,38.64248 c -4.03226,0 -7.53495,3.19892 -7.7285,7.39247 l -7.72849,165.32258 7.72849,106.85484 c 0.20431,4.17204 3.69624,7.39247 7.7285,7.39247 4.01075,0 7.49193,-3.20967 7.72849,-7.39247 l 8.73656,-106.85484 -8.73656,-165.32258 c -0.23656,-4.19355 -3.71774,-7.39247 -7.72849,-7.39247 z m -80.30914,57.45968 c -3.09678,0 -5.46505,2.41129 -5.71237,5.71236 l -8.73656,109.54301 8.73656,105.84678 c 0.23656,3.27957 2.61559,5.71236 5.71237,5.71236 3.06452,0 5.77957,-2.43279 6.04839,-5.71236 L 143.14516,602.14338 133.06452,492.60037 c -0.26882,-3.27957 -2.98387,-5.71236 -6.04839,-5.71236 z m -39.314517,3.69623 c -2.634409,0 -4.771505,2.20161 -5.040323,5.04032 0,0.0108 -9.408602,106.51882 -9.408602,106.51882 l 9.408602,102.48656 c 0.258065,2.84946 2.395162,5.04032 5.040323,5.04032 2.60215,0 4.403226,-2.20161 4.704301,-5.04032 L 103.1586,602.14338 92.741935,495.62456 c -0.311827,-2.84946 -2.438172,-5.04032 -5.040322,-5.04032 z m 79.301077,3.36022 c -3.61291,0 -6.49463,2.94623 -6.72043,6.72043 l -8.06452,101.47849 8.06452,106.85484 c 0.23656,3.76344 3.10752,6.38441 6.72043,6.38441 3.55914,0 6.45161,-2.63172 6.72043,-6.38441 l 9.4086,-106.85484 -9.4086,-101.47849 c -0.25807,-3.75269 -3.15054,-6.72043 -6.72043,-6.72043 z M 46.706989,508.39338 c -1.400215,0.5871 -2.47043,2.28226 -2.688172,4.03226 0,0.0215 -9.744623,89.71774 -9.744623,89.71774 l 9.744623,87.70161 c 0.27957,2.35484 2.239248,4.03226 4.36828,4.03226 2.096774,0 3.688172,-1.65591 4.032258,-4.03226 l 11.08871,-87.70161 -11.08871,-89.71774 c -0.344086,-2.3871 -1.924731,-4.03226 -4.032258,-4.03226 -0.530108,0 -1.213441,-0.1957 -1.680108,0 z m -35.282258,34.2742 c -2.0860213,0 -3.7634407,1.73118 -4.0322579,4.03225 L 0,602.14338 7.3924731,656.57887 c 0.2688172,2.30107 1.9462366,4.03225 4.0322579,4.03225 2.021506,0 3.709678,-1.74193 4.032258,-4.03225 l 8.400538,-54.43549 -8.400538,-55.77957 c -0.311828,-2.29032 -2.021505,-3.69623 -4.032258,-3.69623 z" /></svg>
