<?xml version="1.0" encoding="UTF-8"?>
<!DOCTYPE svg PUBLIC "-//W3C//DTD SVG 1.1//EN" "http://www.w3.org/Graphics/SVG/1.1/DTD/svg11.dtd">
<!-- Creator: CorelDRAW -->
<svg xmlns="http://www.w3.org/2000/svg" xml:space="preserve" width="1000px" height="1000px" style="shape-rendering:geometricPrecision; text-rendering:geometricPrecision; image-rendering:optimizeQuality; fill-rule:evenodd; clip-rule:evenodd"
viewBox="0 0 1000 1000"
 xmlns:xlink="http://www.w3.org/1999/xlink">
 <defs>
  <style type="text/css">
   <![CDATA[
    .fil0 {fill:#1F1A17}
   ]]>
  </style>
 </defs>
 <g id="Слой_x0020_1">
  <metadata id="CorelCorpID_0Corel-Layer"/>
  <g id="_42912256">
   <path id="_44274488" class="fil0" d="M177.873 116.256c172.83,-140.277 427.321,-130 588.172,30.8504 133.823,133.821 163.409,332.456 88.8036,494.958 -10.1823,29.276 -5.53819,50.191 11.9516,67.6808 20.7,20.7 60.6745,23.139 83.8158,-0.00236221 2.64213,-2.64213 12.1772,-14.4 14.6823,-24.026 70.8201,-180.15 33.4736,-393.019 -112.116,-538.609 -184.925,-184.927 -478.409,-195.251 -675.499,-31.0418l0.190158 0.190158z"/>
   <path id="_44682520" class="fil0" d="M822.127 883.743c-172.83,140.278 -427.321,130.002 -588.172,-30.8492 -133.821,-133.823 -163.409,-332.456 -88.8036,-494.959 10.1823,-29.2748 5.53819,-50.191 -11.9516,-67.6808 -20.7,-20.7 -60.6733,-23.139 -83.8158,0.00236221 -2.64213,2.64331 -12.1772,14.4 -14.6823,24.0272 -70.8201,180.149 -33.4736,393.019 112.116,538.609 184.927,184.927 478.409,195.251 675.499,31.0406l-0.190158 -0.190158z"/>
  </g>
 </g>
</svg>
