<?xml version="1.0" encoding="UTF-8"?>
<!DOCTYPE svg PUBLIC "-//W3C//DTD SVG 1.1//EN" "http://www.w3.org/Graphics/SVG/1.1/DTD/svg11.dtd">
<!-- Creator: CorelDRAW -->
<svg xmlns="http://www.w3.org/2000/svg" xml:space="preserve" width="1000px" height="1000px" style="shape-rendering:geometricPrecision; text-rendering:geometricPrecision; image-rendering:optimizeQuality; fill-rule:evenodd; clip-rule:evenodd"
viewBox="0 0 1000 1000"
 xmlns:xlink="http://www.w3.org/1999/xlink">
 <defs>
  <style type="text/css">
   <![CDATA[
    .fil0 {fill:#1F1A17}
   ]]>
  </style>
 </defs>
 <g id="Слой_x0020_1">
  <metadata id="CorelCorpID_0Corel-Layer"/>
  <path class="fil0" d="M854.554 840.4c-188.268,189.444 -519.825,171.223 -704.157,-13.1091 -190.56,-190.56 -200.048,-493.728 -28.4835,-695.516 10.7386,-12.6225 21.1323,-25.2343 34.5851,-33.6673 36.5528,-22.8898 85.3465,-18.4453 117.138,13.3465 30.228,30.228 35.7366,75.8304 16.5307,111.665 -4.89331,9.11694 -9.22087,14.6929 -16.2992,22.2886 -140.375,150.709 -144.886,378.867 -7.74686,516.005 152.583,152.584 406.604,120.623 541.406,-34.1327 106.781,-122.634 142.717,-297.392 77.8571,-451.04 -83.615,-198.07 -305.207,-291.19 -510.476,-222.476l-0.225591 -0.225591c235.803,-82.5012 492.218,23.4886 588.42,251.384 70.3737,166.699 36.6674,355.204 -71.6965,493.53 -11.4803,14.6528 -23.7236,28.7445 -36.8516,41.9481z"/>
 </g>
</svg>
