<?xml version="1.0" encoding="UTF-8"?>
<!DOCTYPE svg PUBLIC "-//W3C//DTD SVG 1.1//EN" "http://www.w3.org/Graphics/SVG/1.1/DTD/svg11.dtd">
<!-- Creator: CorelDRAW -->
<svg xmlns="http://www.w3.org/2000/svg" xml:space="preserve" width="1000px" height="1000px" style="shape-rendering:geometricPrecision; text-rendering:geometricPrecision; image-rendering:optimizeQuality; fill-rule:evenodd; clip-rule:evenodd"
viewBox="0 0 1000 1000"
 xmlns:xlink="http://www.w3.org/1999/xlink">
 <defs>
  <style type="text/css">
   <![CDATA[
    .fil0 {fill:#1F1A17;fill-rule:nonzero}
   ]]>
  </style>
 </defs>
 <g id="Слой_x0020_1">
  <metadata id="CorelCorpID_0Corel-Layer"/>
  <path class="fil0" d="M853.573 853.574l-0.00472441 0.00472441 -0.133465 -0.132284c-97.7056,97.7032 -225.626,146.557 -353.438,146.556 -127.808,-0.0011811 -255.723,-48.8516 -353.426,-146.549l-0.132284 0.132284 -0.011811 -0.011811 -0.00590552 -0.00472441 0.132284 -0.133465c-97.7032,-97.7044 -146.556,-225.625 -146.554,-353.437 0,-127.808 48.8504,-255.724 146.548,-353.426l-0.132284 -0.132284 0.011811 -0.011811 0.00472441 -0.00590552 0.132284 0.132284c97.7056,-97.702 225.626,-146.556 353.438,-146.556 75.0402,0.0011811 150.118,16.8543 219.096,50.5335 63.7654,-61.6205 165.442,-60.9674 228.39,1.98071 62.9481,62.9481 63.6001,164.629 1.97953,228.392 33.6815,68.98 50.5347,144.056 50.5335,219.098 -0.0011811,127.808 -48.8516,255.723 -146.549,353.426l0.133465 0.132284 -0.011811 0.011811zm46.239 -537.538c-60.0697,27.3378 -133.338,16.3087 -182.747,-33.1004 -49.4091,-49.4079 -60.4335,-122.678 -33.0957,-182.749 -58.1906,-26.6977 -121.061,-40.0548 -183.966,-40.0559 -112.759,-0.00236221 -225.406,42.8906 -311.191,128.672l0.145276 0.145276 -0.00590552 0.00472441 -0.011811 0.0129921 -0.145276 -0.145276c-85.7741,85.7812 -128.665,198.423 -128.666,311.176 0,112.76 42.8929,225.406 128.672,311.191l0.145276 -0.145276 0.00590552 0.00590552 0.0129921 0.0129921 -0.145276 0.145276c85.7824,85.7741 198.423,128.663 311.177,128.665 112.76,0.0011811 225.408,-42.8918 311.191,-128.672l-0.145276 -0.145276 0.00590552 -0.00590552 0.011811 -0.011811 0.145276 0.145276c85.7753,-85.7824 128.665,-198.423 128.666,-311.176 0,-62.9079 -13.3595,-125.777 -40.0583,-183.97z"/>
 </g>
</svg>
