<?xml version="1.0" encoding="UTF-8"?>
<!DOCTYPE svg PUBLIC "-//W3C//DTD SVG 1.1//EN" "http://www.w3.org/Graphics/SVG/1.1/DTD/svg11.dtd">
<!-- Creator: CorelDRAW -->
<svg xmlns="http://www.w3.org/2000/svg" xml:space="preserve" width="1000px" height="1000px" style="shape-rendering:geometricPrecision; text-rendering:geometricPrecision; image-rendering:optimizeQuality; fill-rule:evenodd; clip-rule:evenodd"
viewBox="0 0 1000 1000"
 xmlns:xlink="http://www.w3.org/1999/xlink">
 <defs>
  <style type="text/css">
   <![CDATA[
    .fil0 {fill:#1F1A17;fill-rule:nonzero}
   ]]>
  </style>
 </defs>
 <g id="Слой_x0020_1">
  <metadata id="CorelCorpID_0Corel-Layer"/>
  <path class="fil0" d="M532.932 501.245l-407.684 0.0011811c2.85236,182.749 114.471,354.225 295.314,424.458 223.018,86.6079 472.321,-11.4036 579.179,-219.704l0.259843 0.102756c-120.06,241.612 -406.904,356.12 -663.305,256.543 -201.776,-78.3579 -327.956,-267.281 -336.272,-470.606 -0.275197,-1.02284 -0.424016,-2.10354 -0.424016,-3.21496l0 -41.2878c0.0011811,-6.85867 5.54882,-12.4217 12.391,-12.4205l520.542 -0.0011811c6.84331,0 12.3921,5.56418 12.3921,12.4217l0 41.2878c0,6.86103 -5.54882,12.4217 -12.3921,12.4205z"/>
 </g>
</svg>
