<?xml version="1.0" encoding="UTF-8"?>
<!DOCTYPE svg PUBLIC "-//W3C//DTD SVG 1.1//EN" "http://www.w3.org/Graphics/SVG/1.1/DTD/svg11.dtd">
<!-- Creator: CorelDRAW -->
<svg xmlns="http://www.w3.org/2000/svg" xml:space="preserve" width="1000px" height="1000px" style="shape-rendering:geometricPrecision; text-rendering:geometricPrecision; image-rendering:optimizeQuality; fill-rule:evenodd; clip-rule:evenodd"
viewBox="0 0 1000 1000"
 xmlns:xlink="http://www.w3.org/1999/xlink">
 <defs>
  <style type="text/css">
   <![CDATA[
    .fil0 {fill:#1F1A17;fill-rule:nonzero}
   ]]>
  </style>
 </defs>
 <g id="Слой_x0020_1">
  <metadata id="CorelCorpID_0Corel-Layer"/>
  <path class="fil0" d="M45.5422 705.643l-0.011811 -0.0248032c-0.101575,-0.226772 -0.199606,-0.444095 -0.277559,-0.662599 -8.16969,-17.9185 -15.2599,-36.2622 -21.2563,-54.9154 -6.05552,-18.8457 -10.989,-37.9642 -14.7532,-57.2528 -19.4681,-99.3095 -8.72599,-203.69 34.6583,-298.297 2.62559,-5.73426 9.50552,-8.17914 15.352,-5.44725 0.725197,0.344882 1.3937,0.740552 2.01851,1.18701l0.0248032 -0.0177165 79.9371 58.6678c4.7067,3.45945 6.13229,9.68623 3.60709,14.615 -4.78229,12.1311 -8.92678,24.5906 -12.4193,37.2874 -3.54685,12.926 -6.3756,25.9677 -8.48741,39.0685 -10.8933,67.5414 -2.97992,137.139 22.4421,201.005 2.00551,5.01378 0.251575,10.5036 -3.9189,13.4421l0.0165354 0.0141732 -79.5201 56.113c-5.18268,3.65079 -12.4547,2.38583 -16.2496,-2.82047 -0.454725,-0.620079 -0.842127,-1.27913 -1.15394,-1.96654l-0.00826772 0.00472441zm119.845 -574.717l0.0188977 -0.0177165c0.186614,-0.167717 0.36378,-0.327166 0.550394,-0.464174 14.6764,-13.2366 30.0945,-25.5851 46.1469,-37.0004 16.2165,-11.5347 33.0449,-22.0855 50.3977,-31.5981 89.3103,-49.0311 192.826,-71.165 297.046,-59.517 6.31418,0.700394 10.7882,6.42993 9.97206,12.7831 -0.105118,0.788977 -0.27874,1.54252 -0.514961,2.26536l0.0248032 0.0212599 -31.6134 93.4536c-1.86614,5.50512 -7.40316,8.77205 -12.9154,7.91457 -13.1209,-0.761812 -26.3622,-0.81378 -39.6307,-0.178347 -13.5012,0.649607 -26.8949,2.01496 -40.1244,4.07244 -68.1993,10.6087 -132.561,39.5729 -186.011,83.2619 -4.19292,3.43819 -10.0051,3.48307 -14.1142,0.459449l-0.00708662 0.0200788 -78.4371 -57.5906c-5.10473,-3.75355 -6.13937,-10.9984 -2.31496,-16.1811 0.457087,-0.62126 0.969686,-1.19055 1.53307,-1.69725l-0.00708662 -0.00708662zm588.707 -64.6678l0.0248032 0.0129921c0.217323,0.124016 0.424016,0.242126 0.614174,0.37441 17.2406,9.73938 33.8587,20.452 49.7764,32.0492 16.0843,11.7189 31.415,24.3142 45.9036,37.7256 74.6658,69.006 127.9,159.705 148.925,261.512 1.27795,6.16772 -2.83937,12.1536 -9.18898,13.3476 -0.790158,0.144095 -1.56614,0.21378 -2.33386,0.214961l-0.011811 0.0295276 -99.4772 -0.910631c-5.86063,-0.056693 -10.7067,-4.26496 -11.589,-9.72402 -3.32481,-12.5988 -7.36418,-25.0925 -12.0732,-37.3985 -4.79646,-12.5221 -10.2461,-24.7193 -16.3099,-36.5481 -31.2579,-60.9874 -78.9485,-112.683 -137.402,-149.548 -4.59685,-2.88898 -6.43583,-8.35158 -4.80355,-13.1587l-0.0212599 -0.00236221 31.0406 -91.7056c2.02914,-5.9693 8.66221,-9.1819 14.8193,-7.18111 0.734646,0.238583 1.44213,0.544489 2.10236,0.920079l0.00472441 -0.00944883zm243.997 534.749l-0.00590552 0.0259843c-0.0543308,0.243307 -0.102756,0.477166 -0.170079,0.698032 -4.02166,19.2532 -9.1689,38.2217 -15.3827,56.8063 -6.27875,18.7748 -13.6323,37.1126 -22.0276,54.9119 -43.1658,91.6796 -113.778,169.869 -205.006,221.14 -5.52402,3.11221 -12.5421,1.08071 -15.652,-4.53426 -0.381496,-0.698032 -0.687402,-1.40906 -0.927166,-2.13189l-0.0330709 -0.0011811 -29.8642 -94.0194c-1.75512,-5.53819 0.783071,-11.4071 5.75197,-13.9228 11.0658,-7.02756 21.8103,-14.6941 32.1662,-22.9347 10.539,-8.38938 20.5642,-17.2925 30.0461,-26.6622 48.8823,-48.2989 83.7674,-109.213 101.089,-175.686 1.35236,-5.2252 6.02953,-8.64568 11.1473,-8.59371l-0.00590552 -0.0200788 97.6229 0.911812c6.35788,0.0661418 11.491,5.32441 11.4732,11.7449 0,0.767717 -0.0779528,1.52599 -0.232677,2.26536l0.0106299 0.0011811zm-437.912 395.161l-0.0271654 0.00354331c-0.248032,0.0259843 -0.487796,0.0519685 -0.719292,0.0555119 -19.728,2.16142 -39.5268,3.17244 -59.2819,3.05906 -19.9654,-0.114567 -39.8398,-1.37599 -59.5182,-3.78662 -101.345,-12.3461 -198.219,-54.7217 -275.626,-124.839 -4.69489,-4.24489 -4.91339,-11.485 -0.484252,-16.1504 0.550394,-0.575197 1.13976,-1.08307 1.76103,-1.53307l-0.00944883 -0.0295276 81.0178 -57.1961c4.77638,-3.36496 11.1945,-2.78504 15.1453,1.11732 10.1634,8.25591 20.8429,16.0122 31.9547,23.2252 11.3079,7.33583 22.9547,14.0303 34.878,20.0705 61.467,31.1362 130.72,45.1855 199.879,40.9677 5.43544,-0.341339 10.1634,3.00827 11.6929,7.84843l0.0200788 -0.0129921 29.289 92.2713c1.90158,6.01063 -1.55906,12.4713 -7.72796,14.439 -0.737008,0.237402 -1.48937,0.398032 -2.24646,0.480709l0.00236221 0.00944883z"/>
 </g>
</svg>
