<?xml version="1.0" encoding="UTF-8"?>
<!DOCTYPE svg PUBLIC "-//W3C//DTD SVG 1.1//EN" "http://www.w3.org/Graphics/SVG/1.1/DTD/svg11.dtd">
<!-- Creator: CorelDRAW -->
<svg xmlns="http://www.w3.org/2000/svg" xml:space="preserve" width="1000px" height="1000px" style="shape-rendering:geometricPrecision; text-rendering:geometricPrecision; image-rendering:optimizeQuality; fill-rule:evenodd; clip-rule:evenodd"
viewBox="0 0 1000 1000"
 xmlns:xlink="http://www.w3.org/1999/xlink">
 <defs>
  <style type="text/css">
   <![CDATA[
    .fil0 {fill:#1F1A17;fill-rule:nonzero}
   ]]>
  </style>
 </defs>
 <g id="Слой_x0020_1">
  <metadata id="CorelCorpID_0Corel-Layer"/>
  <g id="_43274728">
   <path id="_43147488" class="fil0" d="M6.76064 407.318l0.00708662 -0.0354331c0.0637796,-0.318898 0.141732,-0.63189 0.231496,-0.940158 6.56457,-31.9914 16.1268,-62.8312 28.3784,-92.1993 12.3898,-29.7012 27.541,-57.9756 45.13,-84.4961 90.4324,-136.354 245.294,-226.277 421.1,-226.277l0.0437008 0 0 0.0448819c27.9839,0.00236221 55.3796,2.27362 82.0064,6.63308 4.40788,0.720473 8.72953,1.48701 12.9579,2.29252 22.1433,4.22363 43.8059,9.90828 64.8768,16.9406 6.08741,2.03858 9.37205,8.62796 7.33465,14.7165 -0.316536,0.943702 -0.745276,1.82362 -1.26142,2.62441l-50.1461 86.8572c-2.70473,4.70788 -8.21103,6.80434 -13.2118,5.39764l-0.00236221 0.0106299c-4.02874,-1.11732 -8.64331,-2.2937 -13.8284,-3.52559 -4.7693,-1.1315 -9.43347,-2.14961 -13.9843,-3.05079 -24.3083,-4.81181 -49.3181,-7.3441 -74.7851,-7.3441l0 0.0448819 -0.0283465 0 0 -0.0448819c-32.3953,0.0011811 -63.9402,4.05591 -94.1398,11.6835 -22.0453,5.56772 -43.337,13.05 -63.6839,22.2579 -104.675,47.3681 -184.29,140.356 -213.437,253.557 -1.33937,5.25473 -6.06733,8.75198 -11.2524,8.74725l-100.87 0.0011811c-6.41575,0 -11.6173,-5.20158 -11.6173,-11.6173 0,-0.777166 0.0791339,-1.53425 0.22441,-2.27008l-0.0425197 -0.00826772z"/>
   <path id="_44347264" class="fil0" d="M660.471 977.218c-7.24725,2.41181 -14.2099,4.57323 -20.8772,6.47126 -7.26615,2.07047 -14.5028,3.9626 -21.6957,5.66811 -37.5142,8.89725 -76.6323,13.6158 -116.835,13.6158l-0.0354331 0 0 -0.0448819c-34.1717,-0.00236221 -67.5627,-3.4063 -99.8434,-9.88702 -32.3233,-6.49016 -63.4949,-16.0477 -93.1867,-28.3512 -152.94,-63.3686 -268.011,-199.756 -301.735,-365.664 -1.25788,-6.29056 2.82166,-12.411 9.11221,-13.6677 0.764174,-0.153543 1.52599,-0.227953 2.27717,-0.229134l0 -0.0437008 100.87 0c5.81457,0 10.6382,4.25315 11.5205,9.81851 5.9256,22.7492 13.9039,44.7059 23.7284,65.6552 9.89292,21.0945 21.7536,41.2607 35.3587,60.2682 0.144095,0.199606 0.27874,0.400394 0.408662,0.605906 69.5623,96.8209 183.178,159.898 311.525,159.898l0.0519685 0 0 0.0448819c17.7059,-0.0011811 35.2051,-1.22599 52.4067,-3.58347 2.92087,-0.400394 5.69646,-0.812599 8.31497,-1.22953 14.2122,-2.26772 28.187,-5.32559 41.8713,-9.12048 5.21221,-1.44095 10.5756,0.904725 13.161,5.37874l0.00590552 -0.00354331 50.452 87.3863c3.22087,5.56063 1.32284,12.6803 -4.23662,15.9012 -0.843308,0.487796 -1.72441,0.855119 -2.61969,1.1126z"/>
   <path id="_43583576" class="fil0" d="M1006.04 497.999l0 0.0165354 -0.046063 0c-0.0011811,50.1733 -7.3004,98.5843 -20.889,144.225 -4.40197,14.7839 -9.50552,29.3764 -15.2728,43.7351 -29.465,73.3701 -75.6827,138.239 -133.912,189.878 -4.80473,4.25197 -12.1488,3.80315 -16.402,-1.00276 -0.633071,-0.715749 -1.16221,-1.49173 -1.58977,-2.30079l-50.2099 -86.9658c-2.69292,-4.68544 -1.7563,-10.4681 1.93228,-14.0811l-0.00590552 -0.00708662 0.354331 -0.351969 -0.00236221 -0.00236221 0.011811 -0.0106299 0.0366142 -0.0318898c9.66615,-9.52087 18.9177,-19.6677 27.7087,-30.3981 8.9315,-10.9039 17.1839,-22.148 24.6992,-33.6768 39.1748,-60.0851 61.9453,-131.88 61.9453,-209.025l0 -0.0177165 0.046063 0c-0.0011811,-53.5182 -11.002,-104.51 -30.861,-150.835 -3.22914,-7.5319 -6.69449,-14.9433 -10.3819,-22.2166 -18.9744,-37.4185 -43.9181,-71.3174 -73.5686,-100.437 -4.0252,-3.95906 -4.56024,-10.128 -1.57205,-14.6717l50.0906 -86.7591c3.19488,-5.55945 10.2957,-7.47756 15.8551,-4.28268 0.699213,0.402756 1.33937,0.868111 1.91929,1.38189l0.00590552 -0.00590552c14.589,12.9413 28.4386,26.7295 41.4674,41.2843 13.1102,14.648 25.3087,29.9492 36.5114,45.8221 58.0016,82.18 92.0847,182.467 92.0835,290.738l0.046063 0z"/>
  </g>
 </g>
</svg>
