<?xml version="1.0" encoding="UTF-8"?>
<!DOCTYPE svg PUBLIC "-//W3C//DTD SVG 1.1//EN" "http://www.w3.org/Graphics/SVG/1.1/DTD/svg11.dtd">
<!-- Creator: CorelDRAW -->
<svg xmlns="http://www.w3.org/2000/svg" xml:space="preserve" width="1000px" height="1000px" style="shape-rendering:geometricPrecision; text-rendering:geometricPrecision; image-rendering:optimizeQuality; fill-rule:evenodd; clip-rule:evenodd"
viewBox="0 0 1000 1000"
 xmlns:xlink="http://www.w3.org/1999/xlink">
 <defs>
  <style type="text/css">
   <![CDATA[
    .fil0 {fill:#1F1A17}
   ]]>
  </style>
 </defs>
 <g id="Слой_x0020_1">
  <metadata id="CorelCorpID_0Corel-Layer"/>
  <g id="_42720168">
   <path id="_44262160" class="fil0" d="M846.4 148.358c-89.6587,-91.5674 -214.636,-148.415 -352.884,-148.415 -265.602,0 -482.292,209.749 -493.486,472.602 -0.765355,18.0272 13.0122,19.0158 13.0122,19.0158l83.7981 0c16.291,0 19.1646,-9.30237 19.5496,-17.6303 9.22796,-199.317 175.285,-357.691 377.126,-357.691 107.739,0 204.938,45.1583 273.742,117.558l-58.8071 56.889c-10.2295,12.3189 -10.0606,27.2622 5.04449,31.487l247.123 49.7658c21.15,5.28071 46.2863,-10.7575 37.6548,-43.6666l-58.3678 -227.549c-1.48228,-8.61497 -15.9331,-22.0276 -29.4154,-12.4099l-64.0902 60.0449z"/>
   <path id="_43762232" class="fil0" d="M153.6 851.643c89.6587,91.5674 214.636,148.415 352.884,148.415 265.602,0 482.292,-209.749 493.486,-472.602 0.765355,-18.0272 -13.0122,-19.0158 -13.0122,-19.0158l-83.7981 0c-16.291,0 -19.1646,9.30237 -19.5496,17.6303 -9.22796,199.317 -175.285,357.691 -377.126,357.691 -107.739,0 -204.938,-45.1583 -273.742,-117.558l58.8071 -56.889c10.2295,-12.3189 10.0606,-27.2622 -5.04449,-31.487l-247.123 -49.7658c-21.15,-5.28071 -46.2863,10.7575 -37.6548,43.6666l58.3678 227.549c1.48228,8.61497 15.9331,22.0276 29.4154,12.4099l64.0902 -60.0449z"/>
  </g>
 </g>
</svg>
