<?xml version="1.0" encoding="UTF-8"?>
<!DOCTYPE svg PUBLIC "-//W3C//DTD SVG 1.1//EN" "http://www.w3.org/Graphics/SVG/1.1/DTD/svg11.dtd">
<!-- Creator: CorelDRAW -->
<svg xmlns="http://www.w3.org/2000/svg" xml:space="preserve" width="1000px" height="1000px" style="shape-rendering:geometricPrecision; text-rendering:geometricPrecision; image-rendering:optimizeQuality; fill-rule:evenodd; clip-rule:evenodd"
viewBox="0 0 1000 1000"
 xmlns:xlink="http://www.w3.org/1999/xlink">
 <defs>
  <style type="text/css">
   <![CDATA[
    .fil0 {fill:#1F1A17}
   ]]>
  </style>
 </defs>
 <g id="Слой_x0020_1">
  <metadata id="CorelCorpID_0Corel-Layer"/>
  <g id="_44258984">
   <path id="_45438728" class="fil0" d="M705.983 0.970867c68.204,23.2559 104.671,97.4505 81.417,165.653 -23.2441,68.2158 -97.4351,104.673 -165.634,81.4217 -68.2182,-23.2642 -104.672,-97.428 -81.4241,-165.643 23.263,-68.2229 97.4469,-104.669 165.641,-81.4323z"/>
   <path id="_43760208" class="fil0" d="M331.239 14.55c61.0701,-23.6563 129.799,6.69567 153.457,67.7634 23.6646,61.0713 -6.68859,129.794 -67.7528,153.448 -61.0855,23.6563 -129.79,-6.68268 -153.457,-67.7528 -23.6587,-61.0867 6.69567,-129.8 67.7528,-153.458z"/>
   <path id="_42905408" class="fil0" d="M83.3623 220.605c32.811,-48.9674 99.1465,-62.0658 148.113,-29.2571 48.9697,32.8051 62.0693,99.1359 29.2618,148.097 -32.8217,48.9709 -99.1347,62.0717 -148.107,29.2677 -48.9733,-32.8229 -62.067,-99.1489 -29.2677,-148.108z"/>
   <path id="_43784632" class="fil0" d="M0.558662 525.031c-1.0748,-52.3985 40.5603,-95.7709 92.9599,-96.8469 52.3961,-1.08071 95.7662,40.552 96.8422,92.9446 1.0689,52.4079 -40.5473,95.7686 -92.9493,96.854 -52.4103,1.06654 -95.7733,-40.5626 -96.8528,-92.9516z"/>
   <path id="_42949960" class="fil0" d="M81.1512 777.8c-23.7331,-39.2268 -11.1638,-90.2918 28.063,-114.027 39.2233,-23.7355 90.2871,-11.1662 114.019,28.0547 23.7331,39.2351 11.1697,90.2871 -28.0536,114.031 -39.2374,23.7307 -90.2965,11.1591 -114.028,-28.0583z"/>
   <path id="_44000720" class="fil0" d="M272.88 952.168c-34.4292,-18.9461 -46.9831,-62.2394 -28.0358,-96.6686 18.9402,-34.4268 62.2312,-46.9819 96.6568,-28.0382 34.4303,18.9543 46.9843,62.2323 28.0441,96.6662 -18.9543,34.4292 -62.243,46.9819 -96.665,28.0406z"/>
   <path id="_45134096" class="fil0" d="M476.419 993.839c-26.1496,-1.74803 -45.9378,-24.3756 -44.191,-50.5252 1.74567,-26.1449 24.3721,-45.9355 50.5193,-44.1874 26.1508,1.75158 45.9355,24.3709 44.1922,50.5217 -1.75158,26.1508 -24.3768,45.9367 -50.5205,44.191z"/>
  </g>
 </g>
</svg>
