<?xml version="1.0" encoding="UTF-8"?>
<!DOCTYPE svg PUBLIC "-//W3C//DTD SVG 1.1//EN" "http://www.w3.org/Graphics/SVG/1.1/DTD/svg11.dtd">
<!-- Creator: CorelDRAW -->
<svg xmlns="http://www.w3.org/2000/svg" xml:space="preserve" width="1000px" height="1000px" style="shape-rendering:geometricPrecision; text-rendering:geometricPrecision; image-rendering:optimizeQuality; fill-rule:evenodd; clip-rule:evenodd"
viewBox="0 0 1000 1000"
 xmlns:xlink="http://www.w3.org/1999/xlink">
 <defs>
  <style type="text/css">
   <![CDATA[
    .fil0 {fill:#1F1A17;fill-rule:nonzero}
   ]]>
  </style>
 </defs>
 <g id="Слой_x0020_1">
  <metadata id="CorelCorpID_0Corel-Layer"/>
  <g id="_44250936">
   <path id="_44363032" class="fil0" d="M380.66 228.575l-60.7111 35.0516c-5.5004,3.18544 -12.5445,1.30866 -15.7311,-4.19174 -0.119291,-0.206693 -0.227953,-0.413386 -0.334252,-0.623623l-90.7749 -157.23c-3.15355,-5.48859 -1.27205,-12.4961 4.20237,-15.6662l-0.0106299 -0.0188977 60.7111 -35.0516c5.5004,-3.18662 12.5445,-1.30866 15.7299,4.19174 0.122835,0.212599 0.239764,0.42874 0.347244,0.646064l90.7631 157.207c3.15355,5.48859 1.27087,12.4961 -4.20355,15.6662l0.011811 0.0188977z"/>
   <path id="_44681968" class="fil0" d="M260.532 325.264l-34.663 60.039c-3.15945,5.5004 -10.1847,7.39725 -15.6851,4.23662l-0.0330709 -0.0200788 -0.011811 0.0200788 -157.808 -91.1115c-5.5004,-3.18544 -7.37835,-10.2295 -4.19174,-15.7299l35.0516 -60.7099c3.18544,-5.5004 10.2295,-7.37835 15.7299,-4.19174l157.807 91.1103c5.5004,3.18544 7.37835,10.2295 4.19174,15.7299 -0.124016,0.214961 -0.251575,0.424016 -0.387402,0.627166z"/>
   <path id="_44098448" class="fil0" d="M205.252 468.696l0 69.0615c0,6.34725 -5.14607,11.4933 -11.4933,11.4933l0 0.0448819 -182.221 0c-6.37205,0 -11.5394,-5.16733 -11.5394,-11.5382 0,-0.336614 0.0165354,-0.673229 0.046063,-1.00158l0 -69.1016c0,-6.34725 5.14607,-11.4933 11.4933,-11.4933l0 -0.0448819 182.221 0c6.37087,0 11.5382,5.16615 11.5382,11.5382 0,0.350788 -0.0153543,0.699213 -0.0448819,1.04173z"/>
   <path id="_44912624" class="fil0" d="M228.575 619.34l35.0516 60.7111c3.18544,5.5004 1.30866,12.5445 -4.19174,15.7311 -0.206693,0.119291 -0.413386,0.227953 -0.623623,0.334252l-157.23 90.7749c-5.48859,3.15355 -12.4961,1.27205 -15.6662,-4.20237l-0.0188977 0.0106299 -35.0516 -60.7111c-3.18662,-5.5004 -1.30866,-12.5445 4.19174,-15.7299 0.212599,-0.122835 0.42874,-0.239764 0.646064,-0.347244l157.207 -90.7631c5.48859,-3.15355 12.4961,-1.27087 15.6662,4.20355l0.0188977 -0.011811z"/>
   <path id="_42590328" class="fil0" d="M325.264 739.468l60.039 34.663c5.5004,3.15945 7.39725,10.1847 4.23662,15.6851l-0.0200788 0.0330709 0.0200788 0.011811 -91.1115 157.808c-3.18544,5.5004 -10.2295,7.37835 -15.7299,4.19174l-60.7099 -35.0516c-5.5004,-3.18544 -7.37835,-10.2295 -4.19174,-15.7299l91.1103 -157.807c3.18544,-5.5004 10.2295,-7.37835 15.7299,-4.19174 0.214961,0.124016 0.424016,0.251575 0.627166,0.387402z"/>
   <path id="_44463384" class="fil0" d="M468.696 794.748l69.0615 0c6.34725,0 11.4933,5.14607 11.4933,11.4933l0.0448819 0 0 182.221c0,6.37205 -5.16733,11.5394 -11.5382,11.5394 -0.336614,0 -0.673229,-0.0165354 -1.00158,-0.046063l-69.1016 0c-6.34725,0 -11.4933,-5.14607 -11.4933,-11.4933l-0.0448819 0 0 -182.221c0,-6.37087 5.16615,-11.5382 11.5382,-11.5382 0.350788,0 0.699213,0.0153543 1.04173,0.0448819z"/>
   <path id="_45443248" class="fil0" d="M619.34 771.425l60.7111 -35.0516c5.5004,-3.18544 12.5445,-1.30866 15.7311,4.19174 0.119291,0.206693 0.227953,0.413386 0.334252,0.623623l90.7749 157.23c3.15355,5.48859 1.27205,12.4961 -4.20237,15.6662l0.0106299 0.0188977 -60.7111 35.0516c-5.5004,3.18662 -12.5445,1.30866 -15.7299,-4.19174 -0.122835,-0.212599 -0.239764,-0.42874 -0.347244,-0.646064l-90.7631 -157.207c-3.15355,-5.48859 -1.27087,-12.4961 4.20355,-15.6662l-0.011811 -0.0188977z"/>
   <path id="_45493584" class="fil0" d="M739.468 674.736l34.663 -60.039c3.15945,-5.5004 10.1847,-7.39725 15.6851,-4.23662l0.0330709 0.0200788 0.011811 -0.0200788 157.808 91.1115c5.5004,3.18544 7.37835,10.2295 4.19174,15.7299l-35.0516 60.7099c-3.18544,5.5004 -10.2295,7.37835 -15.7299,4.19174l-157.807 -91.1103c-5.5004,-3.18544 -7.37835,-10.2295 -4.19174,-15.7299 0.124016,-0.214961 0.251575,-0.424016 0.387402,-0.627166z"/>
   <path id="_44097272" class="fil0" d="M794.748 531.304l0 -69.0615c0,-6.34725 5.14607,-11.4933 11.4933,-11.4933l0 -0.0448819 182.221 0c6.37205,0 11.5394,5.16733 11.5394,11.5382 0,0.336614 -0.0165354,0.673229 -0.046063,1.00158l0 69.1016c0,6.34725 -5.14607,11.4933 -11.4933,11.4933l0 0.0448819 -182.221 0c-6.37087,0 -11.5382,-5.16615 -11.5382,-11.5382 0,-0.350788 0.0153543,-0.699213 0.0448819,-1.04173z"/>
   <path id="_45497824" class="fil0" d="M771.425 380.66l-35.0516 -60.7111c-3.18544,-5.5004 -1.30866,-12.5445 4.19174,-15.7311 0.206693,-0.119291 0.413386,-0.227953 0.623623,-0.334252l157.23 -90.7749c5.48859,-3.15355 12.4961,-1.27205 15.6662,4.20237l0.0188977 -0.0106299 35.0516 60.7111c3.18662,5.5004 1.30866,12.5445 -4.19174,15.7299 -0.212599,0.122835 -0.42874,0.239764 -0.646064,0.347244l-157.207 90.7631c-5.48859,3.15355 -12.4961,1.27087 -15.6662,-4.20355l-0.0188977 0.011811z"/>
   <path id="_44098488" class="fil0" d="M674.736 260.532l-60.039 -34.663c-5.5004,-3.15945 -7.39725,-10.1847 -4.23662,-15.6851l0.0200788 -0.0330709 -0.0200788 -0.011811 91.1115 -157.808c3.18544,-5.5004 10.2295,-7.37835 15.7299,-4.19174l60.7099 35.0516c5.5004,3.18544 7.37835,10.2295 4.19174,15.7299l-91.1103 157.807c-3.18544,5.5004 -10.2295,7.37835 -15.7299,4.19174 -0.214961,-0.124016 -0.424016,-0.251575 -0.627166,-0.387402z"/>
   <path id="_42843600" class="fil0" d="M531.304 205.252l-69.0615 0c-6.34725,0 -11.4933,-5.14607 -11.4933,-11.4933l-0.0448819 0 0 -182.221c0,-6.37205 5.16733,-11.5394 11.5382,-11.5394 0.336614,0 0.673229,0.0165354 1.00158,0.046063l69.1016 0c6.34725,0 11.4933,5.14607 11.4933,11.4933l0.0448819 0 0 182.221c0,6.37087 -5.16615,11.5382 -11.5382,11.5382 -0.350788,0 -0.699213,-0.0153543 -1.04173,-0.0448819z"/>
  </g>
 </g>
</svg>
