<?xml version="1.0" encoding="UTF-8"?>
<!DOCTYPE svg PUBLIC "-//W3C//DTD SVG 1.1//EN" "http://www.w3.org/Graphics/SVG/1.1/DTD/svg11.dtd">
<!-- Creator: CorelDRAW -->
<svg xmlns="http://www.w3.org/2000/svg" xml:space="preserve" width="1000px" height="1000px" style="shape-rendering:geometricPrecision; text-rendering:geometricPrecision; image-rendering:optimizeQuality; fill-rule:evenodd; clip-rule:evenodd"
viewBox="0 0 1000 1000"
 xmlns:xlink="http://www.w3.org/1999/xlink">
 <defs>
  <style type="text/css">
   <![CDATA[
    .fil0 {fill:#1F1A17;fill-rule:nonzero}
   ]]>
  </style>
 </defs>
 <g id="Слой_x0020_1">
  <metadata id="CorelCorpID_0Corel-Layer"/>
  <path class="fil0" d="M950.035 720.849l-0.0011811 0.0011811m-742.235 -56.4107c6.69804,12.176 13.9878,23.6788 21.7937,34.4575 7.99607,11.0386 16.7894,21.6886 26.2984,31.8874 48.3154,51.8209 112.455,87.9343 182.359,101.206 8.57953,1.61339 14.4532,9.4193 13.898,17.9599l-0.911812 132.765c-0.0366142,9.463 -7.70079,17.1036 -17.1142,17.0669 -0.770079,-0.00354331 -1.52599,-0.0614174 -2.2689,-0.164173l-0.00472441 0.0295276 -0.0484252 -0.00590552c-23.1307,-3.24213 -45.7713,-8.09292 -67.7682,-14.4425 -22.1173,-6.38386 -43.7292,-14.2949 -64.6796,-23.6244 -107.684,-47.954 -197.862,-133.414 -249.738,-241.517 -4.09843,-8.53465 -0.536221,-18.7937 7.95591,-22.9134 0.748819,-0.362599 1.51299,-0.666142 2.28189,-0.911812l-0.00826772 -0.0283465 127.421 -40.637c8.19804,-2.59843 16.8933,1.32165 20.5347,8.87127zm-51.0154 -101.108l-127.023 40.5107c-9.00946,2.85709 -18.6189,-2.16614 -21.4618,-11.2217 -0.372048,-1.18819 -0.607087,-2.38937 -0.718111,-3.58229 -3.99331,-22.7303 -6.38977,-45.5256 -7.23426,-68.2217 -0.861024,-23.1827 -0.11811,-46.278 2.17914,-69.1146 11.8453,-117.745 64.8508,-229.511 151.828,-313.109 6.82914,-6.5315 17.6374,-6.25985 24.1347,0.604725 0.552756,0.583465 1.05709,1.19764 1.51181,1.83425l0.0271654 -0.0188977 77.7603 109.147c5.05867,7.09843 3.97441,16.7563 -2.2063,22.5614 -9.18662,9.8752 -17.7685,20.341 -25.7079,31.317 -8.1319,11.2406 -15.515,22.9158 -22.1185,34.9347 -34.1445,62.1414 -48.4536,134.573 -39.2055,205.746 1.0878,8.3752 -4.03111,16.1221 -11.7791,18.5681l0.0129921 0.0448819zm107.314 -504.701l2.3752 -1.2685c0.318898,-0.168898 0.64252,-0.323622 0.964961,-0.472441 20.3386,-10.7303 41.1933,-19.9087 62.3906,-27.5315 21.4524,-7.71379 43.5591,-13.9382 66.1217,-18.6685 114.399,-23.9894 236.39,-7.73741 340.804,48.4548 8.30788,4.45394 11.4508,14.8335 7.02048,23.1827 -0.386221,0.728741 -0.820867,1.41969 -1.29213,2.06811l0.0212599 0.0153543 -79.1682 107.947c-5.10119,6.99449 -14.4839,8.97402 -21.8669,4.96772 -2.88544,-1.35118 -5.63977,-2.59961 -8.25946,-3.73819l-0.0248032 0.056693c-12.8067,-5.56182 -25.6477,-10.2177 -38.4402,-13.9654 -12.9933,-3.80551 -26.2772,-6.81851 -39.7548,-9.03072 -66.5812,-10.9323 -136.146,-1.74449 -197.933,27.6851 -7.5815,3.59646 -16.4646,1.09606 -21.1713,-5.52638l-0.022441 0.0153543 -77.6493 -108.993c-5.5004,-7.71851 -3.73465,-18.4595 3.94488,-23.9882 0.628347,-0.452363 1.27795,-0.852757 1.94173,-1.20591l-0.00236221 -0.00354331zm582.708 80.954c16.5756,16.0335 31.9843,33.2221 46.154,51.3945 14.2512,18.2752 27.1406,37.4032 38.6044,57.2044 59.1591,102.186 82.0465,224.36 60.456,343.155 -1.69725,9.31418 -10.5886,15.4819 -19.8555,13.7752 -1.07599,-0.198425 -2.11299,-0.497244 -3.09803,-0.879922l-125.732 -42.0248c-7.87087,-2.61496 -12.5717,-10.4469 -11.5618,-18.4122l-0.00354331 0 0.00708662 -0.0531496c1.73977,-13.8567 2.58425,-27.7595 2.56299,-41.6185 -0.0212599,-13.8331 -0.90945,-27.6425 -2.63268,-41.3351 -8.85827,-70.4103 -39.8103,-137.418 -88.6123,-189.567 -5.77441,-6.16654 -6.1252,-15.4937 -1.23425,-22.0441l78.9957 -107.713c5.57481,-7.6441 16.2614,-9.29765 23.8677,-3.69449 0.753544,0.555119 1.44685,1.16457 2.08229,1.81299zm-283.999 692.122l0.0354331 -0.00590552c13.578,-2.63504 26.9457,-6.12402 40.0229,-10.4173 13.2484,-4.34764 26.041,-9.43465 38.302,-15.2067 63.8788,-30.0827 118.003,-80.054 152.263,-143.137 4.12559,-7.61457 13.1622,-10.8295 21.0071,-7.83544l125.59 41.9788c8.93505,2.96929 13.7847,12.6579 10.8307,21.6378 -0.218504,0.668504 -0.48189,1.30984 -0.77126,1.9311l0.0354331 0.0177165 -0.0212599 0.046063 -0.0673229 0.134646c-10.1232,21.091 -21.7169,41.3481 -34.6252,60.6626 -12.8445,19.2154 -27.0107,37.4859 -42.3437,54.6969 -78.6284,88.2532 -187.309,147.483 -305.699,163.661 -9.34135,1.26142 -17.9315,-5.32678 -19.187,-14.7154 -0.146457,-1.10433 -0.186614,-2.19921 -0.126378,-3.27166l0.916536 -133.378c0.0318898,-8.33977 5.98465,-15.2634 13.8437,-16.7646l-0.00590552 -0.034252z"/>
 </g>
</svg>
