<?xml version="1.0" encoding="UTF-8"?>
<!DOCTYPE svg PUBLIC "-//W3C//DTD SVG 1.1//EN" "http://www.w3.org/Graphics/SVG/1.1/DTD/svg11.dtd">
<!-- Creator: CorelDRAW -->
<svg xmlns="http://www.w3.org/2000/svg" xml:space="preserve" width="1000px" height="1000px" style="shape-rendering:geometricPrecision; text-rendering:geometricPrecision; image-rendering:optimizeQuality; fill-rule:evenodd; clip-rule:evenodd"
viewBox="0 0 1000 1000"
 xmlns:xlink="http://www.w3.org/1999/xlink">
 <defs>
  <style type="text/css">
   <![CDATA[
    .fil0 {fill:#1F1A17;fill-rule:nonzero}
   ]]>
  </style>
 </defs>
 <g id="Слой_x0020_1">
  <metadata id="CorelCorpID_0Corel-Layer"/>
  <path class="fil0" d="M43.7197 709.554l-0.0307087 -0.0673229c-3.40512,-7.4067 -6.49725,-14.537 -9.26457,-21.3756 -2.80276,-6.92717 -5.55945,-14.25 -8.26418,-21.9555 -13.3146,-37.9323 -22.2095,-77.9835 -26.0398,-119.534 -0.581103,-6.43701 4.16457,-12.1299 10.6016,-12.711 0.451181,-0.0413386 0.901182,-0.056693 1.34528,-0.046063l121.895 -0.0011811c5.98229,0 10.9205,4.48937 11.6197,10.2839l0.0354331 -0.00472441 0.00708662 0.0578741c0.627166,5.08111 1.28386,9.70985 1.96536,13.8827 0.772442,4.71733 1.60984,9.28702 2.51103,13.6996 4.76575,23.3445 11.8051,45.8516 20.8689,67.2697 2.35984,5.60434 0.0248032,12.0118 -5.22284,14.8382l-105.552 60.9402c-5.60079,3.21733 -12.7524,1.28622 -15.9697,-4.31339 -0.183071,-0.317717 -0.346063,-0.64252 -0.494882,-0.968505l-0.0106299 0.00472441z"/>
  <path class="fil0" d="M209.373 909.394c-6.24686,-4.44331 -12.4937,-9.11339 -18.7276,-14.0008 -6.31182,-4.94764 -12.4323,-9.97914 -18.3473,-15.0839 -30.7666,-26.5429 -58.2768,-56.7556 -81.8457,-89.9481 -3.74882,-5.27126 -2.51693,-12.587 2.75433,-16.337 0.298819,-0.212599 0.608268,-0.411024 0.920079,-0.591733l-0.00236221 -0.00472441 105.821 -61.0973c5.18741,-3.00355 11.726,-1.5874 15.2386,3.0874l0.00472441 -0.00354331c3.0437,4.01929 5.87835,7.62993 8.50158,10.8307 2.92559,3.56693 5.91733,7.07717 8.96694,10.5189 15.6189,17.6232 33.0331,33.7406 51.9615,48.0804 4.90867,3.70512 6.08268,10.5213 2.84882,15.626l-60.8847 105.452c-3.24331,5.60079 -10.4161,7.51182 -16.0158,4.26851 -0.420473,-0.243307 -0.814961,-0.511418 -1.1941,-0.797245z"/>
  <path class="fil0" d="M453.402 999.942l-0.0767717 -0.00708662c-8.32442,-0.768898 -16.3429,-1.70079 -24.0473,-2.78977 -7.95473,-1.12205 -15.8587,-2.43543 -23.6965,-3.93071 -40.33,-7.68662 -78.9331,-20.1898 -115.178,-36.874 -5.87953,-2.71181 -8.44725,-9.67796 -5.73662,-15.5575 0.26811,-0.581103 0.582284,-1.13386 0.928347,-1.65l60.6827 -105.108c2.98465,-5.19567 9.35788,-7.23426 14.7354,-4.93229l0.0011811 -0.00236221c3.89882,1.64882 8.11064,3.33307 12.6319,5.04449 4.4067,1.66654 8.70001,3.20315 12.8717,4.60158 22.1292,7.41497 45.3296,12.7276 69.3603,15.6886 6.28938,0.767717 10.8059,6.37205 10.2803,12.6331l0 121.227c0,6.46182 -5.24056,11.7012 -11.7024,11.7012 -0.355512,0 -0.707481,-0.0177165 -1.05473,-0.0484252l0 0.00354331z"/>
  <path class="fil0" d="M544.16 854.412l0.0578741 -0.00708662c5.08583,-0.627166 9.70985,-1.28386 13.8827,-1.96536 4.71733,-0.77126 9.28702,-1.60866 13.6996,-2.50984 23.3457,-4.76457 45.8516,-11.8039 67.2721,-20.8689 5.60434,-2.35984 12.0118,-0.0248032 14.8382,5.22284l60.939 105.549c3.21733,5.60079 1.28622,12.7524 -4.31457,15.9697 -0.316536,0.18189 -0.641339,0.346063 -0.967324,0.494882l0.00472441 0.0106299 -0.0673229 0.0307087c-7.40552,3.4063 -14.5347,6.49725 -21.3756,9.26576 -6.92835,2.80276 -14.25,5.55945 -21.9555,8.26418 -37.9323,13.3134 -77.9823,22.2071 -119.535,26.0398 -6.43701,0.581103 -12.1299,-4.16457 -12.711,-10.6016 -0.0413386,-0.452363 -0.056693,-0.902363 -0.046063,-1.34646l-0.0011811 -121.892c0,-5.98347 4.48937,-10.9205 10.2839,-11.6197l-0.00472441 -0.0366142z"/>
  <path class="fil0" d="M715.433 784.84c4.01693,-3.04252 7.63229,-5.88071 10.8307,-8.50276 3.56693,-2.92559 7.07717,-5.91733 10.5189,-8.96694 17.6209,-15.6177 33.7359,-33.0296 48.0768,-51.9615 3.7878,-5.01733 10.8248,-6.13347 15.9614,-2.62914l105.072 60.6638c5.60079,3.21733 7.5319,10.3701 4.31457,15.9697 -0.19252,0.335433 -0.400394,0.654331 -0.62126,0.961418l0.0165354 0.011811c-4.50118,6.33662 -9.23623,12.6721 -14.1933,18.9957 -4.94764,6.31182 -9.97914,12.4311 -15.0827,18.3484 -26.5429,30.7654 -56.752,58.2756 -89.9469,81.8457 -5.27126,3.75 -12.587,2.51811 -16.337,-2.75315 -0.212599,-0.3 -0.411024,-0.608268 -0.591733,-0.920079l-0.00472441 0.00236221 -61.0973 -105.823c-3.00355,-5.18622 -1.58858,-11.7248 3.0874,-15.2374l-0.00354331 -0.00472441z"/>
  <path class="fil0" d="M829.334 638.458c1.57677,-3.74528 3.18307,-7.77638 4.81418,-12.0815 1.66654,-4.40552 3.20433,-8.70001 4.60158,-12.8705 7.41497,-22.1292 12.7252,-45.3272 15.6874,-69.3591 0.767717,-6.28819 6.37205,-10.8047 12.6331,-10.2791l121.228 0c6.46182,0 11.7024,5.23937 11.7024,11.7024 0,0.355512 -0.0188977,0.707481 -0.0496063,1.05473l0.00354331 0 -0.00708662 0.0767717c-0.768898,8.32442 -1.70079,16.3429 -2.78977,24.0473 -1.12205,7.95473 -2.43425,15.8575 -3.92953,23.6965 -7.68662,40.33 -20.1874,78.9308 -36.8729,115.176 -2.71181,5.87953 -9.67796,8.44725 -15.5575,5.73544 -0.421654,-0.194882 -0.829135,-0.415748 -1.21772,-0.651969l-105.587 -60.9603c-5.35985,-3.10394 -7.34174,-9.80788 -4.65945,-15.287z"/>
  <path class="fil0" d="M854.422 455.867l-0.00708662 -0.0578741c-0.625985,-5.08229 -1.28386,-9.70749 -1.96654,-13.8815 -0.77126,-4.71733 -1.60984,-9.28465 -2.51103,-13.6984 -4.76693,-23.3433 -11.811,-45.8445 -20.8748,-67.2638 -2.31496,-5.49567 -0.115748,-11.7638 4.9193,-14.6705l-0.00826772 -0.0141732 105.841 -61.1079c5.60079,-3.24331 12.7725,-1.33228 16.0158,4.26851 0.279921,0.480709 0.517323,0.979135 0.720473,1.4811 3.33307,7.26142 6.36497,14.2547 9.0815,20.9705 2.80394,6.92835 5.56182,14.2488 8.26654,21.9555 13.3158,37.9347 22.2106,77.9859 26.0433,119.539 0.581103,6.43583 -4.16457,12.1287 -10.6016,12.711 -0.452363,0.0413386 -0.902363,0.056693 -1.34646,0.046063l-121.916 0.0011811c-5.98347,0 -10.9205,-4.48937 -11.6197,-10.2839l-0.0366142 0.00472441z"/>
  <path class="fil0" d="M784.842 284.603c-3.0437,-4.02048 -5.87835,-7.62757 -8.50158,-10.8295 -2.92559,-3.56811 -5.91615,-7.07481 -8.96694,-10.5177 -15.6165,-17.6221 -33.0284,-33.7359 -51.9567,-48.0744 -4.90867,-3.70512 -6.08268,-10.5213 -2.84882,-15.626l60.8823 -105.45c3.24331,-5.60079 10.4161,-7.51182 16.0158,-4.26851 0.407481,0.236221 0.79252,0.496063 1.16221,0.772442 6.25749,4.44922 12.5162,9.12639 18.763,14.0221 6.313,4.94646 12.4335,9.9756 18.352,15.0791 30.7713,26.5347 58.2922,56.7367 81.8646,89.928 3.75,5.27126 2.51811,12.587 -2.75315,16.337 -0.3,0.212599 -0.608268,0.411024 -0.920079,0.591733l0.00236221 0.00472441 -105.852 61.115c-5.18741,3.00355 -11.726,1.5874 -15.2386,-3.0874l-0.00472441 0.00354331z"/>
  <path class="fil0" d="M290.476 43.7067l0.0673229 -0.0307087c7.17048,-3.29764 14.302,-6.38386 21.3827,-9.24804l-0.00708662 -0.0165354c6.92717,-2.80276 14.2488,-5.56063 21.9543,-8.26536 37.9311,-13.3146 77.9812,-22.2106 119.532,-26.0421 6.43583,-0.581103 12.1287,4.16457 12.711,10.6016 0.0318898,0.35315 0.0496063,0.705119 0.0496063,1.05473l0.0413386 0 0 122.185c0,6.11812 -4.67599,11.1461 -10.65,11.6976 -4.97481,0.617717 -9.51615,1.26024 -13.6146,1.9311 -4.71851,0.77126 -9.28583,1.60984 -13.6984,2.50984 -23.3445,4.76575 -45.8492,11.8063 -67.2686,20.8701 -5.60434,2.35984 -12.0118,0.0248032 -14.8382,-5.22284l-60.939 -105.549c-3.21733,-5.60079 -1.28622,-12.7524 4.31339,-15.9697 0.317717,-0.183071 0.641339,-0.346063 0.968505,-0.494882l-0.00472441 -0.0106299z"/>
  <path class="fil0" d="M90.6402 209.36c4.44331,-6.24686 9.11339,-12.4937 14.0008,-18.7276 4.94764,-6.31063 9.97914,-12.4323 15.0827,-18.3473 26.5418,-30.7654 56.7508,-58.2756 89.9457,-81.8446 5.27126,-3.75 12.5858,-2.51811 16.3358,2.75315 0.212599,0.3 0.411024,0.608268 0.592914,0.920079l0.00472441 -0.00236221 61.0973 105.822c3.00355,5.18741 1.5874,11.726 -3.0874,15.2386l0.00354331 0.00472441c-4.02048,3.0437 -7.62875,5.87835 -10.8295,8.50158 -3.56811,2.92559 -7.07599,5.91733 -10.5189,8.96694 -17.6197,15.6189 -33.7347,33.0307 -48.0756,51.9603 -3.70512,4.90867 -10.5213,6.08268 -15.626,2.84882l-105.455 -60.8847c-5.60079,-3.24331 -7.51182,-10.4161 -4.26851,-16.0158 0.243307,-0.420473 0.511418,-0.814961 0.797245,-1.1941z"/>
  <path class="fil0" d="M0.19252 452.331c0.751182,-7.97363 1.64882,-15.6709 2.6941,-23.0705 1.12323,-7.95591 2.4378,-15.8575 3.92953,-23.6965 7.68898,-40.3311 20.1898,-78.9308 36.8752,-115.175 2.71181,-5.87953 9.67796,-8.44725 15.5575,-5.73544 0.581103,0.266929 1.13386,0.581103 1.64882,0.927166l105.112 60.6863c5.19685,2.98465 7.23544,9.35788 4.93347,14.7354l0.00236221 0.0011811c-1.65118,3.89882 -3.33425,8.11536 -5.04449,12.6307 -1.66772,4.40552 -3.20551,8.70001 -4.60158,12.8705 -7.41497,22.128 -12.7252,45.3272 -15.691,69.3579 -0.725197,5.95867 -5.79804,10.3287 -11.6551,10.3205l0 0.00354331 -122.206 0c-6.4878,0 -11.7484,-5.26063 -11.7484,-11.7473 0,-0.721654 0.068504,-1.42323 0.193701,-2.10827z"/>
 </g>
</svg>
