<?xml version="1.0" encoding="UTF-8"?>
<!DOCTYPE svg PUBLIC "-//W3C//DTD SVG 1.1//EN" "http://www.w3.org/Graphics/SVG/1.1/DTD/svg11.dtd">
<!-- Creator: CorelDRAW -->
<svg xmlns="http://www.w3.org/2000/svg" xml:space="preserve" width="1000px" height="1000px" style="shape-rendering:geometricPrecision; text-rendering:geometricPrecision; image-rendering:optimizeQuality; fill-rule:evenodd; clip-rule:evenodd"
viewBox="0 0 1000 1000"
 xmlns:xlink="http://www.w3.org/1999/xlink">
 <defs>
  <style type="text/css">
   <![CDATA[
    .fil0 {fill:#1F1A17;fill-rule:nonzero}
   ]]>
  </style>
 </defs>
 <g id="Слой_x0020_1">
  <metadata id="CorelCorpID_0Corel-Layer"/>
  <path class="fil0" d="M814.224 613.236l0.011811 -0.034252c0.0874016,-0.238583 0.179528,-0.477166 0.275197,-0.709843 1.71024,-4.7693 3.31181,-9.55985 4.79055,-14.3634 1.67953,-5.44843 3.14292,-10.6075 4.3878,-15.4654 6.63662,-25.9134 10.2496,-53.2075 10.4374,-81.4902 -0.102756,-0.758268 -0.153543,-1.53307 -0.153543,-2.32087l0 -0.00590552 0 -0.0141732c0,-0.940158 0.0744095,-1.85906 0.218504,-2.75788 -1.29567,-160.69 -118.582,-300.553 -276.579,-328.276 -8.82757,-1.54843 -14.8843,-9.64843 -14.0929,-18.4665l0.905906 -132.121c0.0366142,-9.46536 7.69843,-17.1083 17.1106,-17.0717 0.702756,0.00236221 1.39134,0.0507874 2.07166,0.137008l0 -0.00354331 0.0531496 0.00590552c15.8764,2.02677 31.4244,4.77402 46.6099,8.20512 15.4146,3.48425 30.4264,7.63229 45.0012,12.4099 204.973,67.1741 343.218,260.421 344.466,474.936 0.17126,0.97441 0.261024,1.9748 0.261024,3.00118l0 0.0153543 0 0.00708662c0,1.01929 -0.0885827,2.01496 -0.258662,2.98701 -0.193701,33.4725 -3.63544,66.1701 -10.0217,97.7765 -1.34055,6.63544 -2.47677,11.9162 -3.40985,15.8776 -6.35788,26.9563 -14.8677,53.0646 -25.3276,78.1194 -3.65315,8.76142 -13.6807,12.8835 -22.3902,9.21024 -1.16693,-0.49252 -2.25355,-1.10433 -3.24685,-1.80709l-113.702 -67.0772c-7.21772,-4.2567 -10.1752,-13.0347 -7.39607,-20.6681l-0.0106299 -0.00354331 0.00826772 -0.0236221 -0.0200788 -0.00826772zm-775.551 79.4812c-3.46299,-8.33859 -6.71693,-16.8071 -9.74883,-25.3996 -2.96693,-8.40237 -5.76497,-17.0811 -8.38229,-26.0197 -12.9378,-44.1874 -19.9996,-90.9709 -20.2807,-139.434 -0.17126,-0.976772 -0.261024,-1.97717 -0.261024,-3.00118l0 -0.0165354 0 -0.00590552c0,-1.02284 0.090945,-2.02205 0.259843,-2.99292 1.44921,-250.389 188.602,-464.522 437.052,-495.744 9.37442,-1.15039 17.9043,5.56182 19.0477,14.9906 0.151181,1.24252 0.165354,2.47441 0.0555119,3.67441l-0.907087 132.331c-0.0330709,8.43662 -6.12166,15.4276 -14.1106,16.8213l0.00826772 0.0484252 -0.0389764 0.00708662c-9.65198,1.72323 -19.1232,3.85394 -28.3902,6.36851 -9.47009,2.57008 -18.6295,5.48859 -27.4488,8.7319 -129.875,47.7532 -218.595,173.043 -219.718,313.016 0.144095,0.896457 0.217323,1.81181 0.217323,2.74961l0 0.00472441 0 0.0153543c0,0.937796 -0.0732284,1.85551 -0.218504,2.75315 0.125197,15.111 1.27677,30.1465 3.39095,45.0213 0.488977,3.44646 1.10433,7.24961 1.84016,11.4047 3.42992,19.3571 8.50631,38.1225 15.0744,56.1402 3.02362,8.29489 -0.709843,17.4201 -8.38701,21.2764l-114.846 65.6245c-8.19449,4.67717 -18.6095,1.78819 -23.2595,-6.45237 -0.35315,-0.628347 -0.660237,-1.27205 -0.928347,-1.92047l-0.0200788 0.00826772zm700.4 40.7044c5.91733,-6.09922 11.5949,-12.4394 17.0374,-18.9685 5.67993,-6.8256 15.515,-8.09764 22.6819,-3.19725l113.871 67.1752c8.12127,4.78819 10.8437,15.2917 6.08268,23.4591 -0.356693,0.611812 -0.747638,1.18937 -1.16457,1.73977l0.0212599 0.0177165c-1.10787,1.46102 -3.05788,3.9626 -5.77323,7.40788l-0.0330709 0.0413386 0.0330709 0.0259843c-1.2874,1.63347 -3.2315,4.03937 -5.90315,7.29922 -10.5071,12.828 -21.3213,24.8351 -32.3953,35.9729 -195.235,196.353 -516.163,191.992 -707.066,-0.00354331l-0.00826772 -0.00708662c-1.14803,-1.15512 -3.38032,-3.46536 -6.63071,-6.86103 -1.3063,-1.36417 -3.4689,-3.68504 -6.5067,-6.98268 -11.0835,-12.0307 -21.5823,-24.6024 -31.4492,-37.6607 -5.68465,-7.53544 -4.21772,-18.2788 3.2752,-23.9953 0.608268,-0.464174 1.24016,-0.883465 1.88622,-1.25197l-0.0153543 -0.0259843 115.993 -66.28c7.26142,-4.14331 16.2638,-2.35158 21.4571,3.84331l0.00590552 -0.00472441c1.36772,1.63228 2.28543,2.72126 2.59843,3.08504 1.36772,1.59213 2.23465,2.59843 2.63504,3.05079 4.09489,4.65591 8.81103,9.66969 14.1461,15.0354l0.011811 0.0106299c128.958,129.699 346.711,129.782 475.21,-2.92559z"/>
 </g>
</svg>
