<svg xmlns="http://www.w3.org/2000/svg" width="768" height="1000"><path style="text-indent:0;text-align:start;line-height:normal;text-transform:none;block-progression:tb;-inkscape-font-specification:Sans" d="M384.97 0c-221.646 .164 -262.937 184.925 -294.744 367.96 -83.799 133.314 -106.216 256.992 -79.661 267.515 13.445 5.327 41.034 -3.363 49.39 -13.506 1.717 110.326 40.246 195.791 106.275 250.75 -4.878 .914 -9.731 1.829 -14.52 2.824 -27.125 5.636 -52.226 12.543 -71.586 20.132 -9.68 3.795 -17.901 7.712 -24.55 12.13 -6.649 4.418 -12.651 9.12 -14.701 17.887 -1.289 5.513 2.007 12.057 5.106 14.665 3.099 2.608 5.888 3.583 8.763 4.526 5.748 1.887 12.146 2.909 19.01 3.911 13.728 2.003 29.898 4.34 34.435 6.264 7.029 2.98 9.267 6.277 14.592 12.094 5.237 5.719 13.613 13.033 27.193 16.62a11.599 11.599 0 0 0 1.774 .434c25.376 6.013 55.237 .627 77.09 2.861 .012 .001 .025 -.001 .036 0 8.6 .929 17.207 4.805 27.736 8.437 10.543 3.637 23.624 6.626 38.346 2.498 32.103 -9 56.333 -30.498 65.648 -55.437 10.398 .523 20.983 .708 31.792 .507 7.721 -.144 15.322 -.449 22.812 -.905 9.205 25.107 33.519 46.787 65.792 55.835 14.722 4.128 27.839 1.139 38.382 -2.498 10.529 -3.632 19.1 -7.508 27.7 -8.437 .012 -.001 .025 .001 .036 0 21.923 -2.241 51.914 3.21 77.343 -2.897a11.599 11.599 0 0 0 .869 -.217c.124 -.031 .239 -.077 .362 -.109a11.599 11.599 0 0 0 .29 -.072c13.6 -3.583 21.952 -10.896 27.193 -16.62 5.326 -5.817 7.564 -9.114 14.592 -12.094 4.537 -1.924 20.708 -4.261 34.435 -6.264 6.864 -1.002 13.261 -2.024 19.01 -3.911 2.874 -.943 5.664 -1.918 8.763 -4.526 3.099 -2.608 6.395 -9.151 5.106 -14.665 -2.05 -8.767 -8.052 -13.469 -14.701 -17.887 -6.649 -4.418 -14.87 -8.335 -24.55 -12.13 -19.36 -7.589 -44.46 -14.496 -71.586 -20.132 -3.209 -.667 -6.452 -1.288 -9.704 -1.919 63.579 -51.011 98.826 -129.085 98.019 -230.943 7.879 9.223 31.963 14.451 43.234 9.632 22.108 -9.451 25.409 -115.326 -78.357 -277.074 -30.675 -203.153 -68.868 -375.404 -292.463 -375.238zm-109.895 93.384c43.247 -.845 80.021 31.897 83.101 74.881 2.763 38.555 -23.857 53.637 -60.433 58.985 20.762 -8.486 35.377 -28.628 35.377 -52.142 0 -7.421 -1.447 -14.51 -4.092 -21.001 -3.234 17.5 -18.78 30.778 -37.477 30.778 -21.043 0 -38.128 -16.82 -38.128 -37.549 0 -11.049 4.845 -20.982 12.565 -27.845 -26.966 4.587 -47.471 27.743 -47.471 55.618 0 26.081 17.966 48.02 42.365 54.495 -35.791 -.715 -63.127 -12.303 -65.829 -50.005 -3.179 -44.37 30.779 -82.866 75.822 -85.997 1.408 -.098 2.805 -.19 4.2 -.217zm217.401 0c1.395 .027 2.793 .119 4.2 .217 45.044 3.131 78.966 41.627 75.786 85.997 -2.703 37.715 -30.028 49.297 -65.829 50.005 24.407 -6.475 42.401 -28.414 42.401 -54.495 0 -2.922 -.217 -5.779 -.652 -8.582 -6.653 10.997 -18.838 18.358 -32.769 18.358 -21.043 0 -38.092 -16.82 -38.092 -37.549 0 -11.495 5.246 -21.799 13.506 -28.678 -31.323 .367 -56.595 25.508 -56.595 56.45 0 23.502 14.569 43.648 35.304 52.142 -36.547 -5.358 -63.158 -20.455 -60.397 -58.985 3.08 -42.984 39.889 -75.726 83.137 -74.881zm-109.823 151.138c27.825 -.248 56.506 4.681 71.948 14.846 1.345 .886 2.471 1.763 3.404 2.643 -44.086 20.195 -87.689 19.223 -140.239 -2.643 .842 -.719 1.819 -1.433 2.969 -2.136 13.478 -8.239 37.366 -12.491 61.918 -12.709zm-65.792 28.243c50.918 20.322 96.373 21.819 140.565 3.404 -12.736 11.832 -52.163 20.791 -69.703 21.219 -18.136 .442 -59.573 -11.406 -70.862 -24.622zm71.115 76.221c138.149 0 250.134 104.889 250.134 286.018 0 181.12 -111.985 275.698 -250.134 275.698s-250.134 -94.578 -250.134 -275.698c0 -181.129 111.985 -286.018 250.134 -286.018zm-195.712 542.887c6.077 3.945 12.318 7.683 18.756 11.189 -21.062 15.453 -41.014 36.116 -60.868 56.45 -4.796 -1.985 -6.987 -4.402 -10.283 -8.002 -4.451 -4.862 -10.78 -12.755 -22.631 -17.779 -11.906 -5.049 -27.133 -5.963 -40.12 -7.857 -2.065 -.301 -2.964 -.619 -4.816 -.941 4.302 -2.438 9.576 -5.043 16.294 -7.676 17.441 -6.837 41.624 -13.567 67.82 -19.01 11.643 -2.419 23.735 -4.556 35.847 -6.373zm395.515 .616c10.741 1.678 21.422 3.61 31.756 5.757 26.196 5.443 50.379 12.173 67.82 19.01 6.718 2.634 11.992 5.238 16.294 7.676 -1.844 .321 -2.725 .642 -4.78 .941 -12.987 1.895 -28.214 2.809 -40.12 7.857 -11.85 5.024 -18.216 12.917 -22.667 17.779 -3.303 3.607 -5.478 6.015 -10.283 8.002 -19.317 -19.784 -38.695 -39.911 -59.13 -55.219 7.282 -3.681 14.322 -7.617 21.11 -11.804zm-352.209 22.522c30.251 13.014 63.849 21.619 100.3 25.6 -8.159 14.489 -24.854 28.838 -47.145 35.087 -8.831 2.476 -15.632 .989 -24.586 -2.1 -8.954 -3.089 -19.453 -8.162 -32.842 -9.595h-.036c-17.549 -1.801 -36.421 -.513 -52.25 -.543 19.466 -19.336 38.651 -37.014 56.559 -48.448zm305.824 .652c17.62 11.447 36.443 28.821 55.545 47.796 -15.829 .03 -34.701 -1.258 -52.25 .543h-.036c-13.388 1.434 -23.888 6.507 -32.842 9.595 -8.954 3.089 -15.719 4.576 -24.55 2.1 -22.569 -6.327 -39.417 -20.959 -47.471 -35.63 37.177 -4.118 71.177 -12.303 101.604 -24.405z" color="#000" overflow="visible" enable-background="accumulate" font-family="Sans" transform=" scale(1) translate(-0.001 0)"/></svg>
